<svg width="547" height="600" viewBox="0 0 547 600" fill="none" xmlns="http://www.w3.org/2000/svg">
<path d="M438.354 420.148C438.824 452.164 421.431 471.938 383.355 484.65L376.774 487.004C350.45 495.008 317.545 497.362 295.451 498.775H294.041C295.921 514.783 297.332 532.203 298.272 549.623C301.092 547.74 303.442 545.857 305.793 543.974C307.673 542.09 310.494 540.207 312.844 537.382C320.365 530.32 331.177 519.02 342.459 516.195C354.68 512.899 370.193 518.549 370.663 532.674C371.133 543.974 358.441 555.273 348.57 560.452C346.219 561.865 339.168 564.219 340.108 567.514C341.048 572.223 371.603 560.923 373.483 559.981C391.346 552.919 405.448 545.386 415.79 536.44C427.542 526.553 437.413 518.549 446.345 511.958C460.447 499.717 467.028 491.242 468.908 484.65C470.319 478.53 470.319 472.88 467.968 469.584C466.558 467.23 464.208 465.818 461.857 466.288C457.627 466.288 453.396 470.055 451.516 475.705C443.524 498.304 430.832 511.958 412.97 516.666C410.619 517.137 408.269 517.608 406.389 517.608C398.397 517.608 391.816 513.841 390.406 508.662C389.466 503.954 393.697 499.246 401.688 496.892C443.054 476.646 448.225 453.106 448.225 434.744C448.225 422.502 443.994 416.382 441.644 416.382C440.234 416.382 438.824 417.323 438.354 420.148Z" fill="url(#paint0_linear)"/>
<path d="M219.772 578.813H221.182C225.883 577.872 229.643 576.93 233.404 576.459C245.156 573.164 261.608 566.572 270.069 552.918C277.591 541.148 279.471 531.261 275.71 525.611C273.83 522.786 271.01 521.374 267.249 521.374C263.488 521.374 258.788 523.728 257.848 529.378C256.437 535.969 252.207 552.918 238.104 560.922C231.053 564.689 223.062 567.043 216.011 567.043C209.43 567.043 204.259 565.16 200.969 561.864C196.738 557.156 195.328 550.564 196.738 541.148C198.148 531.261 199.558 521.374 201.439 511.016C182.166 515.253 164.773 520.432 149.261 526.553C130.928 533.615 108.364 543.502 92.3818 559.039C85.3307 565.631 75.4591 579.755 77.3394 590.584C77.8095 594.351 80.1599 597.646 83.4504 600C90.9715 599.53 98.9628 599.059 106.484 598.588C103.193 596.705 101.313 593.409 101.313 589.642C101.783 580.697 114.005 568.455 135.158 568.455C142.21 568.455 149.261 569.868 156.782 572.222C158.662 572.693 160.542 573.634 162.423 574.105C176.525 578.813 186.867 582.58 204.729 582.109C209.9 579.755 215.071 579.284 219.772 578.813Z" fill="url(#paint1_linear)"/>
<path d="M546.941 555.743C546.941 553.86 545.53 552.448 542.24 552.448C538.479 552.448 529.548 555.272 518.736 558.568C506.514 562.335 491.002 567.043 476.43 569.868C467.968 571.751 460.447 572.222 454.336 572.222C441.174 572.222 435.533 568.455 433.653 565.63C431.773 562.806 431.303 559.039 432.713 554.331C438.824 537.381 473.609 512.899 493.352 505.366C506.044 500.658 513.095 495.949 514.506 492.183C514.976 490.77 514.506 489.358 513.565 487.945C513.095 487.475 512.155 487.004 510.275 487.004C494.763 487.004 448.695 525.14 423.781 545.856C411.56 555.743 396.517 564.218 377.714 571.751C366.903 575.988 354.211 580.226 342.929 580.226C341.049 580.226 339.638 580.226 338.228 579.755C333.527 579.284 330.237 577.401 328.827 574.576C321.305 562.335 336.348 554.331 341.989 551.035C349.98 546.798 354.211 541.148 353.27 536.911C352.8 534.086 349.98 531.732 346.219 531.261C338.698 529.848 330.237 538.323 322.716 545.385C319.895 548.21 317.545 550.564 314.724 552.448C289.811 572.693 250.324 586.817 204.727 592.467C219.3 591.996 233.872 591.996 248.914 591.996C301.562 591.525 352.33 592.938 399.808 595.763C405.449 594.35 410.149 592.467 415.32 590.113L416.26 589.642C431.773 583.051 529.078 561.864 540.36 560.922C545.06 560.451 547.411 558.097 546.941 555.743Z" fill="url(#paint2_linear)"/>
<path d="M205.198 13.8311C202.847 11.0062 199.557 8.65212 196.266 6.29802C176.053 -5.47244 149.259 -0.293434 136.097 18.0685C127.165 30.3098 126.695 45.376 133.276 57.6172C148.789 35.9596 174.643 20.4226 205.198 13.8311Z" fill="url(#paint3_linear)"/>
<path d="M118.705 232.291C143.148 220.992 170.883 213.459 197.677 211.575C201.908 211.104 206.138 211.104 210.839 211.104C225.881 211.104 240.454 212.517 255.966 214.4L261.137 214.871C270.538 215.813 279.94 216.754 289.811 216.754C297.332 216.754 303.443 215.813 309.084 214.4C316.135 212.517 320.836 208.75 321.776 204.042C322.716 198.392 318.956 192.272 310.965 187.563C291.221 176.264 271.008 171.556 247.505 171.556C224.001 171.556 186.865 178.147 145.499 209.221C136.567 215.813 127.636 223.817 118.705 232.291Z" fill="url(#paint4_linear)"/>
<path d="M113.063 355.645C114.474 352.82 116.354 349.996 118.234 346.7C102.722 348.112 86.2693 352.35 71.697 358.47C65.5861 360.824 45.843 370.241 44.4328 380.128C43.9627 383.894 46.3131 387.661 51.9539 391.428C56.6547 393.782 62.2955 395.194 67.4664 395.194C68.4065 395.194 69.3466 395.194 69.8167 395.194C91.9102 391.898 95.6707 385.778 113.063 355.645Z" fill="url(#paint5_linear)"/>
<path d="M84.8587 270.897C74.9871 283.61 65.1156 298.205 55.7141 314.213C62.2951 309.505 70.2864 305.267 77.8076 301.03C105.072 285.493 150.199 273.722 153.019 273.252C165.711 256.302 196.736 247.357 245.154 247.357C258.786 247.357 272.888 247.827 287.93 249.24C290.281 249.24 292.631 249.711 294.981 249.711C302.503 250.652 310.494 251.123 318.015 250.652C322.716 250.181 326.476 247.827 330.707 245.473C333.057 244.061 335.878 242.178 338.698 241.236C348.1 237.469 357.501 235.586 366.433 236.528C357.971 226.17 349.04 217.224 340.579 209.691C339.638 211.103 338.228 212.516 336.818 213.928C325.536 223.345 308.143 228.053 283.23 228.053C279.939 228.053 276.178 228.053 272.418 228.053C262.546 227.582 252.675 226.641 243.273 225.228C231.522 223.816 219.77 222.403 208.018 222.403C207.078 222.403 206.138 222.403 205.667 222.403C182.634 222.874 161.481 227.111 142.678 234.644C119.174 243.119 99.4309 255.831 84.8587 270.897Z" fill="url(#paint6_linear)"/>
<path d="M55.2441 353.762C76.8675 343.404 101.311 336.813 124.345 335.4C129.986 324.571 131.866 317.509 137.507 308.093C146.438 293.026 138.447 317.038 135.157 325.984C142.678 320.334 153.489 316.097 161.951 313.272C174.643 309.505 188.275 306.68 201.907 306.209C206.138 305.739 210.838 305.739 215.539 305.739C234.342 305.739 253.615 307.151 271.948 309.034C277.589 309.505 283.7 309.976 289.341 310.447C291.221 310.447 294.041 310.918 296.862 311.388C303.913 312.33 313.784 313.272 323.186 313.272C337.288 313.272 346.22 310.447 349.51 304.797L348.1 301.972L348.57 301.501C362.202 287.847 381.945 279.844 399.338 280.785C393.697 271.84 387.586 263.365 381.945 255.832C370.193 246.415 357.971 244.532 345.749 249.711C343.399 250.653 340.579 252.536 338.228 253.949C334.468 256.303 330.707 258.657 326.946 259.598C322.716 261.011 317.545 261.482 311.434 261.482C305.793 261.482 299.682 261.011 294.041 260.54C292.161 260.54 290.751 260.069 288.871 260.069C271.478 258.657 258.316 258.186 246.094 258.186C231.052 258.186 217.419 259.598 205.197 261.482C184.984 265.248 164.771 270.898 150.199 285.493V286.906H149.729C123.405 290.672 99.901 301.501 84.8587 309.976C66.5258 320.334 43.9623 335.4 35.501 356.116C34.5609 360.354 34.5609 364.12 35.0309 367.887C41.1419 360.824 50.0733 356.116 55.2441 353.762Z" fill="url(#paint7_linear)"/>
<path d="M412.97 301.972C407.329 296.322 400.748 293.497 393.227 293.497C385.236 293.497 376.304 296.793 368.313 303.384C363.142 318.451 347.16 325.513 318.955 325.984C304.383 325.984 289.341 324.1 277.119 322.688C271.948 322.217 267.717 321.746 263.957 321.275C249.385 319.863 236.693 319.392 224.941 319.392C169.002 319.863 134.217 333.988 122.465 362.237C118.704 372.595 114.944 383.424 111.653 394.252C128.576 382.011 152.549 374.949 185.925 370.711C195.796 369.299 206.608 368.828 218.36 368.828C231.992 368.828 245.624 369.299 259.256 370.241C266.307 370.711 273.828 370.711 280.88 371.182C283.7 371.182 286.99 371.182 290.281 371.182C302.973 371.182 321.306 370.241 336.818 365.532C343.869 363.649 350.45 360.353 356.561 357.058C359.382 355.645 361.732 353.762 363.612 351.879C364.553 350.937 365.493 350.466 365.963 349.525C366.903 347.641 365.963 344.816 367.843 342.933C380.065 332.104 399.338 325.042 416.261 325.042C420.021 325.042 423.312 325.513 426.602 325.984C421.901 317.038 417.201 309.034 412.97 301.972Z" fill="url(#paint8_linear)"/>
<path d="M412.969 336.342C400.277 336.342 385.705 342.933 377.244 351.879L376.774 352.35C376.304 353.291 375.363 353.762 374.893 354.704L373.953 356.116L374.893 358.941L374.423 359.412C354.21 381.54 319.895 384.365 295.921 384.365C282.289 384.365 268.657 383.424 255.495 382.482C247.974 382.011 241.393 381.54 234.811 381.54C231.521 381.54 228.23 381.54 224.94 381.54C169.941 382.011 105.541 402.727 90.9691 461.58C90.499 463.463 90.0289 464.875 89.5588 466.759C128.105 439.451 187.804 432.389 212.248 430.506C224.47 429.564 236.692 429.093 248.914 428.151C276.648 426.739 305.793 424.856 333.527 421.089L335.407 420.618C348.099 418.735 374.423 415.439 382.415 404.61C384.765 401.786 385.235 398.49 384.295 394.252C382.885 390.486 381.474 386.249 380.064 382.011L379.124 378.715L382.415 380.128C386.175 382.011 391.346 382.482 399.807 382.482C407.798 382.482 420.02 378.715 427.542 370.712C433.653 364.12 436.003 355.175 434.123 344.346C428.952 337.754 419.55 336.342 412.969 336.342Z" fill="url(#paint9_linear)"/>
<path d="M286.992 437.568H286.052C287.462 446.042 289.812 462.521 292.633 486.062H295.453C326.008 483.708 377.716 479.941 394.168 459.696C399.339 453.575 400.279 446.042 397.929 437.568C395.579 430.505 393.698 422.972 391.348 415.91C388.527 420.147 381.946 423.914 371.605 427.21C343.871 434.743 306.735 436.626 286.992 437.568Z" fill="url(#paint10_linear)"/>
<path d="M215.07 441.335C197.207 442.748 174.644 445.102 153.02 451.222C112.594 462.993 88.1501 481.355 80.1589 505.837C75.9282 524.199 72.1676 542.561 69.3472 560.452C71.6975 557.627 73.5778 555.273 75.9282 553.39C109.303 523.258 157.251 507.721 203.318 498.304C203.318 497.833 212.249 450.281 215.07 441.335Z" fill="url(#paint11_linear)"/>
<path d="M32.6812 521.373C19.9892 512.427 13.4082 499.715 15.2885 485.12C16.6987 470.054 26.1002 455.458 41.6126 443.217C46.7834 438.98 44.9031 437.096 38.7922 440.392C19.0491 451.692 4.94688 468.641 1.1863 487.474C-3.51444 508.661 5.88703 528.435 27.0403 541.618C32.2111 544.914 43.0228 546.797 46.7834 540.206C51.4841 532.202 37.3819 524.669 32.6812 521.373Z" fill="url(#paint12_linear)"/>
<path d="M484.893 443.688C483.952 447.925 479.722 451.221 475.961 451.221C472.201 451.221 469.85 447.455 470.79 443.217C471.73 438.98 475.961 435.684 479.722 435.684C483.482 436.155 485.833 439.451 484.893 443.688Z" fill="url(#paint13_linear)"/>
<path d="M323.659 122.589C314.257 137.185 298.745 148.014 275.711 148.014C258.789 148.014 240.456 141.893 227.764 127.768C226.354 127.768 225.413 127.768 224.003 127.768C223.063 127.768 222.123 127.768 221.653 127.768C193.919 127.768 160.073 136.243 153.492 149.426C151.142 154.605 153.022 160.255 159.133 166.376C163.364 170.613 168.065 174.38 173.235 177.675C193.919 164.492 219.773 157.43 247.037 157.43C262.549 157.43 278.062 159.313 292.634 164.022C297.805 165.434 303.916 166.376 309.557 166.376C318.958 166.376 336.351 164.022 348.573 149.897C357.034 136.714 361.735 121.648 361.735 106.582C361.735 106.111 361.735 106.111 361.735 105.64C352.803 114.586 337.761 119.765 323.659 122.589Z" fill="url(#paint14_linear)"/>
<path d="M252.678 22.3052C252.678 22.3052 258.789 25.6009 258.789 31.7216C264.9 30.3091 271.481 29.3675 278.062 29.3675C282.292 29.3675 286.053 29.8383 289.814 30.7799C295.924 30.3091 302.035 29.3675 309.087 28.4259L313.787 27.955C327.419 26.5426 337.291 20.4219 341.992 11.9472C334.471 9.59312 326.479 9.59312 318.958 11.9472C311.437 13.8305 304.856 18.0679 299.685 23.2469L298.745 24.1885L297.805 23.7177C281.822 17.597 264.9 14.3013 247.037 14.3013C207.081 14.3013 170.415 31.2508 149.732 58.0874C153.492 55.7333 157.723 53.8501 161.954 51.496C173.705 45.8461 186.397 42.0796 200.5 38.7839C207.551 37.3714 211.781 31.7216 217.892 28.4259C225.413 24.6593 231.524 27.0134 238.105 31.7216C244.216 35.959 255.968 31.2508 252.678 22.3052Z" fill="url(#paint15_linear)"/>
<path d="M328.829 61.3834C330.239 60.9126 331.179 60.4418 332.119 59.9709C334.47 58.5585 336.82 56.2044 337.76 53.3795C338.23 51.967 338.23 50.0838 336.82 48.6713L334.47 46.3172H338.23C343.871 45.8464 348.572 44.9047 352.332 43.4923C360.794 40.1966 364.084 34.0759 361.264 25.1304C358.443 21.8346 355.153 19.0097 351.392 16.6556C344.341 26.5428 332.589 31.7218 323.188 34.0759C324.128 34.5467 325.068 35.0176 325.538 35.9592L328.359 37.8425H325.068C320.367 38.7841 315.197 39.7257 310.496 40.1966C318.487 45.3756 324.598 52.4378 328.829 61.3834Z" fill="url(#paint16_linear)"/>
<path d="M330.708 107.523C339.169 104.698 346.22 100.932 350.921 95.7527C356.092 90.1028 357.972 83.5114 356.092 75.9783C355.622 74.5658 354.682 73.6242 354.211 72.2117L353.741 70.7993L354.681 69.8576C354.681 69.3868 354.681 68.916 355.152 68.4452C355.622 67.5035 356.562 67.0327 357.972 67.0327C365.023 59.9704 368.784 51.4957 368.314 42.0793C363.143 46.3167 355.152 49.6124 344.81 51.4957C345.75 52.4374 346.22 53.379 347.16 54.3206C348.571 56.6747 349.041 58.558 347.63 60.9121C345.75 65.1495 339.169 68.4452 332.118 70.7993C333.058 74.5658 333.528 78.8032 333.998 83.0406C334.468 91.0445 333.058 99.5192 330.708 107.523Z" fill="url(#paint17_linear)"/>
<path d="M209.899 118.353C214.6 117.882 217.89 112.232 216.48 105.17C215.07 99.5201 214.6 93.3994 214.6 86.808C201.908 88.2204 188.746 90.5745 176.524 93.8703C148.79 100.933 136.098 113.645 137.038 132.948C138.918 137.656 140.798 142.365 143.619 147.073C143.619 146.131 144.089 144.719 144.559 143.777C148.79 134.361 163.832 127.298 172.763 124.473C184.985 120.707 197.677 119.294 209.899 118.353Z" fill="url(#paint18_linear)"/>
<path d="M300.154 39.2552C300.624 40.1968 301.094 41.1384 301.094 42.5509C301.094 47.2591 294.983 56.2046 287.462 57.1463C286.522 61.8545 286.522 66.5626 292.632 68.9167C299.214 71.7416 307.205 70.3292 313.316 67.5043C325.068 61.3836 328.358 99.5199 307.675 118.353C305.324 120.236 301.564 124.002 296.863 121.178C274.3 107.524 261.138 128.24 244.685 116.94C229.173 106.111 225.882 79.2747 236.224 63.7377C245.155 50.5548 253.146 61.8545 265.368 66.0918C274.77 69.3876 285.111 66.5626 282.761 56.2046C275.24 53.3797 269.599 43.9634 269.599 39.2552C269.599 36.9011 271.009 35.0178 273.359 33.6053C247.505 34.547 226.352 52.4381 223.532 76.4498C216.951 120.236 248.916 136.715 277.12 137.185C313.316 137.656 328.358 105.641 328.358 80.6872C328.828 62.7961 317.076 47.2591 300.154 39.2552Z" fill="url(#paint19_linear)"/>
<path d="M302.974 75.5085C298.743 75.5085 292.632 76.4501 279.94 74.5668C265.838 72.6835 262.078 69.8586 257.847 69.3878C255.497 69.3878 253.146 70.8003 254.086 73.6252C255.026 78.3334 256.437 86.8081 258.787 86.8081C260.197 86.8081 261.137 83.5124 262.078 80.2166C263.018 76.9209 265.838 75.9793 267.248 75.9793C273.829 75.5085 284.171 75.9793 293.102 78.3334C296.863 79.275 298.743 80.6875 299.213 84.454C299.683 87.7497 300.153 91.0455 301.564 91.0455C303.444 91.5163 305.794 85.3956 307.205 80.6875C307.675 78.3334 307.205 75.5085 302.974 75.5085Z" fill="url(#paint20_linear)"/>
<path d="M295.452 111.291C294.982 107.054 294.512 102.345 293.102 102.345C292.162 102.345 290.751 103.758 289.811 106.112C289.341 107.054 287.931 108.466 286.051 107.995C281.35 107.524 277.119 107.054 273.359 107.054C271.478 107.054 270.538 105.17 270.068 104.229C269.598 101.875 269.128 99.9913 268.188 99.9913C266.308 99.9913 264.427 104.7 263.017 109.408C262.077 111.762 263.487 114.116 266.308 113.174C273.829 110.82 281.82 109.408 291.692 114.116C294.042 115.528 295.922 113.645 295.452 111.291Z" fill="url(#paint21_linear)"/>
<path d="M204.728 48.2014C176.523 53.8512 143.618 67.9757 134.687 90.1042C133.277 95.2832 132.807 100.933 132.807 106.112C143.618 86.8085 175.583 81.1587 200.497 78.8046C208.488 77.8629 214.129 75.5088 217.89 67.5049C217.89 67.0341 217.89 67.0341 218.36 67.0341C221.65 58.5594 227.291 50.5555 234.813 44.9056C224.471 44.9056 214.129 45.8473 204.728 48.2014Z" fill="url(#paint22_linear)"/>
<defs>
<linearGradient id="paint0_linear" x1="235.087" y1="510.725" x2="535.706" y2="476.422" gradientUnits="userSpaceOnUse">
<stop offset="0.010503" stop-color="#00CA8D"/>
<stop offset="0.2092" stop-color="#00CAE1"/>
<stop offset="0.4635" stop-color="#97008B"/>
<stop offset="0.6866" stop-color="#EB008B"/>
<stop offset="0.8614" stop-color="#EB0048"/>
<stop offset="1" stop-color="#FFB500"/>
</linearGradient>
<linearGradient id="paint1_linear" x1="77.22" y1="554.104" x2="277.307" y2="554.104" gradientUnits="userSpaceOnUse">
<stop offset="0.010503" stop-color="#00CA8D"/>
<stop offset="0.2092" stop-color="#00CAE1"/>
<stop offset="0.4635" stop-color="#97008B"/>
<stop offset="0.6866" stop-color="#EB008B"/>
<stop offset="0.8299" stop-color="#EB0048"/>
<stop offset="1" stop-color="#FFB500"/>
</linearGradient>
<linearGradient id="paint2_linear" x1="634.908" y1="502.208" x2="183.071" y2="599.979" gradientUnits="userSpaceOnUse">
<stop offset="0.010503" stop-color="#00CA8D"/>
<stop offset="0.2092" stop-color="#00CAE1"/>
<stop offset="0.4635" stop-color="#97008B"/>
<stop offset="0.5878" stop-color="#EB008B"/>
<stop offset="0.7017" stop-color="#EB0048"/>
<stop offset="0.9038" stop-color="#FFB500"/>
</linearGradient>
<linearGradient id="paint3_linear" x1="112.025" y1="45.0596" x2="226.608" y2="-7.56395" gradientUnits="userSpaceOnUse">
<stop offset="0.010503" stop-color="#00CA8D"/>
<stop offset="0.2092" stop-color="#00CAE1"/>
<stop offset="0.4635" stop-color="#97008B"/>
<stop offset="0.6866" stop-color="#EB008B"/>
<stop offset="0.8614" stop-color="#EB0048"/>
<stop offset="1" stop-color="#FFB500"/>
</linearGradient>
<linearGradient id="paint4_linear" x1="125.496" y1="202.117" x2="329.275" y2="202.117" gradientUnits="userSpaceOnUse">
<stop offset="0.010503" stop-color="#00CA8D"/>
<stop offset="0.2092" stop-color="#00CAE1"/>
<stop offset="0.4635" stop-color="#97008B"/>
<stop offset="0.6866" stop-color="#EB008B"/>
<stop offset="0.8614" stop-color="#EB0048"/>
<stop offset="1" stop-color="#FFB500"/>
</linearGradient>
<linearGradient id="paint5_linear" x1="41.5724" y1="360.322" x2="264.909" y2="407.206" gradientUnits="userSpaceOnUse">
<stop offset="0.010503" stop-color="#00CA8D"/>
<stop offset="0.2092" stop-color="#00CAE1"/>
<stop offset="0.4635" stop-color="#97008B"/>
<stop offset="0.6866" stop-color="#EB008B"/>
<stop offset="0.8614" stop-color="#EB0048"/>
<stop offset="1" stop-color="#FFB500"/>
</linearGradient>
<linearGradient id="paint6_linear" x1="67.1327" y1="261.651" x2="378.127" y2="261.651" gradientUnits="userSpaceOnUse">
<stop offset="0.010503" stop-color="#00CA8D"/>
<stop offset="0.2092" stop-color="#00CAE1"/>
<stop offset="0.4635" stop-color="#97008B"/>
<stop offset="0.6866" stop-color="#EB008B"/>
<stop offset="0.8614" stop-color="#EB0048"/>
<stop offset="1" stop-color="#FFB500"/>
</linearGradient>
<linearGradient id="paint7_linear" x1="34.6789" y1="307.53" x2="399.862" y2="307.53" gradientUnits="userSpaceOnUse">
<stop offset="0.010503" stop-color="#00CA8D"/>
<stop offset="0.2092" stop-color="#00CAE1"/>
<stop offset="0.4635" stop-color="#97008B"/>
<stop offset="0.6866" stop-color="#EB008B"/>
<stop offset="0.8614" stop-color="#EB0048"/>
<stop offset="1" stop-color="#FFB500"/>
</linearGradient>
<linearGradient id="paint8_linear" x1="80.0909" y1="343.364" x2="395.18" y2="343.364" gradientUnits="userSpaceOnUse">
<stop offset="0.010503" stop-color="#00CA8D"/>
<stop offset="0.2092" stop-color="#00CAE1"/>
<stop offset="0.4635" stop-color="#97008B"/>
<stop offset="0.6866" stop-color="#EB008B"/>
<stop offset="0.8614" stop-color="#EB0048"/>
<stop offset="1" stop-color="#FFB500"/>
</linearGradient>
<linearGradient id="paint9_linear" x1="60.3555" y1="401.381" x2="405.426" y2="401.381" gradientUnits="userSpaceOnUse">
<stop offset="0.010503" stop-color="#00CA8D"/>
<stop offset="0.2092" stop-color="#00CAE1"/>
<stop offset="0.4635" stop-color="#97008B"/>
<stop offset="0.6866" stop-color="#EB008B"/>
<stop offset="0.8614" stop-color="#EB0048"/>
<stop offset="1" stop-color="#FFB500"/>
</linearGradient>
<linearGradient id="paint10_linear" x1="255.163" y1="475.663" x2="421.817" y2="431.064" gradientUnits="userSpaceOnUse">
<stop offset="0.010503" stop-color="#00CA8D"/>
<stop offset="0.2092" stop-color="#00CAE1"/>
<stop offset="0.4635" stop-color="#97008B"/>
<stop offset="0.6866" stop-color="#EB008B"/>
<stop offset="0.8614" stop-color="#EB0048"/>
<stop offset="1" stop-color="#FFB500"/>
</linearGradient>
<linearGradient id="paint11_linear" x1="82.7678" y1="487.73" x2="289.762" y2="533.525" gradientUnits="userSpaceOnUse">
<stop offset="0.010503" stop-color="#00CA8D"/>
<stop offset="0.2092" stop-color="#00CAE1"/>
<stop offset="0.4635" stop-color="#97008B"/>
<stop offset="0.6866" stop-color="#EB008B"/>
<stop offset="0.8614" stop-color="#EB0048"/>
<stop offset="1" stop-color="#FFB500"/>
</linearGradient>
<linearGradient id="paint12_linear" x1="4.78894" y1="598.67" x2="87.4866" y2="235.721" gradientUnits="userSpaceOnUse">
<stop offset="0.010503" stop-color="#00CA8D"/>
<stop offset="0.2092" stop-color="#00CAE1"/>
<stop offset="0.4635" stop-color="#97008B"/>
<stop offset="0.5878" stop-color="#EB008B"/>
<stop offset="0.7017" stop-color="#EB0048"/>
<stop offset="0.9038" stop-color="#FFB500"/>
</linearGradient>
<linearGradient id="paint13_linear" x1="455.97" y1="474.276" x2="493.838" y2="421" gradientUnits="userSpaceOnUse">
<stop offset="0.010503" stop-color="#00CA8D"/>
<stop offset="0.2092" stop-color="#00CAE1"/>
<stop offset="0.4635" stop-color="#97008B"/>
<stop offset="0.6866" stop-color="#EB008B"/>
<stop offset="0.8614" stop-color="#EB0048"/>
<stop offset="1" stop-color="#FFB500"/>
</linearGradient>
<linearGradient id="paint14_linear" x1="153.125" y1="141.575" x2="362.807" y2="141.575" gradientUnits="userSpaceOnUse">
<stop offset="0.010503" stop-color="#00CA8D"/>
<stop offset="0.2092" stop-color="#00CAE1"/>
<stop offset="0.4635" stop-color="#97008B"/>
<stop offset="0.6866" stop-color="#EB008B"/>
<stop offset="0.8614" stop-color="#EB0048"/>
<stop offset="1" stop-color="#FFB500"/>
</linearGradient>
<linearGradient id="paint15_linear" x1="149.848" y1="34.1844" x2="341.935" y2="34.1844" gradientUnits="userSpaceOnUse">
<stop offset="0.010503" stop-color="#00CA8D"/>
<stop offset="0.2092" stop-color="#00CAE1"/>
<stop offset="0.4635" stop-color="#97008B"/>
<stop offset="0.6866" stop-color="#EB008B"/>
<stop offset="0.8614" stop-color="#EB0048"/>
<stop offset="1" stop-color="#FFB500"/>
</linearGradient>
<linearGradient id="paint16_linear" x1="132.45" y1="38.7243" x2="362.328" y2="38.7243" gradientUnits="userSpaceOnUse">
<stop offset="0.010503" stop-color="#00CA8D"/>
<stop offset="0.2092" stop-color="#00CAE1"/>
<stop offset="0.4635" stop-color="#97008B"/>
<stop offset="0.6866" stop-color="#EB008B"/>
<stop offset="0.8614" stop-color="#EB0048"/>
<stop offset="1" stop-color="#FFB500"/>
</linearGradient>
<linearGradient id="paint17_linear" x1="136.918" y1="74.9552" x2="368.189" y2="74.9552" gradientUnits="userSpaceOnUse">
<stop offset="0.010503" stop-color="#00CA8D"/>
<stop offset="0.2092" stop-color="#00CAE1"/>
<stop offset="0.4635" stop-color="#97008B"/>
<stop offset="0.6866" stop-color="#EB008B"/>
<stop offset="0.8614" stop-color="#EB0048"/>
<stop offset="1" stop-color="#FFB500"/>
</linearGradient>
<linearGradient id="paint18_linear" x1="136.94" y1="116.719" x2="355.977" y2="116.719" gradientUnits="userSpaceOnUse">
<stop offset="0.010503" stop-color="#00CA8D"/>
<stop offset="0.2092" stop-color="#00CAE1"/>
<stop offset="0.4635" stop-color="#97008B"/>
<stop offset="0.6866" stop-color="#EB008B"/>
<stop offset="0.8614" stop-color="#EB0048"/>
<stop offset="1" stop-color="#FFB500"/>
</linearGradient>
<linearGradient id="paint19_linear" x1="212.924" y1="76.931" x2="337.502" y2="94.601" gradientUnits="userSpaceOnUse">
<stop offset="0.010503" stop-color="#00CA8D"/>
<stop offset="0.2092" stop-color="#00CAE1"/>
<stop offset="0.4635" stop-color="#97008B"/>
<stop offset="0.642" stop-color="#EB008B"/>
<stop offset="0.7154" stop-color="#EB0048"/>
<stop offset="0.9027" stop-color="#FFB500"/>
</linearGradient>
<linearGradient id="paint20_linear" x1="245.381" y1="76.8244" x2="330.699" y2="87.1149" gradientUnits="userSpaceOnUse">
<stop offset="0.010503" stop-color="#00CA8D"/>
<stop offset="0.2092" stop-color="#00CAE1"/>
<stop offset="0.9499" stop-color="#97008B"/>
</linearGradient>
<linearGradient id="paint21_linear" x1="242.154" y1="103.563" x2="327.476" y2="113.854" gradientUnits="userSpaceOnUse">
<stop offset="0.010503" stop-color="#00CA8D"/>
<stop offset="0.2092" stop-color="#00CAE1"/>
<stop offset="0.9499" stop-color="#97008B"/>
</linearGradient>
<linearGradient id="paint22_linear" x1="132.464" y1="74.9142" x2="362.327" y2="74.9142" gradientUnits="userSpaceOnUse">
<stop offset="0.010503" stop-color="#00CA8D"/>
<stop offset="0.2092" stop-color="#00CAE1"/>
<stop offset="0.4635" stop-color="#97008B"/>
<stop offset="0.6866" stop-color="#EB008B"/>
<stop offset="0.8614" stop-color="#EB0048"/>
<stop offset="1" stop-color="#FFB500"/>
</linearGradient>
</defs>
</svg>
