<svg width="66" height="87" viewBox="0 0 66 87" fill="none" xmlns="http://www.w3.org/2000/svg">
<g filter="url(#filter0_d)">
<path fill-rule="evenodd" clip-rule="evenodd" d="M8 67C8 71.4183 11.5817 75 16 75L50 75C54.4183 75 58 71.4183 58 67L58 53.95C58 52.9009 57.1495 52.0504 56.1004 52.0504C55.2861 52.0504 54.5809 52.5807 54.1986 53.2996C52.7785 55.9699 49.9678 57.7881 46.7324 57.7881C42.0652 57.7881 38.2817 54.0046 38.2817 49.3374L38.2817 49.0267C38.2817 44.3595 42.0652 40.576 46.7324 40.576C49.9675 40.576 52.778 42.3938 54.1982 45.0638C54.5806 45.7827 55.2859 46.313 56.1001 46.313C57.1494 46.313 58 45.4624 58 44.4131L58 32.0808C58 27.6625 54.4183 24.0808 50 24.0808L38.8871 24.0808C38.5472 24.0808 38.3772 24.0808 38.2347 24.0602C37.3577 23.9333 36.6687 23.2443 36.5418 22.3672C36.5212 22.2248 36.5212 22.0548 36.5212 21.7149C36.5212 21.4638 36.5212 21.3382 36.5283 21.254C36.5794 20.6502 36.734 20.3396 37.1849 19.9347C37.2478 19.8782 37.4114 19.7545 37.7388 19.5071C39.7798 17.9644 41.0988 15.5168 41.0988 12.7612L41.0988 12.4505C41.0988 7.7833 37.3152 3.99979 32.6481 3.99979C27.9809 3.99979 24.1973 7.7833 24.1973 12.4505L24.1973 12.7612C24.1973 16.3459 26.4293 19.4093 29.5794 20.6375C30.3215 20.9269 30.8873 21.598 30.8873 22.3946C30.8873 23.3259 30.1324 24.0808 29.2011 24.0808L16 24.0808C11.5817 24.0808 8.00001 27.6625 8.00001 32.0808L8 67Z" fill="white"/>
</g>
<defs>
<filter id="filter0_d" x="0" y="-0.000244141" width="66" height="87.0002" filterUnits="userSpaceOnUse" color-interpolation-filters="sRGB">
<feFlood flood-opacity="0" result="BackgroundImageFix"/>
<feColorMatrix in="SourceAlpha" type="matrix" values="0 0 0 0 0 0 0 0 0 0 0 0 0 0 0 0 0 0 127 0"/>
<feOffset dy="4"/>
<feGaussianBlur stdDeviation="4"/>
<feColorMatrix type="matrix" values="0 0 0 0 0.00392157 0 0 0 0 0.0705882 0 0 0 0 0.0823529 0 0 0 0.1 0"/>
<feBlend mode="normal" in2="BackgroundImageFix" result="effect1_dropShadow"/>
<feBlend mode="normal" in="SourceGraphic" in2="effect1_dropShadow" result="shape"/>
</filter>
</defs>
</svg>
