<svg width="87" height="66" viewBox="0 0 87 66" fill="none" xmlns="http://www.w3.org/2000/svg">
<g filter="url(#filter0_d)">
<path fill-rule="evenodd" clip-rule="evenodd" d="M71 54C75.4183 54 79 50.4183 79 46L79 12C79 7.58172 75.4183 4 71 4L57.95 4C56.9009 4 56.0504 4.8505 56.0504 5.89964C56.0504 6.7139 56.5807 7.41912 57.2996 7.80144C59.9699 9.2215 61.7881 12.0322 61.7881 15.2676C61.7881 19.9348 58.0046 23.7183 53.3374 23.7183L53.0267 23.7183C48.3595 23.7183 44.576 19.9348 44.576 15.2676C44.576 12.0325 46.3938 9.22197 49.0638 7.8018C49.7827 7.4194 50.313 6.71414 50.313 5.89985C50.313 4.85059 49.4624 4 48.4131 4L36.0808 4C31.6625 4 28.0808 7.58172 28.0808 12L28.0808 23.8685C28.0808 24.9522 27.2023 25.8308 26.1185 25.8308C25.2869 25.8308 24.5649 25.2943 24.1626 24.5664C22.723 21.9615 19.9481 20.1974 16.7612 20.1974L16.4505 20.1974C11.7833 20.1974 7.9998 23.9809 7.9998 28.6481C7.9998 33.3153 11.7833 37.0988 16.4505 37.0988L16.7612 37.0988C19.9484 37.0988 22.7236 35.3343 24.1631 32.729C24.5652 32.0011 25.2872 31.4646 26.1188 31.4646C27.2024 31.4646 28.0808 32.343 28.0808 33.4266L28.0808 46C28.0808 50.4183 31.6625 54 36.0808 54L71 54Z" fill="white"/>
</g>
<defs>
<filter id="filter0_d" x="0" y="0" width="87.0002" height="66" filterUnits="userSpaceOnUse" color-interpolation-filters="sRGB">
<feFlood flood-opacity="0" result="BackgroundImageFix"/>
<feColorMatrix in="SourceAlpha" type="matrix" values="0 0 0 0 0 0 0 0 0 0 0 0 0 0 0 0 0 0 127 0"/>
<feOffset dy="4"/>
<feGaussianBlur stdDeviation="4"/>
<feColorMatrix type="matrix" values="0 0 0 0 0.00392157 0 0 0 0 0.0705882 0 0 0 0 0.0823529 0 0 0 0.1 0"/>
<feBlend mode="normal" in2="BackgroundImageFix" result="effect1_dropShadow"/>
<feBlend mode="normal" in="SourceGraphic" in2="effect1_dropShadow" result="shape"/>
</filter>
</defs>
</svg>
