<svg width="66" height="87" viewBox="0 0 66 87" fill="none" xmlns="http://www.w3.org/2000/svg">
<g filter="url(#filter0_d)">
<path fill-rule="evenodd" clip-rule="evenodd" d="M58 12C58 7.58172 54.4183 4 50 4L16 4C11.5817 4 8 7.58172 8 12L8 24.9255C8 25.9795 8.85444 26.8339 9.90845 26.8339C10.7239 26.8339 11.4307 26.3043 11.8163 25.5858C13.2411 22.9309 16.0434 21.1255 19.2674 21.1255C23.9346 21.1255 27.7181 24.909 27.7181 29.5762L27.7181 29.8004C27.7181 34.4676 23.9346 38.2511 19.2674 38.2511C16.0434 38.2511 13.241 36.4456 11.8162 33.7906C11.4306 33.0721 10.7238 32.5425 9.90839 32.5425C8.85441 32.5425 8 33.3969 8 34.4509L8 46.6633C8 51.0816 11.5817 54.6633 16 54.6633L28.0203 54.6633C28.1713 54.6633 28.2468 54.6633 28.3106 54.6674C29.3146 54.7316 30.1147 55.5316 30.1789 56.5357C30.1829 56.5994 30.1829 56.6749 30.1829 56.826C30.1829 56.9959 30.1829 57.0809 30.1811 57.1235C30.1481 57.8975 29.9072 58.3138 29.2526 58.7281C29.2165 58.751 29.076 58.8317 28.7951 58.9932C26.2578 60.4514 24.5491 63.1888 24.5491 66.3252L24.5491 66.5494C24.5491 71.2166 28.3326 75.0001 32.9998 75.0001C37.667 75.0001 41.4505 71.2166 41.4505 66.5494L41.4505 66.3252C41.4505 63.1888 39.7419 60.4515 37.2046 58.9932C36.9237 58.8317 36.7832 58.751 36.7471 58.7282C36.0925 58.3138 35.8516 57.8976 35.8186 57.1236C35.8168 57.0809 35.8168 56.9959 35.8168 56.826C35.8168 56.6749 35.8168 56.5994 35.8208 56.5356C35.8851 55.5316 36.6851 54.7316 37.6891 54.6674C37.7528 54.6633 37.8284 54.6633 37.9794 54.6633L50 54.6633C54.4183 54.6633 58 51.0816 58 46.6633L58 12Z" fill="white"/>
</g>
<defs>
<filter id="filter0_d" x="0" y="0" width="66" height="87.0001" filterUnits="userSpaceOnUse" color-interpolation-filters="sRGB">
<feFlood flood-opacity="0" result="BackgroundImageFix"/>
<feColorMatrix in="SourceAlpha" type="matrix" values="0 0 0 0 0 0 0 0 0 0 0 0 0 0 0 0 0 0 127 0"/>
<feOffset dy="4"/>
<feGaussianBlur stdDeviation="4"/>
<feColorMatrix type="matrix" values="0 0 0 0 0.00392157 0 0 0 0 0.0705882 0 0 0 0 0.0823529 0 0 0 0.1 0"/>
<feBlend mode="normal" in2="BackgroundImageFix" result="effect1_dropShadow"/>
<feBlend mode="normal" in="SourceGraphic" in2="effect1_dropShadow" result="shape"/>
</filter>
</defs>
</svg>
