<svg width="295" height="724" viewBox="0 0 295 724" fill="none" xmlns="http://www.w3.org/2000/svg">
<path d="M85.5064 684.731L85.5081 684.73C100.435 681.189 116.411 672.449 125.941 656.029C135.814 667.227 146.126 677.329 156.768 686.227C156.712 686.375 156.664 686.521 156.619 686.656L156.614 686.671C156.525 686.937 156.45 687.16 156.354 687.353L156.302 687.458V687.528C156.3 687.534 156.297 687.541 156.294 687.55C156.277 687.599 156.252 687.661 156.223 687.735L156.221 687.74C156.194 687.808 156.162 687.888 156.137 687.959C156.124 687.996 156.11 688.038 156.099 688.08C156.095 688.096 156.088 688.122 156.083 688.153C155.985 688.437 155.889 688.631 155.781 688.846C155.614 689.182 155.446 689.49 155.274 689.807L155.272 689.81C155.101 690.124 154.926 690.447 154.75 690.8L154.578 691.144L154.414 691.472L154.08 692.03L154.07 692.046L154.062 692.064C153.904 692.38 153.717 692.675 153.52 692.972C153.473 693.043 153.425 693.114 153.376 693.187C153.229 693.405 153.077 693.631 152.943 693.853C152.153 694.984 151.365 695.999 150.579 696.899L150.567 696.913L150.556 696.928C150.054 697.598 149.433 698.196 148.898 698.711C148.729 698.873 148.569 699.027 148.424 699.173C147.429 700.17 146.321 700.95 145.171 701.757C140.316 705.038 134.885 706.856 129.544 707.882C123.972 708.907 118.277 709.137 112.673 709.137C106.259 709.137 99.8447 709.022 93.4251 708.907L93.4248 708.907C80.1262 708.678 66.828 708.563 53.5323 708.448H53.528C52.6954 708.448 51.8513 708.438 50.9992 708.427C46.0477 708.368 40.8267 708.305 36.0358 710.206L36.0341 710.207C34.7552 710.72 33.4014 711.301 32.0259 712.043L32.3087 711.476C33.1108 709.982 33.9055 708.503 34.8124 707.026L34.8192 707.015L34.8255 707.003C35.5009 705.762 36.173 704.639 36.9532 703.519C37.0363 703.427 37.1273 703.302 37.1862 703.22C37.2245 703.166 37.2587 703.116 37.2833 703.08L37.3127 703.037L37.321 703.025L37.3233 703.021L37.3239 703.02L37.3242 703.02L37.3242 703.02L37.3243 703.02L36.9079 702.743L37.3243 703.02L38.012 701.986C38.2347 701.651 38.4581 701.343 38.6881 701.026L38.6905 701.022C38.9182 700.709 39.1525 700.386 39.3875 700.032L39.3875 700.032L39.392 700.025C40.4001 698.453 41.5208 696.99 42.6571 695.509C42.6642 695.505 42.675 695.5 42.6911 695.491L42.6986 695.488C42.7515 695.461 42.8493 695.412 42.9504 695.323C43.6316 694.868 44.282 694.436 44.9262 694.113L44.9406 694.105L44.9546 694.097C46.2875 693.318 47.7372 692.757 49.2315 692.181C52.7511 690.93 56.5045 690.017 60.1538 689.331L60.1558 689.331C63.3896 688.709 66.6779 688.17 69.9819 687.629C75.1686 686.78 80.3937 685.924 85.5064 684.731ZM156.308 687.506C156.308 687.507 156.308 687.507 156.308 687.507L156.309 687.503C156.309 687.503 156.309 687.504 156.308 687.506Z" stroke="white"/>
<path d="M80.1666 2.49589L80.1804 2.47858L80.1927 2.46011C80.5954 1.85467 81.093 1.24481 81.6157 0.61499H86.562C80.7166 8.35442 75.5174 16.8413 70.9637 25.9705C63.2637 40.7179 57.4068 57.0692 52.9301 74.0993C48.3422 91.461 45.5882 109.622 44.3233 128.007C33.1596 157.033 24.7639 188.826 19.3279 222.513C19.18 206.688 19.6663 190.885 20.7867 175.263C23.3065 141.161 28.5739 107.429 39.5569 76.4631C49.5118 48.5899 63.3549 23.4761 80.1666 2.49589Z" stroke="white"/>
<path d="M38.1062 691.192L38.1054 691.193C33.8542 697.182 29.8292 703.522 26.2627 710.442L26.2566 710.454L26.2512 710.466C24.6416 714.039 23.1423 717.737 21.9875 721.557L21.9853 721.565C21.8722 721.961 21.7591 722.33 21.6443 722.704L21.6434 722.707C21.5639 722.966 21.4836 723.228 21.403 723.5H16.219C16.8705 720.747 17.621 718.086 18.4708 715.424C20.2973 710.046 22.3514 705.128 24.7475 700.323C28.3342 693.132 32.3802 686.534 36.4898 679.831C38.1464 677.13 39.8133 674.411 41.4646 671.63C47.5437 661.397 53.408 650.795 57.7797 639.032L57.7804 639.029C62.7331 625.52 64.9186 610.75 64.5735 595.757C63.8833 563.016 52.2679 533.752 39.6538 506.853C37.8172 502.922 35.9668 499.001 34.1167 495.081C23.1428 471.831 12.1782 448.601 4.14598 423.268C3.12127 419.844 2.09728 416.422 1.07337 412.888L0.615294 90.8714C5.49438 86.2054 10.379 81.4171 15.041 76.2877C29.3924 60.6351 42.4787 43.0281 54.1861 23.5831L54.1875 23.5806C57.4017 18.1722 60.3854 12.7653 63.3676 7.1313L63.3683 7.12995C64.5771 4.92683 65.791 2.71432 66.9041 0.5H74.5167C69.4663 7.06181 64.7355 14.0381 60.3241 21.2242C52.514 33.7742 45.7387 47.2436 39.9975 61.6316C27.5958 92.482 20.7109 126.542 17.1546 161.157L17.1545 161.158C13.9442 193.226 12.9109 225.642 14.8582 257.947C9.58592 313.022 12.1115 371.886 23.5798 431.094C35.8431 494.743 57.154 551.285 84.4302 597.736C84.3144 601.235 84.0848 604.617 83.5236 608.216L83.5227 608.223C83.2939 609.829 83.0665 611.309 82.7264 612.9L82.7154 612.951V612.976C82.7152 612.976 82.7151 612.977 82.715 612.977C82.7086 613.001 82.699 613.03 82.6836 613.076C82.6738 613.106 82.6607 613.145 82.6485 613.186C82.6442 613.2 82.6401 613.214 82.6362 613.229C82.6304 613.25 82.623 613.279 82.6164 613.312C82.6132 613.329 82.6102 613.346 82.6077 613.364C82.5502 613.554 82.5199 613.737 82.495 613.886L82.4929 613.899C82.4633 614.077 82.4401 614.211 82.397 614.34L82.391 614.358L82.3864 614.377C82.1556 615.302 81.9253 616.341 81.6968 617.372L81.6955 617.377L81.6934 617.388C81.3541 619.088 80.9013 620.678 80.4421 622.289L80.4398 622.297L80.4378 622.305L80.1258 623.556C80.0984 623.588 80.0619 623.636 80.0314 623.697C80.006 623.748 79.9901 623.799 79.9801 623.846C79.9423 623.905 79.8834 624.011 79.86 624.147C79.6943 624.594 79.5547 625.014 79.418 625.425L79.4169 625.428C79.2733 625.86 79.1328 626.283 78.9645 626.732L78.9619 626.74C78.3895 628.346 77.8195 629.946 77.2501 631.431C77.0772 631.836 76.9048 632.268 76.7351 632.693L76.7334 632.697C76.5629 633.124 76.3951 633.545 76.2279 633.937C76.1092 634.176 76.0198 634.385 75.9357 634.582C75.8494 634.783 75.7687 634.972 75.6614 635.187L75.6088 635.292V635.36C75.603 635.379 75.5944 635.405 75.5825 635.438C75.5522 635.522 75.5089 635.633 75.4601 635.752C75.3614 635.992 75.2522 636.237 75.2029 636.336C75.1337 636.475 75.0691 636.638 75.0245 636.758C75.0014 636.819 74.9822 636.873 74.9688 636.911L74.9586 636.941C74.8441 637.173 74.757 637.377 74.6748 637.569C74.5886 637.771 74.5079 637.959 74.4006 638.174L74.394 638.188L74.3883 638.201C74.2231 638.587 74.0293 638.976 73.8275 639.381L73.8241 639.388C73.6279 639.781 73.4242 640.19 73.2479 640.601C72.447 642.206 71.6503 643.803 70.8543 645.285L70.847 645.299L70.8406 645.313C70.1666 646.776 69.3793 648.131 68.5778 649.508C68.344 649.861 68.1398 650.212 67.9437 650.549L67.9398 650.556C67.7381 650.902 67.5448 651.234 67.3252 651.564L67.2415 651.69V651.747C67.2334 651.76 67.2233 651.775 67.2105 651.794C67.1852 651.832 67.1431 651.895 67.1089 651.958C67.091 651.991 67.0694 652.034 67.0514 652.084C67.0463 652.099 67.0407 652.116 67.0354 652.135C66.9459 652.302 66.8355 652.458 66.7039 652.643C66.5674 652.834 66.4059 653.059 66.2729 653.321C64.4498 656.29 62.5117 659.147 60.5705 661.894L60.5683 661.897C57.0258 666.995 53.2246 671.78 49.3985 676.563L48.7845 677.331C45.1641 681.856 41.5325 686.394 38.1062 691.192Z" stroke="white"/>
<path d="M20.6221 630.002L20.6018 630.022L20.584 630.044C15.2313 636.805 9.47655 642.258 3.47865 647.941C3.08431 648.315 2.68893 648.69 2.29254 649.066L2.29241 649.066L2.28269 649.075C2.00604 649.353 1.69992 649.632 1.38292 649.921L1.37769 649.925C1.35277 649.948 1.32777 649.971 1.30273 649.994V617.258C3.42706 615.458 5.55894 613.536 7.47648 611.388C10.7048 607.92 13.5858 604.223 16.3491 600.067C19.3601 595.54 21.937 589.81 21.8198 583.351L21.8198 583.349C21.7035 577.754 20.0775 572.179 18.3552 567.229C16.8558 562.605 14.8966 558.1 12.7082 553.943C9.39485 547.53 5.51701 541.801 1.3032 536.422L1.41245 495.679C2.65862 497.792 3.91104 499.895 5.16215 501.994C11.3442 512.371 17.4941 522.694 22.6989 534.044C32.311 555.151 39.8175 582.477 32.9883 606.895L32.9876 606.897C31.7398 611.446 29.8087 615.776 27.6429 619.775L27.6389 619.783L27.6351 619.79C27.5897 619.881 27.4317 620.147 27.2688 620.414C27.1907 620.542 27.1161 620.663 27.0609 620.752L26.995 620.859L26.9768 620.888L26.9744 620.892L26.6346 621.403L26.2908 621.92L26.2796 621.937L26.2698 621.954C25.7103 622.964 25.0373 623.977 24.3499 625.011C24.003 625.475 23.6855 625.938 23.3744 626.391L23.3719 626.395C23.0559 626.856 22.7464 627.307 22.4097 627.757L22.3827 627.793L22.3626 627.833L22.362 627.835C22.3612 627.836 22.3594 627.839 22.3566 627.844C22.3523 627.851 22.3463 627.86 22.3384 627.872C22.3222 627.896 22.301 627.925 22.2743 627.96C22.2201 628.03 22.1548 628.109 22.0816 628.197L22.0783 628.201C22.009 628.284 21.9325 628.376 21.866 628.462C21.8174 628.525 21.7614 628.601 21.7145 628.68C21.6332 628.772 21.5301 628.903 21.455 629C21.4034 629.066 21.3556 629.129 21.3209 629.175L21.2839 629.224C21.1588 629.353 21.0392 629.503 20.9377 629.63L20.9291 629.641C20.81 629.79 20.7133 629.91 20.6221 630.002Z" stroke="white"/>
<path d="M62.1379 59.1109L62.138 59.1109L62.1408 59.1026C64.7711 51.1923 67.5152 44.3151 70.7173 37.322C76.9693 23.7619 84.5757 11.4523 93.3099 0.729736H101.519C93.9777 9.84217 87.195 19.8289 81.1712 30.8995L81.1711 30.8997C70.7234 50.12 63.1473 72.0917 58.6669 95.0918C55.713 101.017 52.9287 107.111 50.2415 113.372C51.396 102.814 53.1224 92.4468 55.5052 82.2691L55.5064 82.2634C56.4132 78.1731 57.4327 74.3063 58.566 70.3254C58.5728 70.3159 58.5797 70.306 58.5867 70.2955C58.632 70.2274 58.7277 70.068 58.7277 69.8606C58.7277 69.8205 58.7385 69.7631 58.7659 69.6673C58.7687 69.6572 58.7724 69.6446 58.7765 69.6306C58.7867 69.5957 58.7994 69.5523 58.8083 69.5179C58.8167 69.4855 58.8304 69.4312 58.8375 69.3676C58.8892 69.1694 58.9639 68.9439 59.046 68.697L59.0497 68.686C59.1309 68.4418 59.2193 68.1757 59.2811 67.9324C59.4533 67.4134 59.597 66.9235 59.7381 66.4426L59.7391 66.4394C59.8822 65.9513 60.0228 65.4725 60.1909 64.9666C60.5364 63.9851 60.8529 63.0045 61.167 62.0312L61.1679 62.0284C61.4834 61.0508 61.7966 60.0803 62.1379 59.1109Z" stroke="white"/>
<path d="M61.6231 0.618104C59.1144 5.18984 56.5084 9.75049 53.9026 14.1041C48.2936 23.2841 42.5707 31.8893 36.3905 40.3794C25.3046 55.309 13.3429 68.6996 0.613002 80.6594L0.500701 0.842956L61.6231 0.618104Z" stroke="white"/>
<path d="M32.1029 538.715L32.1036 538.716C36.4696 550.349 39.9243 563.039 40.731 576.202C41.6521 589.135 39.9257 602.31 35.3091 613.764C28.2076 631.776 15.8821 643.85 3.94519 655.543C3.13843 656.333 2.33345 657.122 1.53197 657.91L1.64537 723.5H10.7187C14.9897 704.796 24.5798 689.319 33.8189 674.408C36.1726 670.609 38.5035 666.847 40.7179 663.078L40.7186 663.077C46.2108 653.786 51.231 644.06 54.5383 632.857C58.756 618.344 59.3302 602.442 57.6161 587.092C54.1429 556.084 41.4967 529.1 29.2294 502.925C28.58 501.539 27.9316 500.156 27.2857 498.774C27.2856 498.774 27.2855 498.773 27.2854 498.773L27.7383 498.561C17.8844 477.57 8.35854 456.141 1.19146 433.308L32.1029 538.715ZM32.1029 538.715C25.9776 522.574 17.5129 508.558 9.07635 494.588C6.45865 490.254 3.84365 485.924 1.30206 481.536L1.19529 434.977L32.1029 538.715Z" stroke="white"/>
<path d="M87.234 674.793L87.2296 674.794C82.1333 675.962 76.9679 676.707 71.8042 677.453C68.8501 677.879 65.8966 678.305 62.9569 678.81L62.9565 678.811C60.1167 679.301 57.2725 679.876 54.4254 680.608C57.1815 677.183 59.8455 673.666 62.4172 670.056L62.4183 670.055C75.0466 652.196 85.8088 630.325 89.2526 605.964C99.5344 622.746 110.676 638.119 122.47 651.871C122.268 652.158 122.079 652.432 121.89 652.705L121.889 652.706C121.631 653.08 121.375 653.451 121.091 653.849C118.26 657.823 114.631 661.349 110.998 664.08C103.609 669.549 95.538 672.969 87.234 674.793Z" stroke="white"/>
<path d="M82.7401 39.415L82.7415 39.4122C88.4563 28.4128 95.3142 18.1008 102.857 8.93542L102.86 8.93138C105.21 6.01471 107.673 3.31539 110.251 0.613924L133.616 0.506972C107.756 19.8605 85.3673 46.8167 67.0398 79.3649C67.1369 79.0149 67.2371 78.6581 67.3445 78.2756C67.4717 77.8228 67.6089 77.334 67.7631 76.7777C71.7666 63.2479 76.454 51.3305 82.7401 39.415Z" stroke="white"/>
<path d="M164.25 691.121C167.761 692.968 172.936 695.347 178.201 696.495C183.448 697.64 188.914 697.59 192.877 694.4C197.594 690.641 200.793 690.278 202.531 691.062C204.238 691.832 204.796 693.834 204.029 695.527C203.528 696.628 202.223 697.324 200.503 697.809C199.342 698.137 198.101 698.342 196.942 698.533C196.397 698.623 195.869 698.71 195.377 698.805C194.636 698.949 193.95 699.117 193.461 699.363C193.215 699.487 192.975 699.652 192.811 699.883C192.633 700.133 192.567 700.43 192.631 700.745C192.69 701.038 192.854 701.315 193.073 701.579C193.295 701.846 193.599 702.13 193.983 702.435C194.751 703.044 195.892 703.777 197.476 704.672L197.534 704.705L197.599 704.722C206.978 707.086 216.848 708.056 225.365 705.681C233.916 703.296 241.063 697.55 244.958 686.594L244.961 686.587L244.963 686.58L244.963 686.58L244.964 686.578L244.966 686.571L244.977 686.538C244.986 686.51 245.001 686.466 245.021 686.408C245.061 686.294 245.122 686.124 245.204 685.91C245.368 685.481 245.616 684.872 245.95 684.158C246.62 682.726 247.631 680.884 249 679.218C250.37 677.55 252.076 676.085 254.131 675.362C256.17 674.643 258.599 674.637 261.47 675.965C262.898 676.625 263.877 677.436 264.51 678.336C265.141 679.235 265.448 680.249 265.49 681.352C265.574 683.58 264.575 686.158 262.975 688.734C261.383 691.297 259.234 693.797 257.11 695.85C254.98 697.908 252.907 699.487 251.477 700.231L251.477 700.231L251.466 700.237C250.532 700.753 249.001 701.421 247.116 702.242C246.217 702.634 245.237 703.061 244.204 703.524C241.033 704.942 237.403 706.674 234.22 708.683C231.049 710.684 228.258 712.998 226.834 715.608C226.116 716.922 225.739 718.323 225.848 719.797C225.937 721.006 226.351 722.237 227.133 723.483L214.808 723.272L214.451 723.093L214.345 723.04L214.226 723.04L27.5706 723.497L27.5784 723.489L27.6189 723.449L27.63 723.438L27.6329 723.435L27.6336 723.434L27.6338 723.434L27.6339 723.434L27.2799 723.081L27.6339 723.434C27.6974 723.37 27.7852 723.314 27.9388 723.222L27.9555 723.212C28.0748 723.14 28.24 723.041 28.3877 722.906C28.7832 722.665 29.1377 722.418 29.419 722.221C29.5329 722.141 29.6348 722.07 29.7226 722.011C31.9009 720.747 34.1317 719.523 36.3419 718.97L36.3443 718.969C40.7662 717.837 45.26 717.884 49.7771 717.932C50.6821 717.941 51.588 717.95 52.4945 717.951C65.9034 718.065 79.3119 718.065 92.7179 718.065H92.7286C95.1139 718.065 97.5139 718.102 99.923 718.139C109.616 718.286 119.454 718.436 129.06 716.214C134.738 714.937 140.185 712.613 145.284 709.011L145.287 709.01C150.174 705.51 154.232 700.622 157.47 694.71L157.473 694.704C158.427 692.898 159.38 690.898 160.244 688.883C160.423 688.992 160.648 689.127 160.919 689.285C161.685 689.734 162.809 690.37 164.25 691.121ZM164.25 691.121C164.25 691.121 164.25 691.121 164.25 691.122L164.481 690.678L164.249 691.121C164.249 691.121 164.249 691.121 164.25 691.121Z" stroke="white"/>
<path d="M293.191 688.044L293.191 688.044L293.2 688.052C294.26 689.065 294.667 690.556 294.439 692.204C294.212 693.855 293.349 695.627 291.924 697.111C289.056 700.097 285.034 700.506 282.9 698.373C280.871 696.232 281.283 692.299 284.163 689.301C287.033 686.314 291.058 685.906 293.191 688.044Z" stroke="white"/>
</svg>
