<svg width="295" height="724" viewBox="0 0 295 724" fill="none" xmlns="http://www.w3.org/2000/svg">
<path d="M209.494 39.2695L209.492 39.2699C194.565 42.8108 178.589 51.5508 169.059 67.9713C159.186 56.7734 148.874 46.6714 138.232 37.7729C138.288 37.6254 138.336 37.4791 138.381 37.3444L138.386 37.3288C138.475 37.0631 138.55 36.8396 138.646 36.6473L138.698 36.5419L138.698 36.472C138.7 36.4659 138.703 36.4587 138.706 36.4502C138.723 36.4008 138.748 36.3394 138.777 36.2648L138.779 36.2599C138.806 36.1919 138.838 36.1119 138.863 36.0409C138.876 36.0042 138.89 35.9623 138.901 35.9201C138.905 35.9037 138.912 35.8783 138.917 35.8471C139.015 35.5632 139.111 35.3689 139.219 35.1536C139.386 34.8181 139.554 34.5096 139.726 34.1927L139.728 34.1903C139.899 33.876 140.074 33.5532 140.25 33.2003L140.422 32.8556L140.586 32.528L140.92 31.97L140.93 31.9535L140.938 31.9364C141.096 31.62 141.283 31.3247 141.48 31.0278C141.527 30.9572 141.575 30.8856 141.624 30.8132C141.771 30.5946 141.923 30.3692 142.057 30.1469C142.847 29.0162 143.635 28.0013 144.421 27.1012L144.433 27.087L144.444 27.0719C144.946 26.4015 145.567 25.8042 146.102 25.289C146.271 25.1269 146.431 24.973 146.576 24.8275C147.571 23.8303 148.679 23.0503 149.829 22.2435C154.684 18.9621 160.115 17.1437 165.456 16.1182C171.028 15.0926 176.723 14.863 182.327 14.863C188.741 14.863 195.155 14.9777 201.575 15.0926L201.575 15.0926C214.874 15.3225 228.172 15.4374 241.468 15.5523L241.472 15.5523C242.305 15.5523 243.149 15.5625 244.001 15.5727C248.952 15.632 254.173 15.6946 258.964 13.7936L258.966 13.7929C260.245 13.2801 261.599 12.6995 262.974 11.9575L262.691 12.5244C261.889 14.0176 261.095 15.4966 260.188 16.9739L260.181 16.9851L260.175 16.9965C259.499 18.2378 258.827 19.3613 258.047 20.4814C257.964 20.5728 257.873 20.6976 257.814 20.7802C257.776 20.834 257.741 20.8836 257.717 20.9196L257.687 20.963L257.679 20.9753L257.677 20.9787L257.676 20.9797L257.676 20.9801L257.676 20.9802L257.676 20.9802L258.092 21.2571L257.676 20.9802L256.988 22.0143C256.765 22.3492 256.542 22.6573 256.312 22.9743L256.31 22.9775C256.082 23.2915 255.847 23.6144 255.613 23.9677L255.612 23.9676L255.608 23.9746C254.6 25.5466 253.479 27.0101 252.343 28.491C252.336 28.4948 252.325 28.5005 252.309 28.5086L252.301 28.5123C252.249 28.5387 252.151 28.5875 252.05 28.6772C251.368 29.1324 250.718 29.5645 250.074 29.8874L250.059 29.8946L250.045 29.9027C248.712 30.6822 247.263 31.2427 245.768 31.8188C242.249 33.0703 238.495 33.983 234.846 34.6689L234.844 34.6693C231.61 35.291 228.322 35.8295 225.018 36.3707C219.831 37.2201 214.606 38.0759 209.494 39.2695ZM138.692 36.4937C138.692 36.4934 138.692 36.493 138.692 36.4927L138.691 36.4971C138.691 36.4973 138.691 36.4962 138.692 36.4937Z" stroke="white"/>
<path d="M214.833 721.504L214.819 721.521L214.807 721.54C214.404 722.145 213.907 722.755 213.384 723.385L208.438 723.385C214.283 715.646 219.482 707.159 224.036 698.029C231.736 683.282 237.593 666.931 242.07 649.901C246.658 632.539 249.412 614.378 250.677 595.993C261.84 566.967 270.236 535.174 275.672 501.487C275.82 517.312 275.333 533.115 274.213 548.737C271.693 582.839 266.426 616.571 255.443 647.537C245.488 675.41 231.645 700.524 214.833 721.504Z" stroke="white"/>
<path d="M256.894 32.808L256.894 32.8068C261.146 26.8175 265.171 20.4775 268.737 13.5577L268.743 13.546L268.749 13.5341C270.358 9.96112 271.858 6.26275 273.012 2.44275L273.015 2.43506C273.128 2.03851 273.241 1.66974 273.356 1.29571L273.356 1.29278C273.436 1.03381 273.516 0.772276 273.597 0.499998L278.781 0.499999C278.129 3.2525 277.379 5.91363 276.529 8.57611C274.703 13.9539 272.648 18.8725 270.252 23.6765C266.666 30.8676 262.62 37.4662 258.51 44.1685C256.853 46.8703 255.187 49.5889 253.535 52.3699C247.456 62.6032 241.592 73.2053 237.22 84.9684L237.219 84.9705C232.267 98.4795 230.081 113.25 230.426 128.243C231.117 160.984 242.732 190.248 255.346 217.147C257.183 221.078 259.033 224.999 260.883 228.919C271.857 252.169 282.822 275.399 290.854 300.732C291.879 304.156 292.903 307.578 293.926 311.112L294.384 633.129C289.505 637.795 284.621 642.583 279.959 647.712C265.607 663.365 252.521 680.972 240.814 700.417L240.812 700.419C237.598 705.828 234.614 711.235 231.632 716.869L231.631 716.87C230.423 719.073 229.209 721.286 228.096 723.5L220.483 723.5C225.533 716.938 230.264 709.962 234.676 702.776C242.486 690.226 249.261 676.756 255.002 662.368C267.404 631.518 274.289 597.458 277.845 562.843L277.845 562.842C281.056 530.774 282.089 498.358 280.142 466.053C285.414 410.978 282.888 352.114 271.42 292.906C259.157 229.257 237.846 172.715 210.57 126.264C210.685 122.765 210.915 119.383 211.476 115.784L211.477 115.777C211.706 114.171 211.933 112.691 212.273 111.1L212.284 111.049L212.284 111.024C212.285 111.024 212.285 111.023 212.285 111.023C212.291 110.999 212.301 110.97 212.316 110.924C212.326 110.894 212.339 110.855 212.351 110.814C212.356 110.8 212.36 110.786 212.364 110.771C212.369 110.75 212.377 110.721 212.383 110.688C212.387 110.671 212.39 110.654 212.392 110.636C212.45 110.446 212.48 110.263 212.505 110.114L212.507 110.101C212.536 109.923 212.56 109.789 212.603 109.66L212.609 109.642L212.613 109.623C212.844 108.698 213.075 107.659 213.303 106.628L213.304 106.623L213.306 106.612C213.646 104.912 214.099 103.322 214.558 101.711L214.56 101.703L214.562 101.695L214.874 100.444C214.901 100.412 214.938 100.364 214.968 100.303C214.994 100.252 215.01 100.201 215.02 100.154C215.058 100.095 215.116 99.9886 215.14 99.8526C215.306 99.4059 215.445 98.9862 215.582 98.5749L215.583 98.5716C215.727 98.1398 215.867 97.7174 216.035 97.2678L216.038 97.2603C216.61 95.6536 217.18 94.0539 217.75 92.5693C217.923 92.1644 218.095 91.7324 218.265 91.3071L218.266 91.3029C218.437 90.8756 218.605 90.4552 218.772 90.0634C218.891 89.8244 218.98 89.615 219.064 89.4182C219.15 89.2165 219.231 89.0279 219.338 88.8129L219.391 88.7075L219.391 88.6401C219.397 88.6213 219.405 88.5955 219.417 88.5624C219.448 88.4776 219.491 88.3671 219.54 88.2483C219.638 88.008 219.748 87.7626 219.797 87.6638C219.866 87.5251 219.931 87.3619 219.975 87.2425C219.998 87.1809 220.018 87.1271 220.031 87.0885L220.041 87.0589C220.156 86.827 220.243 86.6229 220.325 86.4308C220.411 86.2291 220.492 86.0405 220.599 85.8255L220.606 85.8123L220.612 85.7988C220.777 85.4125 220.971 85.0236 221.172 84.619L221.176 84.6122C221.372 84.2188 221.576 83.8105 221.752 83.3994C222.553 81.7938 223.35 80.1968 224.146 78.715L224.153 78.7014L224.159 78.6874C224.833 77.2235 225.621 75.8688 226.422 74.4915C226.656 74.1389 226.86 73.788 227.056 73.451L227.06 73.4443C227.262 73.0978 227.455 72.7659 227.675 72.4355L227.758 72.3097L227.758 72.2527C227.766 72.2403 227.776 72.225 227.789 72.2057C227.815 72.1677 227.857 72.105 227.891 72.0421C227.909 72.0094 227.93 71.9659 227.948 71.9156C227.954 71.9013 227.959 71.8845 227.964 71.8654C228.054 71.6982 228.164 71.542 228.296 71.3573C228.432 71.1657 228.594 70.9406 228.727 70.6791C230.55 67.7103 232.488 64.8532 234.429 62.1061L234.432 62.1028C237.974 57.0052 241.775 52.2203 245.601 47.4366L246.215 46.6692C249.836 42.1444 253.467 37.6058 256.894 32.808Z" stroke="white"/>
<path d="M274.378 93.9985L274.398 93.9782L274.416 93.9557C279.769 87.1947 285.523 81.7419 291.521 76.0586C291.916 75.685 292.311 75.3103 292.707 74.9343L292.708 74.9344L292.717 74.9247C292.994 74.6473 293.3 74.3682 293.617 74.0793L293.622 74.0746C293.647 74.0518 293.672 74.0291 293.697 74.0062L293.697 106.742C291.573 108.542 289.441 110.464 287.524 112.612C284.295 116.08 281.414 119.777 278.651 123.933C275.64 128.46 273.063 134.19 273.18 140.649L273.18 140.651C273.296 146.246 274.922 151.821 276.645 156.771C278.144 161.395 280.103 165.9 282.292 170.057C285.605 176.47 289.483 182.199 293.697 187.578L293.588 228.321C292.341 226.208 291.089 224.105 289.838 222.006C283.656 211.629 277.506 201.306 272.301 189.956C262.689 168.849 255.183 141.523 262.012 117.105L262.012 117.103C263.26 112.554 265.191 108.224 267.357 104.225L267.361 104.217L267.365 104.21C267.41 104.119 267.568 103.853 267.731 103.586C267.809 103.458 267.884 103.337 267.939 103.248L268.005 103.141L268.023 103.112L268.026 103.108L268.365 102.597L268.709 102.08L268.72 102.063L268.73 102.046C269.29 101.036 269.963 100.023 270.65 98.9895C270.997 98.5252 271.315 98.0622 271.626 97.6086L271.628 97.605C271.944 97.1442 272.254 96.693 272.59 96.2429L272.617 96.2069L272.637 96.1666L272.638 96.1655C272.639 96.164 272.641 96.1609 272.643 96.1561C272.648 96.149 272.654 96.1396 272.662 96.1279C272.678 96.1041 272.699 96.075 272.726 96.0404C272.78 95.9701 272.845 95.8914 272.918 95.8034L272.922 95.7994C272.991 95.716 273.068 95.624 273.134 95.5377C273.183 95.4747 273.239 95.3986 273.286 95.3196C273.367 95.2282 273.47 95.0971 273.545 95.0003C273.597 94.9338 273.644 94.8712 273.679 94.8253L273.716 94.7764C273.841 94.6473 273.961 94.4973 274.062 94.3702L274.071 94.3594C274.19 94.2102 274.287 94.09 274.378 93.9985Z" stroke="white"/>
<path d="M232.862 664.889L232.862 664.889L232.859 664.897C230.229 672.808 227.485 679.685 224.283 686.678C218.031 700.238 210.424 712.548 201.69 723.27L193.481 723.27C201.022 714.158 207.805 704.171 213.829 693.1L213.829 693.1C224.277 673.88 231.853 651.908 236.333 628.908C239.287 622.983 242.071 616.889 244.759 610.628C243.604 621.186 241.878 631.553 239.495 641.731L239.494 641.737C238.587 645.827 237.567 649.694 236.434 653.675C236.427 653.684 236.42 653.694 236.413 653.705C236.368 653.773 236.272 653.932 236.272 654.139C236.272 654.18 236.261 654.237 236.234 654.333C236.231 654.343 236.228 654.355 236.224 654.369C236.213 654.404 236.201 654.448 236.192 654.482C236.183 654.515 236.17 654.569 236.162 654.632C236.111 654.831 236.036 655.056 235.954 655.303L235.95 655.314C235.869 655.558 235.781 655.824 235.719 656.068C235.547 656.587 235.403 657.077 235.262 657.557L235.261 657.561C235.118 658.049 234.977 658.528 234.809 659.033C234.464 660.015 234.147 660.995 233.833 661.969L233.832 661.972C233.517 662.949 233.203 663.92 232.862 664.889Z" stroke="white"/>
<path d="M233.377 723.382C235.886 718.81 238.492 714.25 241.097 709.896C246.706 700.716 252.429 692.111 258.609 683.621C269.695 668.691 281.657 655.3 294.387 643.341L294.499 723.157L233.377 723.382Z" stroke="white"/>
<path d="M262.897 185.285L262.896 185.284C258.53 173.651 255.075 160.961 254.269 147.798C253.348 134.865 255.074 121.69 259.691 110.236C266.792 92.2239 279.118 80.1502 291.055 68.457C291.861 67.6667 292.666 66.8782 293.468 66.0896L293.354 0.500091L284.281 0.500091C280.01 19.2039 270.42 34.6813 261.181 49.5922C258.827 53.3908 256.496 57.1527 254.282 60.9218L254.281 60.923C248.789 70.2139 243.769 79.9398 240.461 91.143C236.244 105.656 235.67 121.558 237.384 136.908C240.857 167.916 253.503 194.9 265.77 221.075C266.42 222.461 267.068 223.844 267.714 225.226C267.714 225.226 267.714 225.227 267.714 225.227L267.261 225.439C277.115 246.43 286.641 267.859 293.808 290.692L262.897 185.285ZM262.897 185.285C269.022 201.426 277.487 215.442 285.923 229.412C288.541 233.746 291.156 238.076 293.698 242.464L293.804 289.023L262.897 185.285Z" stroke="white"/>
<path d="M207.766 49.2067L207.771 49.2057C212.867 48.038 218.032 47.2925 223.196 46.5473C226.15 46.121 229.104 45.6947 232.043 45.1896L232.044 45.1895C234.884 44.6987 237.728 44.1235 240.575 43.3925C237.819 46.8172 235.155 50.3342 232.583 53.9435L232.582 53.945C219.954 71.8036 209.191 93.675 205.748 118.036C195.466 101.254 184.324 85.8812 172.531 72.1288C172.732 71.8423 172.922 71.5678 173.11 71.2949L173.111 71.2936C173.369 70.9198 173.625 70.5493 173.909 70.1506C176.74 66.1773 180.369 62.6514 184.002 59.9198C191.391 54.4507 199.462 51.0312 207.766 49.2067Z" stroke="white"/>
<path d="M212.26 684.585L212.259 684.588C206.544 695.587 199.686 705.899 192.143 715.065L192.14 715.069C189.79 717.985 187.327 720.685 184.749 723.386L161.384 723.493C187.244 704.14 209.633 677.183 227.96 644.635C227.863 644.985 227.763 645.342 227.656 645.724C227.528 646.177 227.391 646.666 227.237 647.222C223.233 660.752 218.546 672.669 212.26 684.585Z" stroke="white"/>
<path d="M130.75 32.8788C127.239 31.0322 122.064 28.6533 116.799 27.5047C111.552 26.3601 106.086 26.41 102.123 29.5998C97.4065 33.3592 94.2074 33.7219 92.4693 32.9378C90.762 32.1676 90.2037 30.166 90.9708 28.4733C91.4721 27.3724 92.7774 26.6755 94.4966 26.1907C95.6582 25.8632 96.8991 25.6585 98.0582 25.4672C98.6034 25.3773 99.1306 25.2903 99.6229 25.195C100.364 25.0514 101.05 24.8834 101.539 24.6372C101.785 24.5131 102.025 24.3482 102.189 24.1169C102.367 23.8668 102.433 23.5701 102.369 23.255C102.31 22.9622 102.146 22.6845 101.927 22.421C101.705 22.1537 101.401 21.8701 101.017 21.5654C100.249 20.956 99.1083 20.2229 97.5243 19.3279L97.4658 19.2949L97.4006 19.2784C88.0223 16.9137 78.152 15.9445 69.635 18.3193C61.0839 20.7037 53.9366 26.45 50.0418 37.4056L50.0392 37.413L50.0369 37.4202L50.0368 37.4204L50.0363 37.4219L50.0339 37.4294L50.0232 37.4615C50.0136 37.4905 49.9987 37.5342 49.9787 37.5916C49.9387 37.7063 49.8779 37.8756 49.796 38.09C49.6322 38.519 49.3843 39.1279 49.05 39.8424C48.3799 41.2742 47.3689 43.1158 46.0002 44.7818C44.6299 46.4499 42.9236 47.9145 40.869 48.6385C38.8305 49.3567 36.4007 49.3634 33.5297 48.0351C32.1024 47.3747 31.1234 46.5642 30.4903 45.6638C29.8586 44.7654 29.5519 43.7505 29.5103 42.6477C29.4264 40.4205 30.4254 37.8418 32.0252 35.266C33.6173 32.7025 35.7663 30.2026 37.8903 28.1498C40.0197 26.0918 42.0933 24.5128 43.5226 23.7688L43.5227 23.7689L43.5335 23.7629C44.4677 23.2469 45.9995 22.5792 47.8843 21.7575C48.7833 21.3656 49.7627 20.9386 50.7959 20.4764C53.9675 19.0576 57.5973 17.326 60.7805 15.3172C63.9509 13.3164 66.7423 11.0017 68.1665 8.39233C68.8841 7.07759 69.2608 5.67664 69.1522 4.20328C69.063 2.9937 68.6487 1.76322 67.8671 0.516681L80.1921 0.72783L80.5489 0.906663L80.6552 0.959962L80.7742 0.959672L267.429 0.502796L267.422 0.510555L267.381 0.551178L267.37 0.562317L267.367 0.565224L267.366 0.565967L267.366 0.566154L267.366 0.5662L267.72 0.919323L267.366 0.566204C267.303 0.629894 267.215 0.685715 267.061 0.77811L267.044 0.788174C266.925 0.859779 266.76 0.959007 266.612 1.09422C266.217 1.33475 265.862 1.58241 265.581 1.77893C265.467 1.85852 265.365 1.92974 265.277 1.98869C263.099 3.25258 260.868 4.47652 258.658 5.03041L258.656 5.03103C254.234 6.16279 249.74 6.11575 245.223 6.06847C244.318 6.059 243.412 6.04951 242.506 6.0495C229.097 5.93462 215.688 5.93462 202.282 5.93462L202.271 5.93462C199.886 5.93462 197.486 5.89804 195.077 5.86132C185.384 5.71357 175.546 5.56362 165.94 7.78556C160.262 9.0634 154.815 11.3874 149.716 14.9886L149.713 14.9905C144.826 18.4898 140.768 23.3783 137.53 29.2898L137.527 29.2965C136.573 31.1025 135.62 33.102 134.756 35.1172C134.577 35.0084 134.352 34.8731 134.081 34.7145C133.315 34.2655 132.191 33.6297 130.75 32.8788ZM130.75 32.8788C130.75 32.8787 130.75 32.8786 130.75 32.8784L130.519 33.3218L130.751 32.8793C130.751 32.8791 130.751 32.879 130.75 32.8788Z" stroke="white"/>
<path d="M1.80928 35.9561L1.80938 35.956L1.80056 35.9476C0.740101 34.9352 0.333562 33.4442 0.560828 31.7958C0.788378 30.1454 1.65122 28.3729 3.07672 26.8889C5.9446 23.9034 9.96643 23.494 12.1006 25.6275C14.129 27.7684 13.717 31.7014 10.8375 34.699C7.96769 37.6865 3.94238 38.0945 1.80928 35.9561Z" stroke="white"/>
</svg>
