<?xml version="1.0" encoding="utf-8"?>
<!-- Generator: Adobe Illustrator 16.0.0, SVG Export Plug-In . SVG Version: 6.00 Build 0)  -->
<!DOCTYPE svg PUBLIC "-//W3C//DTD SVG 1.1//EN" "http://www.w3.org/Graphics/SVG/1.1/DTD/svg11.dtd">
<svg version="1.1" id="Calque_1" xmlns="http://www.w3.org/2000/svg" xmlns:xlink="http://www.w3.org/1999/xlink" x="0px" y="0px"
	 width="200px" height="37.725px" viewBox="0 0 200 37.725" enable-background="new 0 0 200 37.725" xml:space="preserve">
<g>
	<defs>
		<rect id="SVGID_1_" x="140.339" y="0" width="1.641" height="37.724"/>
	</defs>
	<clipPath id="SVGID_2_">
		<use xlink:href="#SVGID_1_"  overflow="visible"/>
	</clipPath>
	
		<linearGradient id="SVGID_3_" gradientUnits="userSpaceOnUse" x1="-176.1313" y1="70.1475" x2="-175.7693" y2="70.1475" gradientTransform="matrix(0 102.2902 84.4191 0 -5780.5352 18016.9414)">
		<stop  offset="0" style="stop-color:#007DC5"/>
		<stop  offset="0.05" style="stop-color:#007DC5"/>
		<stop  offset="0.5" style="stop-color:#00A99D"/>
		<stop  offset="0.95" style="stop-color:#A14A9C"/>
		<stop  offset="1" style="stop-color:#A14A9C"/>
	</linearGradient>
	<rect x="140.339" y="0" clip-path="url(#SVGID_2_)" fill="url(#SVGID_3_)" width="1.641" height="37.724"/>
</g>
<polygon fill="#FFFFFF" points="55.971,27.679 59.559,4.818 63.762,4.818 59.252,32.906 52.383,32.906 47.873,4.818 52.486,4.818 
	"/>
<rect x="65.813" y="4.818" fill="#FFFFFF" width="4.613" height="27.986"/>
<polygon fill="#FFFFFF" points="78.319,16.607 84.674,16.607 84.674,20.604 78.319,20.604 78.319,28.807 86.314,28.807 
	86.314,32.906 73.809,32.906 73.809,4.818 86.314,4.818 86.314,8.816 78.319,8.816 "/>
<polygon fill="#FFFFFF" points="99.333,17.94 97.591,32.906 91.337,32.906 88.057,4.819 92.568,4.819 95.028,26.961 97.181,4.819 
	101.589,4.819 103.946,27.063 106.305,4.819 110.302,4.819 107.022,32.906 100.974,32.906 "/>
<g>
	<defs>
		<rect id="SVGID_4_" y="0" width="200" height="37.724"/>
	</defs>
	<clipPath id="SVGID_5_">
		<use xlink:href="#SVGID_4_"  overflow="visible"/>
	</clipPath>
	<path clip-path="url(#SVGID_5_)" fill="#FFFFFF" d="M118.812,4.511c4.51,0,6.766,2.563,6.766,7.073v0.923h-4.307v-1.23
		c0-2.05-0.82-2.768-2.255-2.768s-2.255,0.717-2.255,2.768c0,5.741,8.918,6.869,8.918,14.864c0,4.511-2.357,7.073-6.867,7.073
		c-4.511,0-6.869-2.563-6.869-7.073v-1.743h4.305v2.051c0,2.05,0.924,2.769,2.358,2.769s2.358-0.719,2.358-2.769
		c0-5.741-8.918-6.868-8.918-14.865C112.046,7.074,114.301,4.511,118.812,4.511"/>
	<path clip-path="url(#SVGID_5_)" fill="#FFFFFF" d="M13.736,10.559v14.865H6.458L13.736,10.559z M13.122,0L0,25.424v5.432h13.736
		v6.869h14.455h0.922c5.638,0,9.943-1.641,12.917-4.921c2.973-3.28,4.511-7.894,4.511-13.941c0-6.048-1.435-10.764-4.408-13.941
		C39.057,1.64,34.854,0,29.215,0H22.45v25.423h5.843V5.433h1.025c9.636,0,11.994,5.843,11.994,13.429
		c0,8.508-3.178,13.43-11.994,13.43h-9.533V0H13.122z"/>
	<path clip-path="url(#SVGID_5_)" fill="#FFFFFF" d="M157.867,9.226c1.128,0,1.641,0.615,1.641,1.64v0.615
		c0,0.82-0.308,1.23-0.923,1.436c0.615,0.205,0.923,0.717,0.923,1.538v1.127c0,0.308,0,0.615,0.103,0.82h-0.82
		c-0.103-0.205-0.103-0.41-0.103-0.82v-1.229c0-0.82-0.41-1.025-1.024-1.025h-0.514v3.075h-0.82V9.226H157.867z M157.663,12.609
		c0.614,0,1.024-0.205,1.024-1.024v-0.718c0-0.615-0.204-1.025-0.82-1.025h-0.819v2.666h0.615V12.609z"/>
	<path clip-path="url(#SVGID_5_)" fill="#FFFFFF" d="M161.046,14.967l-0.308,1.435h-0.718l1.332-7.176h1.128l1.333,7.176h-0.82
		l-0.307-1.435H161.046z M161.148,14.25h1.64l-0.82-4.101L161.148,14.25z"/>
	<rect x="164.531" y="9.226" clip-path="url(#SVGID_5_)" fill="#FFFFFF" width="0.82" height="7.176"/>
	<path clip-path="url(#SVGID_5_)" fill="#FFFFFF" d="M169.246,10.969v0.205h-0.718v-0.205c0-0.615-0.204-1.025-0.82-1.025
		c-0.614,0-0.818,0.41-0.818,1.025c0,1.64,2.356,1.743,2.356,3.793c0,1.127-0.512,1.742-1.64,1.742
		c-1.127,0-1.641-0.718-1.641-1.742v-0.41h0.718v0.41c0,0.614,0.308,1.024,0.82,1.024s0.82-0.41,0.82-1.024
		c0-1.641-2.358-1.743-2.358-3.793c0-1.128,0.514-1.743,1.538-1.743C168.734,9.124,169.246,9.841,169.246,10.969"/>
	<polygon clip-path="url(#SVGID_5_)" fill="#FFFFFF" points="172.526,12.404 172.526,13.122 170.784,13.122 170.784,15.685 
		172.938,15.685 172.938,16.402 169.964,16.402 169.964,9.226 172.938,9.226 172.938,9.944 170.784,9.944 170.784,12.404 	"/>
	<polygon clip-path="url(#SVGID_5_)" fill="#FFFFFF" points="175.808,9.226 176.935,15.479 178.063,9.226 178.78,9.226 
		177.446,16.402 176.32,16.402 174.987,9.226 	"/>
	<rect x="179.497" y="9.226" clip-path="url(#SVGID_5_)" fill="#FFFFFF" width="0.82" height="7.176"/>
	<path clip-path="url(#SVGID_5_)" fill="#FFFFFF" d="M182.777,9.226c1.128,0,1.641,0.615,1.641,1.64v0.615
		c0,0.82-0.308,1.23-0.922,1.436c0.614,0.205,0.922,0.717,0.922,1.538v1.127c0,0.308,0,0.615,0.103,0.82h-0.82
		c-0.103-0.205-0.103-0.41-0.103-0.82v-1.229c0-0.82-0.41-1.025-1.024-1.025h-0.512v3.075h-0.82V9.226H182.777z M182.573,12.609
		c0.614,0,1.024-0.205,1.024-1.024v-0.718c0-0.615-0.204-1.025-0.82-1.025h-0.819v2.666h0.615V12.609z"/>
	<polygon clip-path="url(#SVGID_5_)" fill="#FFFFFF" points="186.16,16.402 186.16,9.944 184.828,9.944 184.828,9.226 
		188.211,9.226 188.211,9.944 186.879,9.944 186.879,16.402 	"/>
	<path clip-path="url(#SVGID_5_)" fill="#FFFFFF" d="M189.544,14.659c0,0.615,0.205,1.025,0.819,1.025c0.616,0,0.82-0.41,0.82-1.025
		V9.226h0.718v5.433c0,1.127-0.512,1.845-1.64,1.845c-1.129,0-1.641-0.718-1.641-1.845V9.226h0.82v5.433H189.544z"/>
	<path clip-path="url(#SVGID_5_)" fill="#FFFFFF" d="M193.645,14.967l-0.309,1.435h-0.716l1.332-7.176h1.127l1.332,7.176h-0.818
		l-0.309-1.435H193.645z M193.746,14.25h1.641l-0.82-4.101L193.746,14.25z"/>
	<polygon clip-path="url(#SVGID_5_)" fill="#FFFFFF" points="197.129,16.402 197.129,9.226 197.949,9.226 197.949,15.685 
		200,15.685 200,16.402 	"/>
	<polygon clip-path="url(#SVGID_5_)" fill="#FFFFFF" points="157.765,28.396 157.765,20.092 156.022,20.092 156.022,19.17 
		160.43,19.17 160.43,20.092 158.688,20.092 158.688,28.396 	"/>
	<path clip-path="url(#SVGID_5_)" fill="#FFFFFF" d="M161.046,21.426c0-1.436,0.717-2.358,2.152-2.358s2.153,0.922,2.153,2.358
		v4.816c0,1.436-0.718,2.358-2.153,2.358s-2.152-0.923-2.152-2.358V21.426z M162.07,26.242c0,0.82,0.308,1.334,1.128,1.334
		c0.717,0,1.127-0.514,1.127-1.334v-4.919c0-0.82-0.307-1.333-1.127-1.333c-0.718,0-1.128,0.513-1.128,1.333V26.242z"/>
	<path clip-path="url(#SVGID_5_)" fill="#FFFFFF" d="M170.477,19.169c1.435,0,2.05,0.718,2.05,2.154v0.718
		c0,1.024-0.308,1.639-1.127,1.947c0.819,0.205,1.127,0.922,1.127,1.947v1.436c0,0.409,0,0.819,0.205,1.128h-1.024
		c-0.103-0.309-0.206-0.513-0.206-1.128v-1.436c0-1.025-0.513-1.332-1.332-1.332h-0.717v3.997h-1.026v-9.328h2.051V19.169z
		 M170.169,23.578c0.819,0,1.332-0.307,1.332-1.23v-0.923c0-0.819-0.307-1.229-1.024-1.229h-1.024v3.383H170.169z"/>
	<polygon clip-path="url(#SVGID_5_)" fill="#FFFFFF" points="176.935,23.271 176.935,24.193 174.68,24.193 174.68,27.473 
		177.448,27.473 177.448,28.396 173.653,28.396 173.653,19.067 177.448,19.067 177.448,19.99 174.68,19.99 174.68,23.168 
		176.935,23.168 	"/>
	<path clip-path="url(#SVGID_5_)" fill="#FFFFFF" d="M179.396,26.551l-0.309,1.846h-0.922l1.742-9.329h1.538l1.742,9.329h-1.024
		l-0.308-1.846H179.396z M179.497,25.628h2.051l-1.024-5.33L179.497,25.628z"/>
	<polygon clip-path="url(#SVGID_5_)" fill="#FFFFFF" points="184.008,28.396 184.008,19.067 185.032,19.067 185.032,27.37 
		187.698,27.37 187.698,28.293 184.008,28.293 	"/>
	<rect x="188.417" y="19.17" clip-path="url(#SVGID_5_)" fill="#FFFFFF" width="1.024" height="9.329"/>
	<polygon clip-path="url(#SVGID_5_)" fill="#FFFFFF" points="191.901,28.396 191.901,20.092 190.159,20.092 190.159,19.17 
		194.566,19.17 194.566,20.092 192.824,20.092 192.824,28.396 	"/>
	<polygon clip-path="url(#SVGID_5_)" fill="#FFFFFF" points="196.925,25.115 194.977,19.169 196.001,19.169 197.438,23.68 
		198.872,19.169 199.897,19.169 197.949,25.115 197.949,28.396 196.925,28.396 	"/>
</g>
</svg>
