<svg width="547" height="600" viewBox="0 0 547 600" fill="none" xmlns="http://www.w3.org/2000/svg">
<path d="M170.08 487.483L170.069 487.48L170.057 487.475L163.486 485.125C163.484 485.124 163.483 485.124 163.481 485.123C144.4 478.752 130.441 470.593 121.311 459.964C112.178 449.332 107.917 436.274 108.145 420.187C107.919 418.866 107.486 418.046 106.999 417.559C106.515 417.074 105.942 416.882 105.355 416.882C104.972 416.882 104.39 417.145 103.698 417.874C103.021 418.586 102.3 419.681 101.641 421.174C100.323 424.158 99.2743 428.677 99.2743 434.744C99.2743 443.874 100.559 454.249 106.959 464.853C113.356 475.454 124.895 486.337 145.494 496.424C149.527 497.618 152.656 499.416 154.666 501.552C156.689 503.701 157.592 506.213 157.084 508.76L157.08 508.777L157.076 508.794C156.326 511.547 154.216 513.879 151.315 515.513C148.411 517.149 144.682 518.108 140.611 518.108C138.681 518.108 136.292 517.629 133.971 517.164L133.932 517.156L133.917 517.154L133.902 517.15C115.83 512.386 103.039 498.572 95.0123 475.872L95.0094 475.863C93.1662 470.325 89.0738 466.789 85.1422 466.789H85.0926L85.044 466.779C82.969 466.363 80.8023 467.601 79.4602 469.841L79.4499 469.858L79.4383 469.875C78.3396 471.415 77.7655 473.545 77.6504 476.081C77.5357 478.608 77.879 481.499 78.5754 484.526C80.4153 490.957 86.8846 499.341 100.967 511.567C109.907 518.166 119.784 526.174 131.531 536.058L131.537 536.062C141.817 544.955 155.86 552.463 173.7 559.517L173.72 559.525L173.74 559.535C174.176 559.753 176.405 560.625 179.56 561.747C182.697 562.863 186.713 564.213 190.697 565.387C194.687 566.563 198.624 567.554 201.612 567.961C203.111 568.165 204.333 568.216 205.19 568.087C206.088 567.952 206.351 567.666 206.401 567.417L206.405 567.397L206.41 567.378C206.587 566.759 206.408 566.159 205.906 565.532C205.395 564.894 204.588 564.283 203.635 563.705C202.688 563.13 201.635 562.609 200.659 562.139C200.527 562.075 200.396 562.012 200.267 561.95C199.46 561.563 198.713 561.205 198.185 560.888C193.206 558.274 187.521 554.122 183.132 549.191C178.749 544.267 175.595 538.495 175.837 532.656C176.079 525.383 180.207 520.29 185.806 517.456C191.387 514.631 198.447 514.035 204.667 515.712C210.411 517.151 216.001 520.735 221.072 524.81C225.039 527.998 228.721 531.514 231.929 534.578C232.823 535.432 233.681 536.251 234.498 537.018L234.52 537.039L234.54 537.062C235.688 538.443 236.956 539.598 238.183 540.652C238.49 540.915 238.796 541.173 239.097 541.428C239.982 542.175 240.828 542.89 241.541 543.601C243.678 545.313 245.803 547.014 248.277 548.714C249.206 531.782 250.579 514.871 252.397 499.275H251.548H251.532L251.516 499.274C229.431 497.862 196.469 495.507 170.08 487.483Z" stroke="white"/>
<path d="M327.229 578.313H327.253L327.278 578.316C327.4 578.328 327.522 578.34 327.644 578.352C332.212 578.809 337.295 579.316 342.385 581.612C359.296 582.043 369.409 578.656 382.549 574.256C383.166 574.05 383.789 573.841 384.419 573.631L384.437 573.625L384.456 573.62C385.364 573.393 386.277 573.05 387.222 572.695L387.236 572.69C388.162 572.342 389.12 571.983 390.083 571.74C397.628 569.38 404.728 567.955 411.842 567.955C422.516 567.955 430.964 571.044 436.814 575.289C442.648 579.523 445.941 584.943 446.186 589.616L446.187 589.629V589.642C446.187 593.074 444.691 596.142 442.03 598.181C445.321 598.386 448.689 598.59 452.057 598.794L452.063 598.795C455.88 599.026 459.697 599.258 463.402 599.49C466.534 597.203 468.723 594.062 469.165 590.522L469.166 590.51L469.168 590.498C470.079 585.251 468.145 579.136 465.05 573.462C461.962 567.802 457.765 562.665 454.277 559.404L454.277 559.404L454.27 559.397C438.367 543.938 415.89 534.08 397.56 527.019L397.556 527.018C382.269 520.986 365.147 515.868 346.187 511.666C348.003 521.764 349.38 531.424 350.757 541.073L350.757 541.074C350.757 541.074 350.757 541.075 350.757 541.075C352.178 550.568 350.773 557.335 346.403 562.198L346.395 562.208L346.385 562.217C342.974 565.634 337.659 567.543 330.989 567.543C323.837 567.543 315.765 565.158 308.66 561.363L308.66 561.363L308.649 561.357C294.334 553.232 290.072 536.066 288.664 529.482L288.661 529.471L288.659 529.459C287.769 524.108 283.33 521.873 279.751 521.873C276.136 521.873 273.482 523.219 271.706 525.888C269.925 528.563 269.445 532.296 270.37 536.87C271.294 541.44 273.613 546.797 277.352 552.649L277.356 552.655C285.702 566.123 301.964 572.674 313.696 575.968C316.344 576.301 319.003 576.868 321.963 577.498C323.205 577.763 324.499 578.039 325.868 578.313H327.229Z" stroke="white"/>
<path d="M298.087 591.497C310.019 591.497 321.661 591.497 333.243 591.732C291.405 585.413 255.339 571.826 231.978 552.851C229.125 550.942 226.749 548.563 223.952 545.761L223.936 545.745C223.522 545.356 223.106 544.964 222.687 544.569C219.294 541.37 215.767 538.045 212.244 535.554C208.27 532.745 204.422 531.086 200.873 531.753L200.858 531.756L200.842 531.757C197.228 532.21 194.645 534.451 194.222 536.993L194.22 537.006L194.217 537.019C193.793 538.932 194.522 541.252 196.414 543.665C198.299 546.068 201.294 548.499 205.245 550.594L205.254 550.599L205.263 550.604C205.493 550.738 205.739 550.881 205.999 551.031C208.91 552.716 213.606 555.433 216.9 559.118C218.701 561.133 220.113 563.466 220.575 566.112C221.038 568.764 220.537 571.676 218.61 574.82C217.094 577.835 213.63 579.759 208.876 580.248C207.407 580.727 205.939 580.727 204.122 580.726H204.071C192.686 580.726 179.916 576.455 169.103 572.217L169.099 572.216C150.262 564.669 135.173 556.171 122.904 546.246L122.898 546.241C110.44 535.882 92.7063 521.179 76.1506 509.066C67.8721 503.009 59.8987 497.607 53.0338 493.722C49.6012 491.779 46.4548 490.221 43.6922 489.15C40.9224 488.075 38.5732 487.504 36.7246 487.504C34.9777 487.504 34.1813 487.928 33.8213 488.267C32.9387 489.607 32.5761 490.836 32.9655 492.017C33.6134 493.736 35.6045 495.777 39.1078 498C42.5934 500.211 47.4942 502.551 53.8212 504.898L53.8255 504.899C63.7558 508.688 77.4305 516.721 89.384 525.922C95.3636 530.524 100.924 535.428 105.378 540.25C109.824 545.066 113.196 549.832 114.757 554.162L114.762 554.175L114.766 554.188C116.206 558.998 115.747 562.928 113.763 565.908C111.746 568.938 105.895 572.723 92.6634 572.723C86.5277 572.723 78.9709 572.25 70.4677 570.358C55.8678 567.527 40.3345 562.812 28.1171 559.047C27.2845 558.793 26.4634 558.542 25.6552 558.295C21.2114 556.937 17.1577 555.699 13.7344 554.755C9.66751 553.633 6.56058 552.948 4.75964 552.948C3.17667 552.948 2.12518 553.289 1.48047 553.786C0.853363 554.269 0.558899 554.939 0.558899 555.744V555.793L298.086 591.997M298.087 591.497C298.087 591.497 298.087 591.497 298.087 591.497H298.086V591.997M298.087 591.497C298.088 591.497 298.089 591.497 298.09 591.497L298.086 591.997M298.087 591.497C245.457 591.026 194.705 592.437 147.239 595.26M298.086 591.997C245.437 591.526 194.669 592.939 147.192 595.764M147.239 595.26C147.264 595.266 147.289 595.272 147.313 595.279L147.192 595.764M147.239 595.26C147.213 595.261 147.188 595.263 147.162 595.264L147.192 595.764M147.239 595.26L147.192 595.764M131.895 589.663L131.903 589.667L131.679 590.114L131.887 589.659C131.889 589.66 131.892 589.661 131.895 589.663ZM6.68582 560.425C6.6871 560.425 6.68845 560.425 6.68973 560.425L6.63989 560.923L6.68149 560.425C6.68292 560.425 6.68439 560.425 6.68582 560.425ZM342.272 592.468C340.63 592.415 338.988 592.368 337.346 592.326L342.272 592.468Z" stroke="white"/>
<path d="M410.498 18.3632L410.498 18.3632L410.496 18.3598C397.498 0.226796 371.007 -4.91552 351.005 6.71836C347.961 8.89578 344.979 11.0346 342.731 13.5226C372.715 20.1666 398.149 35.4289 413.655 56.6699C419.754 44.7236 419.14 30.208 410.498 18.3632Z" stroke="white"/>
<path d="M349.367 211.077C375.229 212.897 401.956 219.965 425.77 230.596C417.572 222.893 409.385 215.662 401.203 209.624L401.2 209.621C359.928 178.618 322.9 172.056 299.494 172.056C276.067 172.056 255.942 176.747 236.286 187.996C228.374 192.658 224.829 198.607 225.715 203.952C226.603 208.377 231.066 212.053 238.04 213.916C243.644 215.319 249.713 216.255 257.188 216.255C267.03 216.255 276.408 215.316 285.812 214.374L285.817 214.373L290.973 213.904C290.975 213.904 290.978 213.903 290.98 213.903C306.496 212.02 321.09 210.605 336.16 210.605H336.176C340.861 210.605 345.112 210.605 349.367 211.077Z" stroke="white"/>
<path d="M475.123 358.937L475.116 358.935L475.109 358.932C460.882 352.956 444.857 348.782 429.682 347.289C430.217 348.206 430.752 349.094 431.276 349.962C432.412 351.848 433.491 353.638 434.376 355.409C443.084 370.495 448.333 379.479 454.145 385.125C459.906 390.722 466.241 393.054 477.22 394.695H477.222H477.225H477.228H477.231H477.234H477.237H477.24H477.243H477.246H477.249H477.252H477.255H477.258H477.261H477.264H477.267H477.27H477.273H477.276H477.279H477.282H477.285H477.288H477.292H477.295H477.298H477.301H477.304H477.307H477.311H477.314H477.317H477.32H477.324H477.327H477.33H477.333H477.337H477.34H477.343H477.346H477.35H477.353H477.356H477.36H477.363H477.366H477.37H477.373H477.377H477.38H477.383H477.387H477.39H477.394H477.397H477.4H477.404H477.407H477.411H477.414H477.418H477.421H477.425H477.428H477.432H477.436H477.439H477.443H477.446H477.45H477.453H477.457H477.461H477.464H477.468H477.471H477.475H477.479H477.482H477.486H477.49H477.493H477.497H477.501H477.505H477.508H477.512H477.516H477.519H477.523H477.527H477.531H477.535H477.538H477.542H477.546H477.55H477.554H477.557H477.561H477.565H477.569H477.573H477.577H477.581H477.584H477.588H477.592H477.596H477.6H477.604H477.608H477.612H477.616H477.62H477.624H477.628H477.632H477.636H477.64H477.644H477.648H477.652H477.656H477.66H477.664H477.668H477.672H477.676H477.68H477.684H477.688H477.693H477.697H477.701H477.705H477.709H477.713H477.717H477.721H477.726H477.73H477.734H477.738H477.742H477.747H477.751H477.755H477.759H477.763H477.768H477.772H477.776H477.78H477.785H477.789H477.793H477.798H477.802H477.806H477.811H477.815H477.819H477.823H477.828H477.832H477.837H477.841H477.845H477.85H477.854H477.858H477.863H477.867H477.872H477.876H477.88H477.885H477.889H477.894H477.898H477.903H477.907H477.912H477.916H477.921H477.925H477.93H477.934H477.939H477.943H477.948H477.952H477.957H477.961H477.966H477.97H477.975H477.979H477.984H477.989H477.993H477.998H478.002H478.007H478.012H478.016H478.021H478.025H478.03H478.035H478.039H478.044H478.049H478.053H478.058H478.063H478.067H478.072H478.077H478.081H478.086H478.091H478.096H478.1H478.105H478.11H478.114H478.119H478.124H478.129H478.134H478.138H478.143H478.148H478.153H478.157H478.162H478.167H478.172H478.177H478.181H478.186H478.191H478.196H478.201H478.206H478.21H478.215H478.22H478.225H478.23H478.235H478.24H478.245H478.249H478.254H478.259H478.264H478.269H478.274H478.279H478.284H478.289H478.294H478.299H478.304H478.309H478.313H478.318H478.323H478.328H478.333H478.338H478.343H478.348H478.353H478.358H478.363H478.368H478.373H478.378H478.383H478.388H478.393H478.398H478.403H478.409H478.414H478.419H478.424H478.429H478.434H478.439H478.444H478.449H478.454H478.459H478.464H478.469H478.474H478.48H478.485H478.49H478.495H478.5H478.505H478.51H478.515H478.521H478.526H478.531H478.536H478.541H478.546H478.551H478.557H478.562H478.567H478.572H478.577H478.582H478.588H478.593H478.598H478.603H478.608H478.614H478.619H478.624H478.629H478.634H478.64H478.645H478.65H478.655H478.661H478.666H478.671H478.676H478.682H478.687H478.692H478.697H478.703H478.708H478.713H478.718H478.724H478.729H478.734H478.74H478.745H478.75H478.755H478.761H478.766H478.771H478.777H478.782H478.787H478.793H478.798H478.803H478.808H478.814H478.819H478.824H478.83H478.835H478.84H478.846H478.851H478.857H478.862H478.867H478.873H478.878H478.883H478.889H478.894H478.899H478.905H478.91H478.915H478.921H478.926H478.932H478.937H478.942H478.948H478.953H478.959H478.964H478.969H478.975H478.98H478.986H478.991H478.996H479.002H479.007H479.013H479.018H479.023H479.029H479.034H479.04H479.045H479.051H479.056H479.061H479.067H479.072H479.078H479.083H479.089H479.094H479.099H479.105H479.11H479.116H479.121H479.127H479.132H479.138H479.143H479.148H479.154H479.159H479.165H479.17H479.176H479.181H479.187H479.192H479.198H479.203H479.209H479.214H479.22H479.225H479.231H479.236H479.241H479.247H479.252H479.258H479.263H479.269H479.274H479.28H479.285H479.291H479.296H479.302H479.307H479.313H479.318H479.324H479.329H479.335H479.34H479.346H479.351H479.357H479.362H479.368H479.373H479.379H479.384H479.39H479.395H479.401H479.406H479.412H479.417H479.423H479.428H479.434H479.439H479.445H479.45H479.456H479.461H479.467H479.472H479.478H479.483H479.489H479.494H479.5H479.505H479.511H479.516H479.522H479.527H479.533C484.61 394.695 490.163 393.308 494.794 390.995C500.366 387.268 502.502 383.664 502.071 380.195C501.738 377.869 500.317 375.519 498.204 373.244C496.097 370.974 493.341 368.822 490.421 366.892C484.582 363.031 478.152 360.104 475.123 358.937Z" stroke="white"/>
<path d="M251.987 249.211L251.956 249.215C244.458 250.154 236.503 250.622 229.025 250.154C224.903 249.739 221.525 247.84 217.772 245.73C217.367 245.502 216.958 245.272 216.543 245.041C216.172 244.818 215.786 244.581 215.389 244.337C213.308 243.06 210.891 241.577 208.473 240.767C199.443 237.151 190.382 235.25 181.712 235.921C189.788 226.147 198.266 217.653 206.334 210.439C207.282 211.733 208.562 213.014 209.804 214.259L209.827 214.282L209.843 214.298L209.861 214.313C221.275 223.839 238.809 228.553 263.77 228.553H263.789H263.808H263.827H263.847H263.866H263.885H263.905H263.924H263.943H263.963H263.982H264.002H264.021H264.04H264.06H264.079H264.099H264.118H264.138H264.157H264.177H264.196H264.216H264.235H264.255H264.274H264.294H264.314H264.333H264.353H264.372H264.392H264.412H264.431H264.451H264.47H264.49H264.51H264.529H264.549H264.569H264.589H264.608H264.628H264.648H264.667H264.687H264.707H264.727H264.747H264.766H264.786H264.806H264.826H264.846H264.865H264.885H264.905H264.925H264.945H264.965H264.985H265.005H265.025H265.045H265.064H265.084H265.104H265.124H265.144H265.164H265.184H265.204H265.224H265.244H265.264H265.284H265.304H265.325H265.345H265.365H265.385H265.405H265.425H265.445H265.465H265.485H265.505H265.526H265.546H265.566H265.586H265.606H265.627H265.647H265.667H265.687H265.707H265.728H265.748H265.768H265.788H265.809H265.829H265.849H265.87H265.89H265.91H265.93H265.951H265.971H265.991H266.012H266.032H266.053H266.073H266.093H266.114H266.134H266.155H266.175H266.195H266.216H266.236H266.257H266.277H266.298H266.318H266.339H266.359H266.38H266.4H266.421H266.441H266.462H266.482H266.503H266.523H266.544H266.565H266.585H266.606H266.626H266.647H266.668H266.688H266.709H266.73H266.75H266.771H266.791H266.812H266.833H266.854H266.874H266.895H266.916H266.936H266.957H266.978H266.999H267.019H267.04H267.061H267.082H267.102H267.123H267.144H267.165H267.185H267.206H267.227H267.248H267.269H267.29H267.31H267.331H267.352H267.373H267.394H267.415H267.436H267.457H267.477H267.498H267.519H267.54H267.561H267.582H267.603H267.624H267.645H267.666H267.687H267.708H267.729H267.75H267.771H267.792H267.813H267.834H267.855H267.876H267.897H267.918H267.939H267.96H267.981H268.002H268.023H268.044H268.065H268.086H268.108H268.129H268.15H268.171H268.192H268.213H268.234H268.255H268.277H268.298H268.319H268.34H268.361H268.382H268.404H268.425H268.446H268.467H268.488H268.51H268.531H268.552H268.573H268.595H268.616H268.637H268.658H268.68H268.701H268.722H268.743H268.765H268.786H268.807H268.829H268.85H268.871H268.892H268.914H268.935H268.956H268.978H268.999H269.02H269.042H269.063H269.085H269.106H269.127H269.149H269.17H269.191H269.213H269.234H269.256H269.277H269.298H269.32H269.341H269.363H269.384H269.406H269.427H269.449H269.47H269.491H269.513H269.534H269.556H269.577H269.599H269.62H269.642H269.663H269.685H269.706H269.728H269.749H269.771H269.792H269.814H269.835H269.857H269.879H269.9H269.922H269.943H269.965H269.986H270.008H270.03H270.051H270.073H270.094H270.116H270.137H270.159H270.181H270.202H270.224H270.246H270.267H270.289H270.31H270.332H270.354H270.375H270.397H270.419H270.44H270.462H270.484H270.505H270.527H270.549H270.57H270.592H270.614H270.635H270.657H270.679H270.701H270.722H270.744H270.766H270.787H270.809H270.831H270.853H270.874H270.896H270.918H270.939H270.961H270.983H271.005H271.027H271.048H271.07H271.092H271.114H271.135H271.157H271.179H271.201H271.222H271.244H271.266H271.288H271.31H271.331H271.353H271.375H271.397H271.419H271.441H271.462H271.484H271.506H271.528H271.55H271.571H271.593H271.615H271.637H271.659H271.681H271.703H271.724H271.746H271.768H271.79H271.812H271.834H271.856H271.877H271.899H271.921H271.943H271.965H271.987H272.009H272.031H272.053H272.074H272.096H272.118H272.14H272.162H272.184H272.206H272.228H272.25H272.272H272.294H272.315H272.337H272.359H272.381H272.403H272.425H272.447H272.469H272.491H272.513H272.535H272.557H272.579H272.601H272.623H272.645H272.667H272.688H272.71H272.732H272.754H272.776H272.798H272.82H272.842H272.864H272.886H272.908H272.93H272.952H272.974H272.996H273.018H273.04H273.062H273.084H273.106H273.128H273.15H273.172H273.194H273.216H273.238H273.26H273.282H273.304H273.326H273.348H273.37H273.392H273.414H273.436H273.458H273.48H273.502H273.524H273.546H273.568H273.59H273.612H273.634H273.656H273.678H273.7H273.722H273.744H273.766H273.788H273.81H273.832H273.854H273.876H273.898H273.92H273.942H273.964H273.986H274.008H274.03H274.052H274.074H274.097H274.119H274.141H274.163H274.185H274.207H274.229H274.251H274.273H274.295H274.317H274.339H274.361H274.383H274.405H274.427H274.449H274.471H274.493H274.515H274.537H274.559H274.581H274.593L274.605 228.553C284.489 228.081 294.375 227.139 303.793 225.724C315.547 224.311 327.267 222.904 338.981 222.904H338.987H338.992H338.998H339.003H339.009H339.014H339.02H339.025H339.031H339.036H339.042H339.047H339.053H339.058H339.064H339.069H339.075H339.08H339.086H339.091H339.097H339.102H339.108H339.113H339.119H339.124H339.13H339.135H339.141H339.146H339.152H339.157H339.163H339.168H339.174H339.179H339.185H339.19H339.196H339.201H339.207H339.212H339.218H339.223H339.229H339.234H339.24H339.245H339.251H339.256H339.262H339.267H339.273H339.278H339.284H339.289H339.295H339.3H339.306H339.311H339.317H339.322H339.327H339.333H339.338H339.344H339.349H339.355H339.36H339.366H339.371H339.377H339.382H339.388H339.393H339.398H339.404H339.409H339.415H339.42H339.426H339.431H339.437H339.442H339.447H339.453H339.458H339.464H339.469H339.475H339.48H339.485H339.491H339.496H339.502H339.507H339.512H339.518H339.523H339.529H339.534H339.539H339.545H339.55H339.556H339.561H339.566H339.572H339.577H339.583H339.588H339.593H339.599H339.604H339.609H339.615H339.62H339.626H339.631H339.636H339.642H339.647H339.652H339.658H339.663H339.668H339.674H339.679H339.684H339.69H339.695H339.7H339.706H339.711H339.716H339.722H339.727H339.732H339.738H339.743H339.748H339.754H339.759H339.764H339.769H339.775H339.78H339.785H339.791H339.796H339.801H339.806H339.812H339.817H339.822H339.827H339.833H339.838H339.843H339.848H339.854H339.859H339.864H339.869H339.874H339.88H339.885H339.89H339.895H339.901H339.906H339.911H339.916H339.921H339.927H339.932H339.937H339.942H339.947H339.952H339.958H339.963H339.968H339.973H339.978H339.983H339.989H339.994H339.999H340.004H340.009H340.014H340.019H340.024H340.03H340.035H340.04H340.045H340.05H340.055H340.06H340.065H340.07H340.075H340.08H340.085H340.091H340.096H340.101H340.106H340.111H340.116H340.121H340.126H340.131H340.136H340.141H340.146H340.151H340.156H340.161H340.166H340.171H340.176H340.181H340.186H340.191H340.196H340.201H340.206H340.211H340.216H340.221H340.225H340.23H340.235H340.24H340.245H340.25H340.255H340.26H340.265H340.27H340.275H340.279H340.284H340.289H340.294H340.299H340.304H340.309H340.313H340.318H340.323H340.328H340.333H340.338H340.342H340.347H340.352H340.357H340.362H340.366H340.371H340.376H340.381H340.385H340.39H340.395H340.4H340.404H340.409H340.414H340.419H340.423H340.428H340.433H340.437H340.442H340.447H340.452H340.456H340.461H340.466H340.47H340.475H340.48H340.484H340.489H340.493H340.498H340.503H340.507H340.512H340.516H340.521H340.526H340.53H340.535H340.539H340.544H340.548H340.553H340.558H340.562H340.567H340.571H340.576H340.58H340.585H340.589H340.594H340.598H340.603H340.607H340.612H340.616H340.62H340.625H340.629H340.634H340.638H340.643H340.647H340.651H340.656H340.66H340.665H340.669H340.673H340.678H340.682H340.686H340.691H340.695H340.699H340.704H340.708H340.712H340.717H340.721H340.725H340.729H340.734H340.738H340.742H340.746H340.751H340.755H340.759H340.763H340.768H340.772H340.776H340.78H340.784H340.789H340.793H340.797H340.801H340.805H340.809H340.813H340.818H340.822H340.826H340.83H340.834H340.838H340.842H340.846H340.85H340.854H340.858H340.862H340.866H340.87H340.874H340.878H340.882H340.886H340.89H340.894H340.898H340.902H340.906H340.91H340.914H340.918H340.922H340.926H340.93H340.934H340.938H340.941H340.945H340.949H340.953H340.957H340.961H340.964H340.968H340.972H340.976H340.98H340.983H340.987H340.991H340.995H340.998H341.002H341.006H341.01H341.013H341.017H341.021H341.024H341.028H341.032H341.035H341.039H341.043H341.046H341.05H341.054H341.057H341.061H341.064H341.068H341.072H341.075H341.079H341.082H341.086H341.089H341.093H341.096H341.1H341.103H341.107H341.11H341.114H341.117H341.121H341.124H341.127H341.131H341.134H341.138H341.141H341.144H341.148H341.151H341.155H341.158H341.161H341.165H341.168H341.171H341.174H341.178H341.181H341.184H341.187H341.191H341.194H341.197H341.2H341.204H341.207H341.21H341.213H341.216H341.219H341.223H341.226H341.229H341.232H341.235H341.238H341.241H341.244H341.247H341.25H341.253H341.256H341.26H341.263H341.266H341.269H341.271H341.274H341.277H341.28H341.283H341.286H341.289H341.292H341.295H341.298H341.301H341.304H341.306H341.309H341.312H341.315H341.318H341.321H341.323H341.326H341.327C364.303 223.374 385.394 227.601 404.136 235.109L404.144 235.112L404.152 235.115C427.581 243.563 447.25 256.228 461.762 271.226C471.207 283.391 480.654 297.284 489.689 312.494C484.653 309.083 478.951 305.905 473.351 302.784C472.038 302.052 470.73 301.323 469.437 300.595C469.437 300.595 469.437 300.595 469.437 300.595L469.192 301.03C441.927 285.493 396.8 273.723 393.98 273.252L251.987 249.211ZM251.987 249.211H252.018C253.164 249.211 254.314 249.096 255.493 248.978L255.506 248.977C256.665 248.861 257.853 248.742 259.045 248.74C274.098 247.328 288.209 246.857 301.846 246.857C326.08 246.857 345.991 249.095 361.446 253.467C376.802 257.811 387.809 264.277 394.263 272.797L251.987 249.211Z" stroke="white"/>
<path d="M511.596 366.719C505.454 360.042 496.948 355.578 491.967 353.309C470.379 342.969 445.986 336.372 422.968 334.919C420.581 330.315 418.875 326.395 417.249 322.66C417.008 322.109 416.77 321.562 416.532 321.017C414.649 316.716 412.759 312.573 409.923 307.838M511.596 366.719L409.493 308.093M511.596 366.719C511.926 363.377 511.845 360.007 511.02 356.266C506.827 346.026 499.143 337.156 490.197 329.543C481.243 321.922 471.051 315.585 461.895 310.412C446.889 301.957 423.46 291.165 397.235 287.406H396.801H396.301V286.906V285.701C381.857 271.331 361.849 265.727 341.718 261.975C329.516 260.095 315.913 258.686 300.906 258.686C288.698 258.686 275.55 259.156 258.169 260.568L258.149 260.569H258.129C257.229 260.569 256.44 260.682 255.614 260.8L255.603 260.801C254.792 260.917 253.946 261.038 252.979 261.04C247.345 261.51 241.223 261.982 235.565 261.982C229.446 261.982 224.217 261.512 219.913 260.079C216.082 259.115 212.272 256.73 208.55 254.4L208.514 254.377C208.512 254.377 208.511 254.376 208.51 254.375C207.987 254.061 207.446 253.727 206.896 253.387C204.935 252.177 202.86 250.895 201.064 250.176L201.055 250.172C189.038 245.08 177.026 246.902 165.416 256.183L511.596 366.719ZM409.923 307.838C409.922 307.837 409.922 307.837 409.921 307.836L409.493 308.093M409.923 307.838C409.923 307.838 409.923 307.838 409.923 307.838L409.493 308.093M409.923 307.838C408.803 305.95 407.936 304.65 407.281 303.852C406.957 303.457 406.662 303.156 406.395 302.972C406.16 302.809 405.76 302.613 405.373 302.845C405.195 302.951 405.092 303.111 405.032 303.253C404.971 303.396 404.938 303.553 404.921 303.708C404.885 304.016 404.9 304.4 404.947 304.828C405.04 305.69 405.274 306.838 405.599 308.154C406.762 312.866 409.149 319.975 410.818 324.626M409.493 308.093C400.831 293.482 408.085 315.624 411.532 325.134C411.297 324.963 411.059 324.794 410.818 324.626M410.818 324.626C410.92 324.91 411.019 325.184 411.115 325.449C411.361 325.626 411.604 325.804 411.843 325.984L385.049 313.272C372.357 309.505 358.725 306.68 345.092 306.21M410.818 324.626C403.324 319.403 393.193 315.464 385.207 312.798L385.199 312.795L385.191 312.793C372.479 309.02 358.81 306.185 345.129 305.711M345.129 305.711C345.135 305.711 345.141 305.712 345.148 305.713L345.092 306.21M345.129 305.711C345.122 305.71 345.116 305.71 345.11 305.71L345.092 306.21M345.129 305.711C340.876 305.239 336.159 305.239 331.478 305.239H331.46C312.635 305.239 293.346 306.653 275.005 308.537M345.092 306.21C340.862 305.739 336.161 305.739 331.461 305.739H331.46C312.657 305.739 293.384 307.151 275.051 309.035M275.051 309.035L275.01 308.536C275.008 308.536 275.007 308.537 275.005 308.537M275.051 309.035C272.231 309.27 269.293 309.505 266.355 309.741C263.417 309.976 260.479 310.212 257.659 310.447M275.051 309.035L275 308.537C275.002 308.537 275.004 308.537 275.005 308.537M275.005 308.537C272.188 308.772 269.254 309.007 266.319 309.242L266.315 309.242C263.385 309.477 260.453 309.712 257.638 309.947M257.659 310.447V309.947C257.652 309.947 257.645 309.947 257.638 309.947M257.659 310.447C255.778 310.447 252.958 310.918 250.138 311.389M257.659 310.447L257.617 309.949C257.624 309.948 257.631 309.948 257.638 309.947M257.638 309.947C255.716 309.951 252.877 310.425 250.099 310.888L250.071 310.893L250.138 311.389M250.138 311.389L250.055 310.895L250.063 310.894L197.489 304.797M250.138 311.389C243.086 312.33 233.215 313.272 223.813 313.272C209.711 313.272 200.78 310.447 197.489 304.797M197.489 304.797L197.937 305.021L198.059 304.775C198.012 304.699 197.966 304.623 197.921 304.546L197.489 304.797ZM148.597 280.243C148.488 280.414 148.38 280.585 148.271 280.756C148.068 280.765 147.864 280.774 147.661 280.785C147.77 280.613 147.879 280.44 147.988 280.268C148.191 280.259 148.394 280.25 148.597 280.243Z" stroke="white"/>
<path d="M228.044 326.484L228.036 326.484C199.89 326.014 183.593 318.986 178.26 303.681C170.371 297.211 161.594 293.997 153.773 293.997C146.412 293.997 139.97 296.749 134.427 302.282C130.343 309.1 125.826 316.788 121.296 325.351C124.272 324.929 127.311 324.542 130.739 324.542C147.777 324.542 167.17 331.645 179.488 342.559L179.5 342.569L179.51 342.58C180.579 343.651 180.827 344.979 180.947 346.179C180.972 346.429 180.991 346.665 181.009 346.893C181.036 347.238 181.063 347.566 181.107 347.9C181.177 348.436 181.285 348.903 181.484 349.301C181.674 349.681 181.964 349.981 182.361 350.322C182.468 350.414 182.584 350.51 182.708 350.611C183.026 350.874 183.39 351.174 183.741 351.526C185.593 353.38 187.901 355.228 190.662 356.611L190.669 356.614L190.676 356.618C196.782 359.911 203.32 363.182 210.31 365.05L210.319 365.052L210.327 365.054C225.767 369.74 244.04 370.682 256.719 370.682H256.738H256.757H256.777H256.796H256.815H256.834H256.854H256.873H256.892H256.911H256.931H256.95H256.969H256.989H257.008H257.027H257.046H257.066H257.085H257.104H257.124H257.143H257.162H257.181H257.201H257.22H257.239H257.258H257.278H257.297H257.316H257.336H257.355H257.374H257.393H257.413H257.432H257.451H257.47H257.49H257.509H257.528H257.547H257.567H257.586H257.605H257.624H257.644H257.663H257.682H257.701H257.721H257.74H257.759H257.778H257.798H257.817H257.836H257.855H257.875H257.894H257.913H257.932H257.952H257.971H257.99H258.009H258.029H258.048H258.067H258.086H258.106H258.125H258.144H258.163H258.182H258.202H258.221H258.24H258.259H258.279H258.298H258.317H258.336H258.355H258.375H258.394H258.413H258.432H258.451H258.471H258.49H258.509H258.528H258.547H258.566H258.586H258.605H258.624H258.643H258.662H258.682H258.701H258.72H258.739H258.758H258.777H258.797H258.816H258.835H258.854H258.873H258.892H258.911H258.931H258.95H258.969H258.988H259.007H259.026H259.045H259.064H259.084H259.103H259.122H259.141H259.16H259.179H259.198H259.217H259.237H259.256H259.275H259.294H259.313H259.332H259.351H259.37H259.389H259.408H259.427H259.446H259.465H259.485H259.504H259.523H259.542H259.561H259.58H259.599H259.618H259.637H259.656H259.675H259.694H259.713H259.732H259.751H259.77H259.789H259.808H259.827H259.846H259.865H259.884H259.903H259.922H259.941H259.96H259.979H259.998H260.017H260.036H260.055H260.074H260.093H260.112H260.131H260.15H260.169H260.188H260.207H260.225H260.244H260.263H260.282H260.301H260.32H260.339H260.358H260.377H260.396H260.415H260.433H260.452H260.471H260.49H260.509H260.528H260.547H260.566H260.584H260.603H260.622H260.641H260.66H260.679H260.697H260.716H260.735H260.754H260.773H260.792H260.81H260.829H260.848H260.867H260.885H260.904H260.923H260.942H260.961H260.979H260.998H261.017H261.036H261.054H261.073H261.092H261.111H261.129H261.148H261.167H261.185H261.204H261.223H261.241H261.26H261.279H261.298H261.316H261.335H261.354H261.372H261.391H261.409H261.428H261.447H261.465H261.484H261.503H261.521H261.54H261.558H261.577H261.596H261.614H261.633H261.651H261.67H261.689H261.707H261.726H261.744H261.763H261.781H261.8H261.818H261.837H261.855H261.874H261.892H261.911H261.929H261.948H261.966H261.985H262.003H262.022H262.04H262.059H262.077H262.096H262.114H262.132H262.151H262.169H262.188H262.206H262.225H262.243H262.261H262.28H262.298H262.316H262.335H262.353H262.372H262.39H262.408H262.427H262.445H262.463H262.481H262.5H262.518H262.536H262.555H262.573H262.591H262.609H262.628H262.646H262.664H262.682H262.701H262.719H262.737H262.755H262.774H262.792H262.81H262.828H262.846H262.865H262.883H262.901H262.919H262.937H262.955H262.973H262.992H263.01H263.028H263.046H263.064H263.082H263.1H263.118H263.136H263.154H263.172H263.19H263.209H263.227H263.245H263.263H263.281H263.299H263.317H263.335H263.353H263.371H263.389H263.406H263.424H263.442H263.46H263.478H263.496H263.514H263.532H263.55H263.568H263.586H263.604H263.621H263.639H263.657H263.675H263.693H263.711H263.728H263.746H263.764H263.782H263.8H263.817H263.835H263.853H263.871H263.889H263.906H263.924H263.942H263.959H263.977H263.995H264.013H264.03H264.048H264.066H264.083H264.101H264.119H264.136H264.154H264.171H264.189H264.207H264.224H264.242H264.259H264.277H264.295H264.312H264.33H264.347H264.365H264.382H264.4H264.417H264.435H264.452H264.47H264.487H264.505H264.522H264.54H264.557H264.574H264.592H264.609H264.627H264.644H264.661H264.679H264.696H264.713H264.731H264.748H264.765H264.783H264.8H264.817H264.835H264.852H264.869H264.886H264.904H264.921H264.938H264.955H264.973H264.99H265.007H265.024H265.041H265.059H265.076H265.093H265.11H265.127H265.144H265.161H265.178H265.196H265.213H265.23H265.247H265.264H265.281H265.298H265.315H265.332H265.349H265.366H265.383H265.4H265.417H265.434H265.451H265.468H265.485H265.501H265.518H265.535H265.552H265.569H265.586H265.603H265.62H265.636H265.653H265.67H265.687H265.704H265.72H265.737H265.754H265.771H265.787H265.804H265.821H265.838H265.854H265.871H265.888H265.904H265.921H265.938H265.954H265.971H265.988H266.004H266.021H266.037H266.054H266.071H266.087H266.104C269.633 370.447 273.277 370.329 276.912 370.212L276.916 370.212C280.56 370.094 284.194 369.977 287.709 369.742C301.353 368.8 314.996 368.328 328.64 368.328C340.401 368.328 351.238 368.799 361.142 370.216C393.763 374.358 417.489 381.204 434.44 392.996C431.258 382.651 427.664 372.322 424.069 362.418C412.441 334.485 377.969 320.363 322.057 319.892C310.322 319.892 297.649 320.362 283.098 321.773C279.335 322.244 275.103 322.715 269.932 323.185C269.05 323.287 268.152 323.392 267.241 323.498C255.545 324.86 241.594 326.484 228.044 326.484Z" stroke="white"/>
<path d="M169.401 352.233L169.392 352.223C161.021 343.373 146.579 336.842 134.03 336.842C127.504 336.842 118.381 338.245 113.348 344.557C111.529 355.205 113.862 363.94 119.823 370.37C127.231 378.254 139.31 381.983 147.192 381.983C155.666 381.983 160.72 381.504 164.361 379.681L164.374 379.675L164.387 379.669L167.678 378.257L168.644 377.842L168.356 378.853L167.416 382.149L167.413 382.159L167.409 382.17L167.408 382.172C166.003 386.394 164.594 390.628 163.185 394.395C162.277 398.517 162.753 401.628 164.969 404.291L164.978 404.302L164.987 404.314C166.918 406.931 169.982 409.123 173.736 410.967C177.486 412.808 181.887 414.284 186.453 415.486C194.609 417.633 203.234 418.892 209.514 419.809C210.266 419.918 210.985 420.023 211.665 420.124L211.69 420.128L211.713 420.134L213.567 420.598C241.271 424.359 270.388 426.241 298.111 427.652L298.124 427.653C304.229 428.124 310.335 428.477 316.447 428.83L316.449 428.83C322.558 429.183 328.674 429.536 334.79 430.008C347.026 430.95 368.09 433.189 390.923 438.612C413.312 443.929 437.437 452.315 456.61 465.568C456.492 465.139 456.373 464.724 456.254 464.307L456.254 464.304C456.019 463.482 455.782 462.651 455.545 461.701L455.545 461.7C448.301 432.447 428.677 412.658 403.978 400.113C379.27 387.564 349.503 382.276 322.057 382.041H322.04H322.021H322.001H321.982H321.963H321.944H321.924H321.905H321.886H321.866H321.847H321.828H321.809H321.789H321.77H321.751H321.731H321.712H321.693H321.674H321.654H321.635H321.616H321.596H321.577H321.558H321.539H321.519H321.5H321.481H321.462H321.442H321.423H321.404H321.384H321.365H321.346H321.327H321.307H321.288H321.269H321.249H321.23H321.211H321.192H321.172H321.153H321.134H321.114H321.095H321.076H321.057H321.037H321.018H320.999H320.98H320.96H320.941H320.922H320.902H320.883H320.864H320.845H320.825H320.806H320.787H320.767H320.748H320.729H320.71H320.69H320.671H320.652H320.632H320.613H320.594H320.575H320.555H320.536H320.517H320.497H320.478H320.459H320.44H320.42H320.401H320.382H320.363H320.343H320.324H320.305H320.285H320.266H320.247H320.228H320.208H320.189H320.17H320.15H320.131H320.112H320.093H320.073H320.054H320.035H320.015H319.996H319.977H319.958H319.938H319.919H319.9H319.881H319.861H319.842H319.823H319.803H319.784H319.765H319.746H319.726H319.707H319.688H319.668H319.649H319.63H319.611H319.591H319.572H319.553H319.533H319.514H319.495H319.476H319.456H319.437H319.418H319.399H319.379H319.36H319.341H319.321H319.302H319.283H319.264H319.244H319.225H319.206H319.186H319.167H319.148H319.129H319.109H319.09H319.071H319.051H319.032H319.013H318.994H318.974H318.955H318.936H318.917H318.897H318.878H318.859H318.839H318.82H318.801H318.782H318.762H318.743H318.724H318.704H318.685H318.666H318.647H318.627H318.608H318.589H318.569H318.55H318.531H318.512H318.492H318.473H318.454H318.434H318.415H318.396H318.377H318.357H318.338H318.319H318.3H318.28H318.261H318.242H318.222H318.203H318.184H318.165H318.145H318.126H318.107H318.087H318.068H318.049H318.03H318.01H317.991H317.972H317.952H317.933H317.914H317.895H317.875H317.856H317.837H317.818H317.798H317.779H317.76H317.74H317.721H317.702H317.683H317.663H317.644H317.625H317.605H317.586H317.567H317.548H317.528H317.509H317.49H317.47H317.451H317.432H317.413H317.393H317.374H317.355H317.336H317.316H317.297H317.278H317.258H317.239H317.22H317.201H317.181H317.162H317.143H317.123H317.104H317.085H317.066H317.046H317.027H317.008H316.988H316.969H316.95H316.931H316.911H316.892H316.873H316.854H316.834H316.815H316.796H316.776H316.757H316.738H316.719H316.699H316.68H316.661H316.641H316.622H316.603H316.584H316.564H316.545H316.526H316.506H316.487H316.468H316.449H316.429H316.41H316.391H316.372H316.352H316.333H316.314H316.294H316.275H316.256H316.237H316.217H316.198H316.179H316.159H316.14H316.121H316.102H316.082H316.063H316.044H316.024H316.005H315.986H315.967H315.947H315.928H315.909H315.889H315.87H315.851H315.832H315.812H315.793H315.774H315.755H315.735H315.716H315.697H315.677H315.658H315.639H315.62H315.6H315.581H315.562H315.542H315.523H315.504H315.485H315.465H315.446H315.427H315.407H315.388H315.369H315.35H315.33H315.311H315.292H315.273H315.253H315.234H315.215H315.195H315.176H315.157H315.138H315.118H315.099H315.08H315.06H315.041H315.022H315.003H314.983H314.964H314.945H314.925H314.906H314.887H314.868H314.848H314.829H314.81H314.791H314.771H314.752H314.733H314.713H314.694H314.675H314.656H314.636H314.617H314.598H314.578H314.559H314.54H314.521H314.501H314.482H314.463H314.443H314.424H314.405H314.386H314.366H314.347H314.328H314.309H314.289H314.27H314.251H314.231H314.212H314.193H314.174H314.154H314.135H314.116H314.096H314.077H314.058H314.039H314.019H314H313.981H313.961H313.942H313.923H313.904H313.884H313.865H313.846H313.826H313.807H313.788H313.769H313.749H313.73H313.711H313.692H313.672H313.653H313.634H313.614H313.595H313.576H313.557H313.537H313.518H313.499H313.479H313.46H313.441H313.422H313.402H313.383H313.364H313.344H313.325H313.306H313.287H313.267H313.248H313.229H313.21H313.19H313.171H313.152H313.132H313.113H313.094H313.075H313.055H313.036H313.017H312.997H312.978H312.959H312.94H312.92H312.901H312.882H312.862H312.843H312.824H312.805H312.785H312.766H312.747H312.728H312.708H312.689H312.67H312.65H312.631H312.612H312.593H312.573H312.554H312.535H312.515H312.496H312.477H312.458H312.438H312.419H312.4H312.38H312.361H312.342H312.323H312.303H312.284H312.265H312.246H312.226H312.207H312.188C306.364 382.041 300.54 382.411 294.04 382.823C293.217 382.876 292.384 382.928 291.538 382.981C278.378 383.923 264.73 384.866 251.078 384.866C239.076 384.866 224.457 384.159 210.297 380.673C196.141 377.187 182.409 370.915 172.214 359.758L171.752 359.295L171.534 359.076L171.631 358.784L172.494 356.19L171.689 354.981L171.672 354.955L171.658 354.928C171.465 354.54 171.172 354.242 170.812 353.88L170.792 353.861C170.467 353.536 170.087 353.155 169.817 352.649L169.401 352.233Z" stroke="white"/>
<path d="M260.008 438.068H259.996L259.984 438.067C240.252 437.126 203.06 435.242 175.264 427.692L175.253 427.689L175.243 427.686C170.052 426.032 165.786 424.254 162.454 422.347C159.536 420.677 157.315 418.896 155.821 416.995C154.77 420.225 153.807 423.547 152.841 426.878L152.84 426.883C151.785 430.524 150.726 434.177 149.549 437.714C147.235 446.069 148.178 453.414 153.213 459.374L153.213 459.374L153.219 459.381C157.26 464.353 163.494 468.345 171.095 471.565C178.691 474.784 187.616 477.219 196.999 479.098C215.354 482.775 235.398 484.318 250.568 485.485C250.903 485.511 251.236 485.537 251.566 485.562H253.924C256.658 462.778 258.947 446.658 260.359 438.068H260.008Z" stroke="white"/>
<path d="M466.358 505.972C458.437 481.736 434.198 463.454 393.841 451.703C372.56 445.68 350.357 443.31 332.619 441.892C334.106 447.035 336.894 460.471 339.354 472.901C340.647 479.435 341.851 485.704 342.733 490.37C343.174 492.702 343.534 494.634 343.784 495.998C343.909 496.68 344.006 497.221 344.073 497.599C344.092 497.707 344.108 497.803 344.122 497.884C390.102 507.311 438 522.865 471.396 553.009C473.38 554.602 475.035 556.522 476.872 558.73C474.089 541.43 470.443 523.703 466.358 505.972Z" stroke="white"/>
<path d="M514.607 521.782L514.606 521.783C513.979 522.222 513.203 522.727 512.335 523.291C509.869 524.893 506.667 526.975 504.084 529.389C502.344 531.016 500.937 532.75 500.242 534.532C499.556 536.289 499.559 538.098 500.648 539.953L500.651 539.958C502.402 543.028 505.82 544.178 509.552 544.12C513.279 544.063 517.184 542.794 519.691 541.197L519.695 541.194C540.703 528.102 549.972 508.526 545.326 487.583L545.325 487.583L545.323 487.572C541.599 468.92 527.617 452.079 507.965 440.83C506.462 440.019 505.244 439.542 504.349 439.335C503.901 439.231 503.554 439.201 503.304 439.219C503.048 439.239 502.949 439.305 502.921 439.333L502.92 439.334C502.909 439.345 502.872 439.382 502.892 439.526C502.913 439.686 503.002 439.928 503.21 440.258C503.624 440.913 504.428 441.784 505.701 442.828C521.275 455.119 530.779 469.823 532.209 485.065C534.113 499.871 527.421 512.75 514.607 521.782Z" stroke="white"/>
<path d="M62.5951 443.58C63.0372 445.573 64.2592 447.363 65.8327 448.658C67.4088 449.955 69.2978 450.722 71.0384 450.722C72.7348 450.722 74.1096 449.878 74.9652 448.539C75.8257 447.193 76.1658 445.331 75.7211 443.326C75.279 441.333 74.0569 439.543 72.4835 438.248C70.9168 436.959 69.0408 436.194 67.3089 436.185C65.5779 436.41 64.1952 437.275 63.3458 438.551C62.4908 439.836 62.1505 441.576 62.5951 443.58Z" stroke="white"/>
<path d="M271.289 148.514C248.164 148.514 232.533 137.674 223.036 123.038C209.409 120.288 194.842 115.325 185.766 106.821C185.815 121.692 190.472 136.565 198.829 149.597C210.91 163.536 228.106 165.876 237.444 165.876C243.03 165.876 249.092 164.943 254.223 163.543C268.853 158.817 284.416 156.93 299.963 156.93C327.193 156.93 353.036 163.953 373.764 177.083C378.799 173.847 383.382 170.16 387.513 166.023C393.563 159.963 395.273 154.535 393.056 149.642C391.472 146.475 388.221 143.537 383.729 140.913C379.243 138.291 373.569 136.01 367.218 134.134C354.517 130.382 339.17 128.269 325.347 128.269H325.345H325.342H325.339H325.336H325.333H325.331H325.328H325.325H325.322H325.319H325.316H325.313H325.311H325.308H325.305H325.302H325.299H325.296H325.293H325.29H325.287H325.284H325.281H325.278H325.275H325.272H325.269H325.266H325.263H325.26H325.257H325.254H325.251H325.248H325.244H325.241H325.238H325.235H325.232H325.229H325.226H325.222H325.219H325.216H325.213H325.21H325.206H325.203H325.2H325.197H325.193H325.19H325.187H325.183H325.18H325.177H325.173H325.17H325.167H325.163H325.16H325.157H325.153H325.15H325.146H325.143H325.14H325.136H325.133H325.129H325.126H325.122H325.119H325.115H325.112H325.108H325.105H325.101H325.098H325.094H325.091H325.087H325.084H325.08H325.076H325.073H325.069H325.066H325.062H325.058H325.055H325.051H325.047H325.044H325.04H325.036H325.033H325.029H325.025H325.022H325.018H325.014H325.01H325.007H325.003H324.999H324.995H324.991H324.988H324.984H324.98H324.976H324.972H324.969H324.965H324.961H324.957H324.953H324.949H324.945H324.941H324.938H324.934H324.93H324.926H324.922H324.918H324.914H324.91H324.906H324.902H324.898H324.894H324.89H324.886H324.882H324.878H324.874H324.87H324.866H324.862H324.858H324.854H324.85H324.845H324.841H324.837H324.833H324.829H324.825H324.821H324.817H324.812H324.808H324.804H324.8H324.796H324.792H324.787H324.783H324.779H324.775H324.771H324.766H324.762H324.758H324.754H324.749H324.745H324.741H324.737H324.732H324.728H324.724H324.719H324.715H324.711H324.706H324.702H324.698H324.693H324.689H324.685H324.68H324.676H324.671H324.667H324.663H324.658H324.654H324.649H324.645H324.641H324.636H324.632H324.627H324.623H324.618H324.614H324.609H324.605H324.6H324.596H324.591H324.587H324.582H324.578H324.573H324.569H324.564H324.56H324.555H324.55H324.546H324.541H324.537H324.532H324.527H324.523H324.518H324.514H324.509H324.504H324.5H324.495H324.49H324.486H324.481H324.477H324.472H324.467H324.462H324.458H324.453H324.448H324.444H324.439H324.434H324.43H324.425H324.42H324.415H324.411H324.406H324.401H324.396H324.392H324.387H324.382H324.377H324.372H324.368H324.363H324.358H324.353H324.348H324.344H324.339H324.334H324.329H324.324H324.319H324.315H324.31H324.305H324.3H324.295H324.29H324.285H324.28H324.275H324.271H324.266H324.261H324.256H324.251H324.246H324.241H324.236H324.231H324.226H324.221H324.216H324.211H324.206H324.201H324.196H324.192H324.187H324.182H324.177H324.172H324.167H324.162H324.157H324.152H324.146H324.141H324.136H324.131H324.126H324.121H324.116H324.111H324.106H324.101H324.096H324.091H324.086H324.081H324.076H324.071H324.066H324.06H324.055H324.05H324.045H324.04H324.035H324.03H324.025H324.02H324.014H324.009H324.004H323.999H323.994H323.989H323.984H323.978H323.973H323.968H323.963H323.958H323.953H323.947H323.942H323.937H323.932H323.927H323.921H323.916H323.911H323.906H323.901H323.895H323.89H323.885H323.88H323.874H323.869H323.864H323.859H323.853H323.848H323.843H323.838H323.832H323.827H323.822H323.817H323.811H323.806H323.801H323.796H323.79H323.785H323.78H323.774H323.769H323.764H323.759H323.753H323.748H323.743H323.737H323.732H323.727H323.721H323.716H323.711H323.705H323.7H323.695H323.689H323.684H323.679H323.673H323.668H323.663H323.657H323.652H323.647H323.641H323.636H323.63H323.625H323.62H323.614H323.609H323.604H323.598H323.593H323.587H323.582H323.577H323.571H323.566H323.561H323.555H323.55H323.544H323.539H323.533H323.528H323.523H323.517H323.512H323.506H323.501H323.496H323.49H323.485H323.479H323.474H323.468H323.463H323.458H323.452H323.447H323.441H323.436H323.43H323.425H323.42H323.414H323.409H323.403H323.398H323.392H323.387H323.381H323.376H323.37H323.365H323.359H323.354H323.349H323.343H323.338H323.332H323.327H323.321H323.316H323.31H323.305H323.299H323.294H323.288H323.283H323.277H323.272H323.266H323.261H323.255H323.25H323.245H323.239H323.234H323.228H323.223H323.217H323.212H323.206H323.201H323.195H323.19H323.184H323.179H323.173H323.168H323.162H323.157H323.151H323.146H323.14H323.135H323.129H323.124H323.118H323.113H323.107H323.102H323.096H323.091H323.085H323.08H323.074H323.069H323.063H323.058H323.052H323.047H323.041H323.035H323.03H323.024H323.019H323.013H323.008H323.002H322.997H322.989H322.98H322.972H322.964H322.956H322.948H322.939H322.931H322.923H322.915H322.907H322.899H322.89H322.882H322.874H322.866H322.858H322.85H322.842H322.834H322.826H322.818H322.81H322.802H322.794H322.786H322.778H322.77H322.762H322.754H322.746H322.738H322.73H322.722H322.714H322.706H322.698H322.69H322.682H322.675H322.667H322.659H322.651H322.643H322.635H322.628H322.62H322.612H322.604H322.596H322.589H322.581H322.573H322.565H322.558H322.55H322.542H322.534H322.527H322.519H322.511H322.504H322.496H322.488H322.481H322.473H322.465H322.458H322.45H322.442H322.435H322.427H322.42H322.412H322.405H322.397H322.389H322.382H322.374H322.367H322.359H322.352H322.344H322.337H322.329H322.322H322.314H322.307H322.299H322.292H322.284H322.277H322.269H322.262H322.254H322.247H322.24H322.232H322.225H322.217H322.21H322.203H322.195H322.188H322.181H322.173H322.166H322.158H322.151H322.144H322.136H322.129H322.122H322.114H322.107H322.1H322.093H322.085H322.078H322.071H322.063H322.056H322.049H322.042H322.034H322.027H322.02H322.013H322.005H321.998H321.991H321.984H321.977H321.969H321.962H321.955H321.948H321.941H321.934H321.926H321.919H321.912H321.905H321.898H321.891H321.883H321.876H321.869H321.862H321.855H321.848H321.841H321.834H321.826H321.819H321.812H321.805H321.798H321.791H321.784H321.777H321.77H321.763H321.756H321.749H321.741H321.734H321.727H321.72H321.713H321.706H321.699H321.692H321.685H321.678H321.671H321.664H321.657H321.65H321.643H321.636H321.629H321.622H321.615H321.608H321.601H321.594H321.587H321.58H321.573H321.566H321.559H321.552H321.545H321.538H321.531H321.524H321.517H321.51H321.503H321.497H321.49H321.483H321.476H321.469H321.462H321.455H321.448H321.441H321.434H321.427H321.42H321.413H321.406H321.399H321.393H321.386H321.379H321.372H321.365H321.358H321.351H321.344H321.337H321.33H321.323H321.316H321.31H321.303H321.296H321.289H321.282H321.275H321.268H321.261H321.254H321.248H321.241H321.234H321.227H321.22H321.213H321.206H321.199H321.192H321.186H321.179H321.172H321.165H321.158H321.151H321.144H321.137H321.13H321.124H321.117H321.11H321.103H321.096H321.089H321.082H321.075H321.068H321.062H321.055H321.048H321.041H321.034H321.027H321.02H321.013H321.006H321H320.993H320.986H320.979H320.972H320.965H320.958H320.951H320.944H320.937H320.931H320.924H320.917H320.91H320.903H320.896H320.889H320.882H320.875H320.868H320.862H320.855H320.848H320.841H320.834H320.827H320.82H320.813H320.806H320.799H320.792H320.785H320.778H320.771H320.765H320.758H320.751H320.744H320.737H320.73H320.723H320.716H320.709H320.702H320.695H320.688H320.681H320.674H320.667H320.66H320.653H320.646H320.639H320.632H320.625H320.618H320.611H320.604H320.597H320.59H320.583H320.576H320.569H320.562H320.555H320.548H320.541H320.534H320.527H320.52H320.513H320.506H320.499H320.492H320.485H320.478H320.471H320.464H320.456H320.449H320.442H320.435H320.428H320.421H320.414H320.407H320.4H320.393H320.386H320.378H320.371H320.364H320.357H320.35H320.343H320.336H320.328H320.321H320.314H320.307H320.3H320.293H320.285H320.278H320.271H320.264H320.257H320.249H320.242H320.235H320.228H320.221H320.213H320.206H320.199H320.192H320.184H320.177H320.17H320.163H320.155H320.148H320.141H320.133H320.126H320.119H320.111H320.104H320.097H320.09H320.082H320.075H320.067H320.06H320.053H320.045H320.038H320.031H320.023H320.016H320.008H320.001H319.994H319.986H319.979H319.971H319.964H319.956H319.949H319.942H319.934H319.927H319.919H319.912H319.904H319.897H319.889H319.882H319.874H319.867H319.859H319.851H319.844H319.836H319.829H319.821H319.814H319.806H319.798H319.791H319.783H319.776H319.768H319.76H319.753H319.745H319.737H319.73H319.722H319.714H319.707H319.699H319.691H319.683H319.676H319.668H319.66H319.652H319.645H319.637H319.629H319.621H319.614H319.606H319.598H319.59H319.582H319.574H319.567H319.559H319.551H319.543H319.535H319.527H319.519H319.511H319.503H319.495H319.488H319.48H319.472H319.464H319.459C306.659 142.402 288.256 148.514 271.289 148.514Z" stroke="white"/>
<path d="M294.085 21.8654L295.248 21.2384L294.792 22.4781C294.01 24.6029 294.132 26.4381 294.808 27.9415C295.488 29.4541 296.75 30.6746 298.319 31.5167C301.479 33.2117 305.736 33.3015 308.607 31.313C311.917 28.9449 315.155 27.1343 318.544 26.4071C321.951 25.6757 325.475 26.0476 329.332 27.979L329.339 27.9824L329.345 27.986C331.66 29.2343 333.721 30.8238 335.726 32.3701C336.404 32.8931 337.076 33.4112 337.749 33.9095C340.435 35.8977 343.183 37.6097 346.599 38.2939L346.607 38.2954L346.614 38.2972C360.732 41.5965 373.464 45.3729 385.263 51.0456L385.277 51.0521L385.29 51.0593C386.966 51.9921 388.641 52.8499 390.295 53.697C390.719 53.9141 391.142 54.1306 391.563 54.3475C392.796 54.9824 394.012 55.62 395.198 56.2847C374.354 30.8106 338.73 14.8015 299.963 14.8015C282.172 14.8015 265.318 18.0822 249.397 24.176L248.479 24.6358L248.156 24.7974L247.901 24.542L246.961 23.6004C241.842 18.4726 235.338 14.2897 227.921 12.4325L227.907 12.429L227.893 12.4246C220.667 10.163 213.003 10.1026 205.753 12.2435C210.471 20.2624 220.043 26.0878 233.263 27.4578C233.264 27.4579 233.264 27.4579 233.264 27.458L237.963 27.9286L237.972 27.9294L237.98 27.9305C239.504 28.134 240.982 28.3373 242.425 28.5357C247.642 29.2529 252.393 29.9061 257.144 30.2754C260.919 29.3367 264.698 28.8677 268.938 28.8677C275.353 28.8677 281.76 29.7559 287.732 31.0995C287.922 28.1667 289.431 25.9063 290.907 24.3719C291.697 23.5493 292.487 22.9259 293.079 22.5076C293.376 22.2983 293.624 22.1395 293.799 22.0323C293.887 21.9787 293.957 21.9379 294.005 21.9101C294.03 21.8962 294.049 21.8855 294.062 21.878L294.078 21.8693L294.083 21.8667L294.084 21.8659L294.085 21.8656C294.085 21.8655 294.085 21.8654 294.322 22.3055L294.085 21.8654Z" stroke="white"/>
<path d="M235.08 40.5454C230.752 40.0414 226.121 39.1914 221.882 38.3429H218.641H216.992L218.363 37.427L221.079 35.614C221.417 35.0064 221.922 34.5786 222.459 34.2403C213.349 31.7704 202.343 26.6811 195.478 17.3299C191.953 19.588 188.855 22.2707 186.182 25.3783C184.831 29.7243 184.976 33.3175 186.418 36.2071C187.873 39.1208 190.69 41.4065 194.846 43.0257C198.545 44.4145 203.189 45.3487 208.79 45.8176H212.53H213.736L212.884 46.6709L210.534 49.025C209.303 50.2574 209.28 51.9173 209.714 53.222C210.603 55.8938 212.844 58.1599 215.122 59.533C215.955 59.95 216.771 60.3576 217.912 60.7654C221.965 52.3619 227.689 45.6185 235.08 40.5454Z" stroke="white"/>
<path d="M196.448 95.4156L196.449 95.4171C200.901 100.322 207.528 103.967 215.546 106.742C213.346 98.9744 212.046 90.7823 212.502 83.0118L212.503 82.9988L212.505 82.9859L212.507 82.9657C212.957 78.9082 213.411 74.8118 214.287 71.1271C210.898 69.9735 207.62 68.5964 204.93 66.9918C202.15 65.3328 199.934 63.3921 198.925 61.1434C198.184 59.8972 197.919 58.7374 198.05 57.5617C198.179 56.3962 198.692 55.2633 199.41 54.0642L199.442 54.0114L199.486 53.9679C199.927 53.5255 200.26 53.0819 200.614 52.609L200.621 52.5996C200.81 52.348 201.005 52.0879 201.222 51.8237C191.752 50.0027 184.26 46.9754 179.152 43.0849C178.99 51.8845 182.608 59.8344 189.239 66.5367C190.629 66.5823 191.693 67.0854 192.259 68.1515C192.746 68.6732 192.809 69.2144 192.817 69.6501L193.612 70.4465L193.83 70.6649L193.733 70.9577L193.263 72.3701C193.01 73.1285 192.634 73.7569 192.287 74.3355L192.277 74.3525C191.925 74.9407 191.604 75.48 191.388 76.1189C189.559 83.4718 191.388 89.8869 196.448 95.4156Z" stroke="white"/>
<path d="M370.353 94.3549L370.353 94.355L370.346 94.3531C358.329 91.1128 345.398 88.7838 332.899 87.3673C332.873 93.764 332.389 99.739 331.008 105.279C330.325 108.711 330.789 111.765 331.961 114.001C333.133 116.237 334.998 117.638 337.145 117.855C349.372 118.797 362.108 120.213 374.384 123.996L374.387 123.997C378.884 125.419 384.916 127.906 390.362 131.227C395.789 134.535 400.712 138.718 402.893 143.563C403.175 144.13 403.465 144.874 403.657 145.605C406.057 141.365 407.758 137.119 409.467 132.841C409.91 123.357 407.015 115.522 400.62 109.174C394.187 102.789 384.178 97.8754 370.353 94.3549Z" stroke="white"/>
<path d="M254.17 68.4577L254.178 68.4539L254.187 68.4506C257.123 67.3198 258.525 65.6582 259.119 63.765C259.696 61.9278 259.534 59.8058 259.115 57.5916C255.329 56.9924 251.954 54.4876 249.518 51.5827C247.014 48.5973 245.406 45.0725 245.406 42.5513C245.406 41.6645 245.578 40.9455 245.815 40.3145C229.701 48.4155 218.689 63.4665 219.141 80.6745L219.141 80.6745V80.6876C219.141 93.0755 222.878 107.208 231.087 118.171C239.283 129.116 251.945 136.919 269.871 136.686C283.892 136.452 298.805 132.238 309.383 122.69C319.937 113.165 326.242 98.2738 322.973 76.5245L322.972 76.5166L322.971 76.5086C320.246 53.3044 300.189 35.8354 275.335 34.1931C276.934 35.5331 277.901 37.2183 277.901 39.2555C277.901 41.7609 276.423 45.3952 274.047 48.7268C271.714 51.9985 268.446 55.0759 264.67 56.5744C264.172 58.9611 264.392 60.877 265.095 62.3702C265.822 63.9155 267.091 65.06 268.736 65.8142C272.048 67.332 276.841 67.2415 281.466 65.6204L281.467 65.6198C284.478 64.5761 287.236 63.0948 289.842 61.6459C290.09 61.5083 290.336 61.3708 290.582 61.234C292.903 59.9392 295.124 58.7003 297.265 57.9133C299.644 57.0387 301.986 56.6966 304.33 57.4739C306.669 58.2496 308.922 60.1108 311.19 63.4577L311.192 63.4611C316.445 71.3535 318.218 82.0781 316.735 92.1776C315.252 102.276 310.501 111.836 302.601 117.351L302.598 117.353C294.642 122.817 287.399 120.964 279.794 119.018C279.329 118.899 278.863 118.779 278.395 118.661C270.265 116.611 261.501 114.885 250.395 121.606L250.394 121.607C247.876 123.12 245.583 122.864 243.643 121.987C242.076 121.278 240.712 120.147 239.644 119.262C239.42 119.076 239.209 118.901 239.012 118.743L239 118.733L238.988 118.723C228.519 109.19 224.138 94.8024 223.841 83.5846C223.693 77.9811 224.562 73.0986 226.26 69.9802C227.11 68.4187 228.194 67.2524 229.51 66.6989C230.843 66.1384 232.333 66.2402 233.904 67.0557C239.946 69.8461 247.774 71.2031 254.17 68.4577Z" stroke="white"/>
<path d="M292.423 73.5276L292.429 73.4972L292.439 73.4677C292.852 72.2261 292.536 71.3769 291.927 70.8147C291.288 70.2237 290.261 69.8937 289.18 69.8883C287.696 70.0572 286.283 70.5213 284.363 71.1517C283.642 71.3885 282.85 71.6487 281.956 71.9257C278.7 72.9335 274.208 74.1168 267.129 75.0623C257.13 76.5457 251.17 76.2835 247.046 76.1021C245.917 76.0525 244.925 76.0088 244.026 76.0088C242.027 76.0088 241.049 76.6672 240.579 77.4688C240.086 78.3075 240.06 79.4448 240.281 80.5672C240.982 82.9059 241.91 85.5729 242.889 87.5908C243.382 88.6072 243.873 89.4283 244.336 89.9595C244.829 90.5239 245.145 90.6032 245.314 90.5608L245.374 90.5458H245.436C245.56 90.5458 245.721 90.4831 245.921 90.1947C246.124 89.9016 246.312 89.4489 246.483 88.8489C246.824 87.654 247.054 86.0464 247.291 84.388C247.536 82.43 248.158 81.0145 249.265 79.9709C250.357 78.9411 251.867 78.3268 253.773 77.8494C262.758 75.4816 273.145 75.0078 279.77 75.4797C281.346 75.4878 284.39 76.5287 285.403 80.0799C285.876 81.7382 286.337 83.3515 286.851 84.552C287.108 85.1533 287.364 85.6162 287.619 85.9215C287.877 86.2298 288.073 86.3085 288.212 86.3085C288.345 86.3085 288.509 86.2514 288.715 86.065C288.923 85.8756 289.143 85.5787 289.368 85.1698C289.818 84.3525 290.231 83.1901 290.61 81.8468C291.227 79.6606 291.728 77.0872 292.149 74.9264C292.244 74.4357 292.335 73.9664 292.423 73.5276Z" stroke="white"/>
<path d="M252.045 111.346L252.042 111.368L252.038 111.389C251.832 112.422 252.152 113.283 252.691 113.732C253.203 114.16 254.024 114.305 255.051 113.687L255.071 113.675L255.093 113.665C265.128 108.879 273.264 110.326 280.842 112.697L280.842 112.697L280.851 112.7C282.106 113.119 282.921 112.782 283.351 112.222C283.807 111.629 283.94 110.648 283.519 109.593L283.51 109.573L283.504 109.551C282.801 107.205 281.988 104.884 281.126 103.157C280.694 102.292 280.263 101.602 279.843 101.135C279.413 100.656 279.068 100.491 278.812 100.491C278.767 100.491 278.689 100.507 278.567 100.649C278.438 100.798 278.301 101.046 278.162 101.407C277.886 102.126 277.658 103.144 277.422 104.327L277.409 104.392L277.379 104.452L277.372 104.467C277.139 104.934 276.761 105.69 276.187 106.329C275.6 106.982 274.77 107.554 273.641 107.554C270.287 107.554 266.553 107.931 262.407 108.351C261.954 108.397 261.497 108.443 261.034 108.489C259.951 108.749 259.002 108.471 258.271 108.005C257.543 107.541 257.014 106.882 256.741 106.335L256.732 106.317L256.724 106.298C256.272 105.165 255.714 104.277 255.173 103.682C254.609 103.06 254.148 102.846 253.898 102.846C253.86 102.846 253.691 102.88 253.451 103.368C253.23 103.817 253.034 104.488 252.86 105.33C252.537 106.896 252.313 108.921 252.092 110.915C252.077 111.059 252.061 111.203 252.045 111.346Z" stroke="white"/>
<path d="M342.173 48.6913L342.162 48.6889L342.15 48.686C333.243 46.4556 323.475 45.4975 313.653 45.4117C320.586 50.985 325.824 58.5509 328.986 66.5464C329.086 66.5592 329.261 66.5953 329.405 66.7393C329.558 66.8927 329.588 67.0807 329.599 67.1773C329.606 67.2432 329.609 67.3183 329.609 67.3919C331.446 71.2604 333.718 73.7386 336.474 75.3727C339.265 77.0266 342.59 77.8394 346.555 78.307C359.022 79.4852 373.284 81.4903 385.793 85.6272C397.603 89.533 407.933 95.3657 413.673 104.277C413.57 99.6581 413.063 94.7753 411.838 90.2637C407.429 79.3685 397.095 70.3865 384.28 63.4121C371.466 56.4381 356.239 51.5088 342.173 48.6913Z" stroke="white"/>
</svg>
