<svg width="1440" height="587" viewBox="0 0 1440 587" fill="none" xmlns="http://www.w3.org/2000/svg">
<g opacity="0.2">
<path d="M1379.67 498.05C1378.07 495.314 1376.92 492.349 1375.78 489.384C1373.27 482.313 1371.44 474.787 1370.07 467.488L1379.67 498.05ZM1379.67 498.05C1380.35 499.419 1381.27 500.787 1382.18 502.156L1379.67 498.05ZM1361.41 416.97L1361.41 416.968C1354.35 387.179 1336.86 355.32 1303.96 336.484C1326.52 316.629 1346.85 295.883 1364.72 274.465C1365.11 274.629 1365.51 274.764 1365.89 274.89L1365.91 274.896C1366.43 275.069 1366.91 275.23 1367.33 275.439L1367.44 275.492L1367.53 275.492C1367.53 275.493 1367.54 275.494 1367.54 275.495C1367.57 275.502 1367.61 275.515 1367.67 275.535C1367.78 275.573 1367.91 275.626 1368.05 275.684L1368.06 275.687C1368.2 275.742 1368.35 275.802 1368.48 275.848C1368.55 275.872 1368.62 275.894 1368.68 275.912C1368.72 275.921 1368.77 275.933 1368.82 275.94C1369.44 276.15 1369.86 276.359 1370.3 276.579C1370.98 276.917 1371.6 277.255 1372.23 277.598L1372.23 277.599C1372.86 277.94 1373.49 278.286 1374.19 278.632L1374.87 278.974L1375.54 279.308L1376.67 279.982L1376.68 279.992L1376.7 280.001C1377.36 280.329 1377.97 280.714 1378.56 281.11C1378.71 281.207 1378.85 281.305 1379 281.403C1379.44 281.698 1379.87 281.993 1380.31 282.254C1382.58 283.838 1384.61 285.42 1386.42 287L1386.44 287.013L1386.45 287.024C1387.82 288.049 1389.05 289.327 1390.08 290.396C1390.39 290.725 1390.69 291.035 1390.97 291.311C1392.99 293.327 1394.56 295.571 1396.17 297.855C1402.74 307.588 1406.38 318.464 1408.43 329.138C1410.48 340.269 1410.93 351.637 1410.93 362.801C1410.93 375.568 1410.7 388.336 1410.48 401.109L1410.48 401.109C1410.02 427.569 1409.79 454.028 1409.56 480.484L1409.56 480.489C1409.56 482.157 1409.54 483.845 1409.52 485.544C1409.4 495.402 1409.28 505.678 1413.02 515.112L1413.03 515.114C1414.22 518.086 1415.59 521.245 1417.43 524.433L1414.86 523.151C1411.89 521.555 1408.94 519.966 1405.98 518.151L1405.97 518.144L1405.96 518.138C1403.47 516.782 1401.21 515.43 1398.95 513.856C1398.8 513.713 1398.56 513.537 1398.38 513.409C1398.28 513.335 1398.18 513.269 1398.11 513.222C1398.08 513.198 1398.05 513.178 1398.03 513.165L1398.01 513.149L1398 513.145L1398 513.144L1398 513.144L1398 513.143L1398 513.143L1397.72 513.56L1398 513.143L1395.94 511.775C1395.26 511.325 1394.64 510.875 1394.01 510.418L1394.01 510.415C1393.38 509.961 1392.75 509.5 1392.06 509.038L1392.06 509.038L1392.05 509.033C1388.88 507.001 1385.94 504.742 1382.97 502.467C1382.93 502.422 1382.91 502.373 1382.86 502.274L1382.85 502.264C1382.8 502.158 1382.72 502 1382.57 501.841C1381.66 500.48 1380.78 499.15 1380.11 497.826L1380.11 497.812L1380.1 497.798C1378.52 495.104 1377.39 492.179 1376.25 489.21C1373.75 482.173 1371.93 474.676 1370.56 467.396L1370.56 467.394C1369.32 460.929 1368.24 454.375 1367.17 447.798C1365.48 437.494 1363.78 427.133 1361.41 416.97Z" stroke="white"/>
<path d="M4.6544 427.868L4.63709 427.854L4.61862 427.842C3.33255 426.986 2.04164 425.922 0.72802 424.83L0.72802 413.76C16.3088 425.617 33.4316 436.148 51.8781 445.353C81.1706 460.654 113.658 472.298 147.506 481.199C182.026 490.325 218.14 495.802 254.707 498.315C314.074 521.164 379.272 538.187 448.408 548.966C414.971 549.444 381.558 548.499 348.552 546.131C280.701 541.115 213.561 530.629 151.915 508.754C96.429 488.929 46.4295 461.357 4.6544 427.868Z" stroke="white"/>
<path d="M1375.03 510.772L1375.04 510.773C1386.93 519.222 1399.52 527.218 1413.26 534.301L1413.27 534.307L1413.28 534.313C1420.38 537.511 1427.71 540.485 1435.28 542.774L1435.29 542.777C1436.09 543.003 1436.82 543.23 1437.57 543.458C1438.2 543.651 1438.83 543.846 1439.5 544.041L1439.5 555.351C1433.79 554.018 1428.29 552.474 1422.79 550.716C1412.07 547.074 1402.26 542.978 1392.69 538.199C1378.36 531.052 1365.21 522.984 1351.87 514.802C1346.5 511.508 1341.1 508.196 1335.59 504.918C1315.24 492.825 1294.18 481.175 1270.83 472.492L1270.83 472.491C1244.02 462.66 1214.71 458.319 1184.94 459.004C1119.93 460.375 1061.8 483.449 1008.31 508.544C1000.5 512.197 992.704 515.877 984.909 519.558C938.666 541.394 892.427 563.229 842.005 579.222C835.172 581.268 828.341 583.313 821.284 585.359L180.528 586.27C171.203 576.513 161.641 566.749 151.398 557.435C120.292 528.902 85.2992 502.882 46.6506 479.603L46.6482 479.601C35.8991 473.21 25.1515 467.277 13.9495 461.345L13.9486 461.344C9.47282 458.888 4.98727 456.425 0.499993 454.177L0.499992 437.717C13.7667 447.986 27.9016 457.594 42.4732 466.544C67.409 482.069 94.1733 495.538 122.765 506.952C184.069 531.607 251.765 545.299 320.584 552.372L320.585 552.373C384.356 558.76 448.817 560.814 513.053 556.938C622.558 567.429 739.602 562.408 857.33 539.594C983.932 515.191 1096.38 472.777 1188.74 418.499C1195.76 418.728 1202.55 419.184 1209.79 420.313L1209.79 420.314C1212.99 420.77 1215.95 421.224 1219.13 421.904L1219.18 421.915L1219.23 421.915C1219.23 421.915 1219.25 421.917 1219.31 421.933C1219.37 421.95 1219.45 421.974 1219.53 422.004C1219.58 422.018 1219.62 422.033 1219.67 422.048C1219.72 422.063 1219.76 422.077 1219.81 422.09C1219.88 422.108 1219.96 422.129 1220.05 422.138C1220.41 422.251 1220.77 422.31 1221.08 422.362L1221.1 422.365C1221.44 422.423 1221.75 422.474 1222.05 422.574L1222.07 422.58L1222.08 422.585C1223.92 423.042 1225.98 423.499 1228.03 423.955L1228.04 423.956L1228.05 423.958C1231.46 424.638 1234.64 425.545 1237.84 426.458L1237.85 426.46L1237.85 426.462L1240.46 427.113C1240.48 427.131 1240.5 427.149 1240.52 427.165C1240.57 427.209 1240.64 427.264 1240.72 427.308C1240.81 427.354 1240.91 427.374 1240.99 427.383C1241 427.395 1241.02 427.407 1241.04 427.419C1241.14 427.483 1241.31 427.583 1241.52 427.61C1242.42 427.945 1243.26 428.225 1244.1 428.503L1244.1 428.504C1244.96 428.789 1245.81 429.072 1246.71 429.41L1246.72 429.413C1249.92 430.553 1253.11 431.69 1256.07 432.826C1256.87 433.17 1257.73 433.513 1258.59 433.854C1259.44 434.194 1260.29 434.532 1261.08 434.87C1261.54 435.102 1261.95 435.276 1262.35 435.446C1262.75 435.617 1263.13 435.783 1263.58 436.003L1263.68 436.056L1263.77 436.056C1263.78 436.058 1263.79 436.061 1263.81 436.066C1263.86 436.081 1263.93 436.105 1264.02 436.137C1264.2 436.201 1264.43 436.291 1264.67 436.389C1265.15 436.587 1265.65 436.81 1265.86 436.916C1266.11 437.042 1266.42 437.163 1266.65 437.25C1266.77 437.295 1266.87 437.331 1266.95 437.357L1267.04 437.387C1267.49 437.615 1267.9 437.787 1268.29 437.954C1268.69 438.126 1269.08 438.292 1269.52 438.512L1269.53 438.519L1269.54 438.525C1270.33 438.86 1271.12 439.252 1271.92 439.653L1271.93 439.657C1272.72 440.051 1273.52 440.453 1274.33 440.8C1277.53 442.395 1280.71 443.986 1283.67 445.576L1283.69 445.583L1283.7 445.589C1286.64 446.944 1289.36 448.526 1292.1 450.122C1292.8 450.582 1293.49 450.985 1294.16 451.379L1294.17 451.383C1294.86 451.783 1295.53 452.175 1296.2 452.622L1296.33 452.706L1296.43 452.706C1296.43 452.708 1296.44 452.712 1296.45 452.716C1296.47 452.728 1296.49 452.741 1296.52 452.757C1296.56 452.782 1296.6 452.813 1296.66 452.85C1296.74 452.904 1296.85 452.974 1296.95 453.03C1297.01 453.063 1297.11 453.117 1297.24 453.145C1297.63 453.346 1297.98 453.595 1298.36 453.867L1298.37 453.877C1298.76 454.152 1299.18 454.452 1299.66 454.696C1305.59 458.334 1311.29 462.201 1316.76 466.07L1316.76 466.073C1326.92 473.132 1336.45 480.706 1345.96 488.318L1347.48 489.536C1356.48 496.742 1365.5 503.961 1375.03 510.772Z" stroke="white"/>
<path d="M1253.39 545.616L1253.41 545.636L1253.43 545.654C1266.91 556.328 1277.78 567.803 1289.08 579.733C1289.82 580.519 1290.57 581.308 1291.32 582.098L1291.32 582.098L1291.33 582.108C1291.89 582.668 1292.45 583.286 1293.03 583.915L1293.03 583.92C1293.33 584.248 1293.63 584.579 1293.93 584.903L1227.47 584.903C1223.85 580.624 1219.99 576.336 1215.69 572.49C1208.81 566.085 1201.48 560.367 1193.23 554.881C1184.27 548.92 1172.97 543.847 1160.26 544.078L1160.26 544.078C1149.21 544.307 1138.18 547.522 1128.35 550.946C1119.18 553.92 1110.24 557.808 1101.99 562.152C1089.22 568.756 1077.81 576.491 1067.09 584.903L984.074 584.68C988.796 581.902 993.489 579.105 998.178 576.31C1018.82 564.007 1039.38 551.752 1061.98 541.383C1104 522.241 1158.48 507.247 1207.22 520.883L1207.22 520.884C1216.31 523.379 1224.96 527.239 1232.94 531.561L1232.94 531.565L1232.95 531.569C1233.16 531.671 1233.71 531.999 1234.23 532.318C1234.49 532.474 1234.73 532.623 1234.91 532.733C1234.99 532.788 1235.07 532.833 1235.12 532.865L1235.18 532.901L1235.18 532.906L1235.19 532.911L1235.2 532.913L1235.2 532.914L1235.2 532.914L1236.21 533.59L1237.24 534.274L1237.26 534.286L1237.28 534.295C1239.31 535.422 1241.34 536.776 1243.4 538.144C1244.32 538.831 1245.24 539.46 1246.14 540.083L1246.15 540.086C1247.06 540.714 1247.97 541.336 1248.87 542.013L1248.91 542.04L1248.95 542.06C1249.02 542.094 1249.13 542.168 1249.28 542.287C1249.43 542.401 1249.59 542.537 1249.77 542.681L1249.77 542.684C1249.94 542.824 1250.12 542.972 1250.28 543.099C1250.42 543.204 1250.57 543.311 1250.71 543.39C1250.86 543.535 1251.13 543.749 1251.35 543.918C1251.48 544.019 1251.61 544.113 1251.7 544.181L1251.8 544.263L1251.82 544.273C1252.06 544.512 1252.35 544.745 1252.62 544.958L1252.63 544.968C1252.92 545.201 1253.19 545.411 1253.39 545.616Z" stroke="white"/>
<path d="M117.404 463.823L117.404 463.823L117.396 463.82C101.645 458.58 87.9501 453.113 74.0256 446.735C46.9429 434.243 22.3608 419.035 0.956538 401.564L0.956537 383.94C19.2736 399.196 39.3737 412.898 61.6934 425.048L61.6936 425.049C99.8906 445.821 143.566 460.885 189.293 469.79C202.042 476.15 215.185 482.116 228.719 487.87C206.568 485.575 184.834 482.029 163.516 477.036L163.51 477.035C155.332 475.221 147.604 473.181 139.649 470.914C139.619 470.89 139.582 470.862 139.54 470.835C139.429 470.761 139.213 470.637 138.949 470.637C138.795 470.637 138.624 470.598 138.429 470.542C138.402 470.534 138.373 470.526 138.342 470.517C138.276 470.497 138.204 470.476 138.143 470.461C138.074 470.443 137.98 470.42 137.881 470.412C137.458 470.304 136.979 470.145 136.479 469.978L136.467 469.974C135.968 469.808 135.446 469.635 134.975 469.516C133.945 469.174 132.972 468.888 132.008 468.605L132.005 468.604C131.034 468.319 130.072 468.037 129.055 467.699C127.108 467.013 125.162 466.384 123.222 465.758L123.219 465.757C121.276 465.13 119.339 464.505 117.404 463.823Z" stroke="white"/>
<path d="M0.732353 463.544C10.077 468.662 19.41 473.991 28.3089 479.32C46.5795 490.488 63.7072 501.884 80.606 514.19C110.649 536.509 137.563 560.61 161.568 586.274L1.18448 586.499L0.732353 463.544Z" stroke="white"/>
<path d="M991.826 532.258C950.054 551.876 907.389 570.85 861.921 585.124L957.884 584.904C966.667 579.816 975.327 574.583 983.993 569.348C1011.77 552.566 1039.59 535.755 1071.65 523.584L1071.65 523.583C1094.76 514.905 1119.95 508.047 1146.07 506.446C1171.73 504.617 1197.86 508.046 1220.56 517.201C1256.29 531.291 1280.23 555.745 1303.5 579.508C1305.12 581.159 1306.73 582.806 1308.34 584.447L1439.5 584.22L1439.5 565.277C1402.21 556.842 1371.41 537.748 1341.66 519.305C1334.09 514.616 1326.6 509.97 1319.08 505.552L1319.08 505.551C1300.58 494.613 1281.2 484.601 1258.86 478.003C1229.92 469.588 1198.22 468.446 1167.64 471.862C1105.88 478.782 1052.15 503.979 1000.1 528.382C997.337 529.677 994.58 530.97 991.826 532.258ZM991.826 532.258C991.826 532.258 991.825 532.258 991.825 532.258L991.613 531.806L991.826 532.258Z" stroke="white"/>
<path d="M1342.61 413.314L1342.61 413.318C1344.94 423.475 1346.43 433.793 1347.91 444.084C1348.76 449.958 1349.61 455.822 1350.61 461.643L1350.61 461.644C1351.67 467.769 1352.92 473.899 1354.55 480.033C1347.38 474.219 1340 468.609 1332.42 463.204L1332.42 463.203C1296.61 437.869 1252.7 416.329 1203.79 409.703C1237.73 388.984 1268.78 366.498 1296.51 342.681C1297.19 343.163 1297.84 343.609 1298.48 344.052L1298.48 344.054C1299.22 344.568 1299.96 345.079 1300.76 345.647C1308.71 351.314 1315.76 358.574 1321.22 365.837C1332.14 380.6 1338.97 396.727 1342.61 413.314Z" stroke="white"/>
<path d="M78.1639 422.799L78.1611 422.798C56.253 411.41 35.714 397.745 17.458 382.714L17.4539 382.711C11.5829 377.978 6.15631 373.02 0.727553 367.832L0.506988 319.626C39.691 372.441 94.8034 418.024 161.55 455.104C159.401 454.554 157.67 454.067 155.548 453.471C154.647 453.218 153.675 452.945 152.571 452.639C125.632 444.664 101.897 435.325 78.1639 422.799Z" stroke="white"/>
<path d="M1365.43 100.039L1365.44 100.042C1387.07 107.737 1398.39 121.834 1403.09 138.695C1407.78 155.523 1405.87 175.065 1401.18 193.69L1401.16 193.755L1401.13 193.814C1399.35 196.958 1397.91 199.201 1396.72 200.7C1396.13 201.45 1395.59 202.026 1395.09 202.438C1394.6 202.846 1394.12 203.118 1393.65 203.213C1393.16 203.313 1392.7 203.211 1392.32 202.936C1391.95 202.675 1391.67 202.278 1391.44 201.823C1390.98 200.918 1390.66 199.614 1390.37 198.139C1390.19 197.186 1390.02 196.152 1389.84 195.076C1389.46 192.755 1389.04 190.236 1388.38 187.898C1387.42 184.465 1385.98 181.664 1383.57 180.567C1380.01 178.948 1375.7 180.102 1374.04 183.795C1372.36 187.519 1373.23 194.094 1380.74 203.52C1386.94 211.227 1387.08 221.911 1384.81 232.305C1382.54 242.717 1377.83 252.969 1374.17 259.941C1374.17 259.942 1374.17 259.942 1374.17 259.943L1373.72 259.71C1371.39 264.196 1369.62 267.129 1368.97 268.176L1365.43 100.039ZM1365.43 100.039L1365.42 100.037L1365.42 100.037L1365.42 100.035L1365.4 100.03L1365.33 100.008C1365.27 99.9879 1365.19 99.9578 1365.07 99.9172C1364.84 99.836 1364.5 99.7134 1364.06 99.5486C1363.2 99.2191 1361.98 98.7213 1360.55 98.0501C1357.68 96.7064 1353.97 94.6743 1350.62 91.9158C1347.26 89.1557 1344.27 85.6909 1342.79 81.4877C1341.32 77.3005 1341.32 72.3322 1344.01 66.5112C1345.35 63.609 1347.02 61.5859 1348.89 60.2663C1350.77 58.9481 1352.88 58.3127 1355.16 58.2267C1359.73 58.0542 1364.96 60.1026 1370.12 63.3049C1375.26 66.4995 1380.26 70.8042 1384.37 75.0519C1388.48 79.3051 1391.65 83.4705 1393.16 86.3748L1393.17 86.3857C1394.21 88.2653 1395.55 91.3497 1397.19 95.1175C1397.97 96.9015 1398.81 98.8387 1399.72 100.874C1402.54 107.18 1405.98 114.376 1409.95 120.679C1413.92 126.97 1418.47 132.434 1423.54 135.206C1426.09 136.597 1428.78 137.316 1431.6 137.108C1434.16 136.919 1436.79 135.969 1439.48 134.117M1365.43 100.039L1439.48 134.117M1438.17 532.718L1438.52 532.364C1438.35 532.187 1438.21 531.957 1438.03 531.662L1438.02 531.641C1437.86 531.385 1437.68 531.076 1437.43 530.814M1438.17 532.718L1426.97 482.541L1427.47 482.541C1427.47 482.542 1427.47 482.543 1427.47 482.543C1427.47 484.336 1427.45 486.132 1427.44 487.929C1427.34 496.918 1427.25 505.936 1429.51 514.804L1429.51 514.806C1430.64 519.285 1433.11 523.785 1435.62 528.119M1438.17 532.718C1437.94 532.49 1437.77 532.204 1437.6 531.919C1437.43 531.634 1437.26 531.349 1437.03 531.121M1438.17 532.718L1439.09 533.63L1439.5 534.043L1439.5 533.334M1438.17 532.718L1438.52 532.364L1438.52 532.364L1438.52 532.364L1438.53 532.366L1438.53 532.371L1438.55 532.394L1438.63 532.474L1438.9 532.734L1439.44 533.276L1439.5 533.334M1438.17 532.718L1439.48 134.117M1437.43 530.814C1436.95 530.024 1436.46 529.33 1436.07 528.764C1435.9 528.525 1435.75 528.31 1435.62 528.119M1437.43 530.814C1437.41 530.798 1437.4 530.783 1437.38 530.767L1437.03 531.121M1437.43 530.814C1437.44 530.83 1437.45 530.847 1437.46 530.864L1437.03 531.121M1435.62 528.119C1435.62 528.115 1435.62 528.111 1435.62 528.106L1435.2 528.384L1435.63 528.133C1435.63 528.129 1435.63 528.124 1435.62 528.119ZM1424.03 330.303C1421.5 319.066 1416.91 308.286 1409.78 298.195L1409.78 298.192C1402.87 288.54 1393.21 280.511 1381.51 274.097L1381.5 274.093C1377.76 272.119 1373.61 270.145 1369.43 268.373L1424.03 330.303ZM1424.03 330.303C1424.03 330.302 1424.03 330.302 1424.03 330.301L1423.54 330.414L1424.03 330.304C1424.03 330.304 1424.03 330.303 1424.03 330.303ZM1437.03 531.121L1393.61 86.144C1394.66 88.0448 1396.02 91.166 1397.67 94.9513C1405.64 113.261 1420.39 147.105 1439.49 133.499L1439.48 134.117M1439.5 533.334L1439.98 533.814L1440 533.814L1439.09 160.725L1439.54 159.813L1439.99 133.758C1439.82 133.881 1439.65 134.001 1439.48 134.117M1439.5 533.334L1438.59 160.726L1438.58 160.607L1438.64 160.501L1439.04 159.69L1439.48 134.117M1439.79 534.298V534.298V534.298ZM1439.79 534.298C1439.78 534.304 1439.78 534.309 1439.78 534.314L1439.79 534.298ZM1439.77 533.911C1439.71 533.949 1439.64 534.011 1439.57 534.109L1439.77 533.911Z" stroke="white"/>
<path d="M1368.14 3.24962L1368.14 3.24972L1368.14 3.2409C1370.29 0.989206 1373.43 0.157257 1376.83 0.625597C1380.22 1.09423 1383.84 2.86467 1386.86 5.76507C1392.92 11.5828 1393.89 19.9161 1389.37 24.4328C1384.85 28.73 1376.71 27.7511 1370.64 21.9217C1364.59 16.1021 1363.61 7.76533 1368.14 3.24962Z" stroke="white"/>
</g>
</svg>
