<svg width="232" height="30" viewBox="0 0 232 30" fill="none" xmlns="http://www.w3.org/2000/svg">
<path d="M26.7075 0H22.1436C21.721 0 21.3829 0.260148 21.3829 0.693729L19.8616 18.1237H19.6926L16.1428 0.693729C16.0583 0.260148 15.8048 0 15.3822 0H12.086C11.6634 0 11.4099 0.260148 11.3253 0.693729L7.60657 18.1237H7.43753L6.08525 0.693729C6.00074 0.260148 5.74718 0 5.24008 0H0.676139C0.253552 0 0 0.260148 0 0.780445L2.95811 29.0499C2.95811 29.5702 3.21166 29.7436 3.71877 29.7436H9.04336C9.46595 29.7436 9.7195 29.4835 9.80402 29.1366L13.6073 12.3137L17.4106 29.1366C17.4951 29.5702 17.7487 29.8303 18.1712 29.8303H23.4113C23.9184 29.8303 24.172 29.5702 24.172 29.1366L27.2991 0.867161C27.4682 0.260148 27.2146 0 26.7075 0Z" fill="url(#paint0_linear)"/>
<path d="M36.1733 0H31.2713C30.8487 0 30.6797 0.260148 30.6797 0.607013V29.1366C30.6797 29.4835 30.8487 29.7436 31.2713 29.7436H36.1733C36.5114 29.7436 36.7649 29.4835 36.7649 29.1366V0.607013C36.7649 0.260148 36.5114 0 36.1733 0Z" fill="url(#paint1_linear)"/>
<path d="M55.1054 24.8008H46.4847V0.607013C46.4847 0.260148 46.2311 0 45.893 0H40.991C40.653 0 40.3994 0.260148 40.3994 0.607013V29.1366C40.3994 29.5702 40.653 29.7436 40.991 29.7436H55.1054C55.528 29.7436 55.6971 29.5702 55.6971 29.1366V25.4078C55.6126 25.061 55.4435 24.8008 55.1054 24.8008Z" fill="url(#paint2_linear)"/>
<path d="M70.2344 0H59.2471C58.8245 0 58.6555 0.260148 58.6555 0.607013V29.1366C58.6555 29.5702 58.8245 29.7436 59.2471 29.7436H70.2344C73.6151 29.7436 75.4745 27.9226 75.4745 24.3672V5.3764C75.4745 1.90775 73.6996 0 70.2344 0ZM69.5583 23.3266C69.5583 24.3672 69.0512 24.8008 68.1215 24.8008H64.8253V4.8561H68.1215C69.0512 4.8561 69.5583 5.3764 69.5583 6.41699V23.3266Z" fill="url(#paint3_linear)"/>
<path d="M96.3501 0H90.0113C86.6306 0 84.7712 1.82104 84.7712 5.3764V24.3672C84.7712 27.8359 86.6306 29.7436 90.0113 29.7436H96.3501C99.7308 29.7436 101.59 27.9226 101.59 24.3672V20.3783C101.59 20.0314 101.337 19.7713 100.999 19.7713H96.2656C95.843 19.7713 95.674 20.0314 95.674 20.3783V23.3266C95.674 24.3672 95.1669 24.8008 94.2372 24.8008H92.3778C91.4481 24.8008 90.941 24.2805 90.941 23.3266V6.41699C90.941 5.46312 91.4481 4.94282 92.3778 4.94282H94.2372C95.1669 4.94282 95.674 5.46312 95.674 6.41699V9.36534C95.674 9.71221 95.843 9.97235 96.2656 9.97235H100.999C101.337 9.97235 101.59 9.71221 101.59 9.36534V5.3764C101.506 1.82104 99.7308 0 96.3501 0Z" fill="url(#paint4_linear)"/>
<path d="M118.493 0.520297C118.409 0.173432 118.24 0 117.902 0H110.549C110.211 0 110.042 0.173432 109.957 0.520297L103.956 29.1366C103.872 29.5702 104.041 29.7436 104.464 29.7436H109.45C109.788 29.7436 109.957 29.5702 110.042 29.2233L111.056 23.7602H117.479L118.493 29.2233C118.578 29.5702 118.747 29.7436 119.085 29.7436H124.072C124.494 29.7436 124.663 29.4835 124.579 29.1366L118.493 0.520297ZM111.901 19.5111L114.183 6.50371L116.465 19.5111H111.901Z" fill="url(#paint5_linear)"/>
<path d="M138.777 0H127.79C127.452 0 127.198 0.260148 127.198 0.607013V29.1366C127.198 29.4835 127.452 29.7436 127.79 29.7436H132.692C133.115 29.7436 133.284 29.4835 133.284 29.1366V19.7713H138.777C142.158 19.7713 144.017 17.8635 144.017 14.3949V5.3764C143.933 1.82104 142.158 0 138.777 0ZM137.932 13.3543C137.932 14.3082 137.425 14.8285 136.495 14.8285H133.284V4.94282H136.495C137.51 4.94282 137.932 5.46312 137.932 6.41699V13.3543Z" fill="url(#paint6_linear)"/>
<path d="M161.598 0H147.061C146.723 0 146.469 0.260148 146.469 0.607013V4.33581C146.469 4.68267 146.723 4.94282 147.061 4.94282H151.286V29.1366C151.286 29.5702 151.54 29.7436 151.878 29.7436H156.78C157.203 29.7436 157.372 29.5702 157.372 29.1366V4.94282H161.598C162.02 4.94282 162.189 4.68267 162.189 4.33581V0.607013C162.189 0.260148 161.936 0 161.598 0Z" fill="url(#paint7_linear)"/>
<path d="M181.121 0H176.641C176.219 0 175.881 0.346864 175.881 0.780445V23.4134C175.881 24.4539 175.374 24.8875 174.444 24.8875H172.585C171.655 24.8875 171.148 24.3672 171.148 23.4134V0.780445C171.148 0.346864 170.81 0 170.387 0H165.739C165.316 0 164.978 0.346864 164.978 0.780445V24.4539C164.978 27.9226 166.753 29.8303 170.218 29.8303H176.557C179.938 29.8303 181.797 28.0093 181.797 24.4539V0.780445C181.797 0.346864 181.543 0 181.121 0Z" fill="url(#paint8_linear)"/>
<path d="M196.841 0H185.431C185.093 0 184.839 0.260148 184.839 0.607013V29.1366C184.839 29.4835 185.093 29.7436 185.431 29.7436H190.333C190.671 29.7436 190.925 29.4835 190.925 29.1366V19.7713H193.46L195.911 29.2233C195.996 29.5702 196.165 29.7436 196.503 29.7436H201.405C201.827 29.7436 201.996 29.4835 201.912 29.0499L199.376 19.3377C201.151 18.5573 201.996 16.9096 201.996 14.3949V5.3764C202.081 1.82104 200.222 0 196.841 0ZM195.996 13.3543C195.996 14.3082 195.489 14.8285 194.559 14.8285H191.009V4.94282H194.559C195.489 4.94282 195.996 5.46312 195.996 6.41699V13.3543Z" fill="url(#paint9_linear)"/>
<path d="M231.662 22.6329C231.408 22.6329 230.648 22.8931 229.887 23.1532C228.957 23.4134 227.774 23.8469 226.675 24.0204C225.999 24.1938 225.492 24.1938 224.985 24.1938C223.971 24.1938 223.548 23.9337 223.379 23.6735C223.21 23.4134 223.21 23.1532 223.295 22.8063C223.717 21.5056 226.422 19.5978 227.859 18.9908C228.788 18.644 229.38 18.2971 229.465 17.9502C229.465 17.8635 229.465 17.6901 229.38 17.6034C229.296 17.5167 229.296 17.5167 229.126 17.5167C227.943 17.5167 224.478 20.465 222.534 22.1126C221.604 22.8931 220.506 23.5001 218.984 24.1071C218.139 24.4539 217.21 24.8008 216.364 24.8008C216.195 24.8008 216.111 24.8008 216.026 24.8008C215.688 24.7141 215.435 24.6274 215.266 24.3672C214.674 23.4134 215.857 22.8063 216.28 22.5462C216.871 22.1993 217.21 21.7657 217.125 21.4189C217.04 21.1587 216.871 20.9853 216.533 20.9853C215.942 20.8986 215.35 21.5056 214.759 22.1126C214.589 22.286 214.336 22.5462 214.167 22.6329C213.322 23.3266 212.223 23.9337 211.04 24.4539V17.3432H217.97C218.308 17.3432 218.562 17.0831 218.562 16.7362V13.0074C218.562 12.5738 218.308 12.4004 217.97 12.4004H211.04V4.94282H220.083C220.506 4.94282 220.675 4.68267 220.675 4.33581V0.607013C220.675 0.260148 220.506 0 220.083 0H205.631C205.293 0 205.124 0.260148 205.124 0.607013V29.1366C205.124 29.4835 205.377 29.7436 205.631 29.7436H220.083C220.506 29.7436 220.675 29.4835 220.675 29.1366V27.4023C220.675 26.6219 221.097 25.9281 221.858 25.5813H221.943C223.126 25.061 230.563 23.4134 231.408 23.3266C231.831 23.3266 232 23.0665 232 22.8931C232 22.8063 231.831 22.6329 231.662 22.6329Z" fill="url(#paint10_linear)"/>
<g opacity="0.25">
<path opacity="0.25" d="M26.7075 0H22.1436C21.721 0 21.3829 0.260148 21.3829 0.693729L19.8616 18.1237H19.6926L16.1428 0.693729C16.0583 0.260148 15.8048 0 15.3822 0H12.086C11.6634 0 11.4099 0.260148 11.3253 0.693729L7.60657 18.1237H7.43753L6.08525 0.693729C6.00074 0.260148 5.74718 0 5.24008 0H0.676139C0.253552 0 0 0.260148 0 0.780445L2.95811 29.0499C2.95811 29.5702 3.21166 29.7436 3.71877 29.7436H9.04336C9.46595 29.7436 9.7195 29.4835 9.80402 29.1366L13.6073 12.3137L17.4106 29.1366C17.4951 29.5702 17.7487 29.8303 18.1712 29.8303H23.4113C23.9184 29.8303 24.172 29.5702 24.172 29.1366L27.2991 0.867161C27.4682 0.260148 27.2146 0 26.7075 0Z" fill="white"/>
<path opacity="0.25" d="M36.1733 0H31.2713C30.8487 0 30.6797 0.260148 30.6797 0.607013V29.1366C30.6797 29.4835 30.8487 29.7436 31.2713 29.7436H36.1733C36.5114 29.7436 36.7649 29.4835 36.7649 29.1366V0.607013C36.7649 0.260148 36.5114 0 36.1733 0Z" fill="white"/>
<path opacity="0.25" d="M55.1054 24.8008H46.4847V0.607013C46.4847 0.260148 46.2311 0 45.893 0H40.991C40.653 0 40.3994 0.260148 40.3994 0.607013V29.1366C40.3994 29.5702 40.653 29.7436 40.991 29.7436H55.1054C55.528 29.7436 55.6971 29.5702 55.6971 29.1366V25.4078C55.6126 25.061 55.4435 24.8008 55.1054 24.8008Z" fill="white"/>
<path opacity="0.25" d="M70.2344 0H59.2471C58.8245 0 58.6555 0.260148 58.6555 0.607013V29.1366C58.6555 29.5702 58.8245 29.7436 59.2471 29.7436H70.2344C73.6151 29.7436 75.4745 27.9226 75.4745 24.3672V5.3764C75.4745 1.90775 73.6996 0 70.2344 0ZM69.5583 23.3266C69.5583 24.3672 69.0512 24.8008 68.1215 24.8008H64.8253V4.8561H68.1215C69.0512 4.8561 69.5583 5.3764 69.5583 6.41699V23.3266Z" fill="white"/>
<path opacity="0.25" d="M96.3501 0H90.0113C86.6306 0 84.7712 1.82104 84.7712 5.3764V24.3672C84.7712 27.8359 86.6306 29.7436 90.0113 29.7436H96.3501C99.7308 29.7436 101.59 27.9226 101.59 24.3672V20.3783C101.59 20.0314 101.337 19.7713 100.999 19.7713H96.2656C95.843 19.7713 95.674 20.0314 95.674 20.3783V23.3266C95.674 24.3672 95.1669 24.8008 94.2372 24.8008H92.3778C91.4481 24.8008 90.941 24.2805 90.941 23.3266V6.41699C90.941 5.46312 91.4481 4.94282 92.3778 4.94282H94.2372C95.1669 4.94282 95.674 5.46312 95.674 6.41699V9.36534C95.674 9.71221 95.843 9.97235 96.2656 9.97235H100.999C101.337 9.97235 101.59 9.71221 101.59 9.36534V5.3764C101.506 1.82104 99.7308 0 96.3501 0Z" fill="white"/>
<path opacity="0.25" d="M118.493 0.520297C118.409 0.173432 118.24 0 117.902 0H110.549C110.211 0 110.042 0.173432 109.957 0.520297L103.956 29.1366C103.872 29.5702 104.041 29.7436 104.464 29.7436H109.45C109.788 29.7436 109.957 29.5702 110.042 29.2233L111.056 23.7602H117.479L118.493 29.2233C118.578 29.5702 118.747 29.7436 119.085 29.7436H124.072C124.494 29.7436 124.663 29.4835 124.579 29.1366L118.493 0.520297ZM111.901 19.5111L114.183 6.50371L116.465 19.5111H111.901Z" fill="white"/>
<path opacity="0.25" d="M138.777 0H127.79C127.452 0 127.198 0.260148 127.198 0.607013V29.1366C127.198 29.4835 127.452 29.7436 127.79 29.7436H132.692C133.115 29.7436 133.284 29.4835 133.284 29.1366V19.7713H138.777C142.158 19.7713 144.017 17.8635 144.017 14.3949V5.3764C143.933 1.82104 142.158 0 138.777 0ZM137.932 13.3543C137.932 14.3082 137.425 14.8285 136.495 14.8285H133.284V4.94282H136.495C137.51 4.94282 137.932 5.46312 137.932 6.41699V13.3543Z" fill="white"/>
<path opacity="0.25" d="M161.598 0H147.061C146.723 0 146.469 0.260148 146.469 0.607013V4.33581C146.469 4.68267 146.723 4.94282 147.061 4.94282H151.286V29.1366C151.286 29.5702 151.54 29.7436 151.878 29.7436H156.78C157.203 29.7436 157.372 29.5702 157.372 29.1366V4.94282H161.598C162.02 4.94282 162.189 4.68267 162.189 4.33581V0.607013C162.189 0.260148 161.936 0 161.598 0Z" fill="white"/>
<path opacity="0.25" d="M181.121 0H176.641C176.219 0 175.881 0.346864 175.881 0.780445V23.4134C175.881 24.4539 175.374 24.8875 174.444 24.8875H172.585C171.655 24.8875 171.148 24.3672 171.148 23.4134V0.780445C171.148 0.346864 170.81 0 170.387 0H165.739C165.316 0 164.978 0.346864 164.978 0.780445V24.4539C164.978 27.9226 166.753 29.8303 170.218 29.8303H176.557C179.938 29.8303 181.797 28.0093 181.797 24.4539V0.780445C181.797 0.346864 181.543 0 181.121 0Z" fill="white"/>
<path opacity="0.25" d="M196.841 0H185.431C185.093 0 184.839 0.260148 184.839 0.607013V29.1366C184.839 29.4835 185.093 29.7436 185.431 29.7436H190.333C190.671 29.7436 190.925 29.4835 190.925 29.1366V19.7713H193.46L195.911 29.2233C195.996 29.5702 196.165 29.7436 196.503 29.7436H201.405C201.827 29.7436 201.996 29.4835 201.912 29.0499L199.376 19.3377C201.151 18.5573 201.996 16.9096 201.996 14.3949V5.3764C202.081 1.82104 200.222 0 196.841 0ZM195.996 13.3543C195.996 14.3082 195.489 14.8285 194.559 14.8285H191.009V4.94282H194.559C195.489 4.94282 195.996 5.46312 195.996 6.41699V13.3543Z" fill="white"/>
<path opacity="0.25" d="M231.662 22.6329C231.408 22.6329 230.648 22.8931 229.887 23.1532C228.957 23.4134 227.774 23.8469 226.675 24.0204C225.999 24.1938 225.492 24.1938 224.985 24.1938C223.971 24.1938 223.548 23.9337 223.379 23.6735C223.21 23.4134 223.21 23.1532 223.295 22.8063C223.717 21.5056 226.422 19.5978 227.859 18.9908C228.788 18.644 229.38 18.2971 229.465 17.9502C229.465 17.8635 229.465 17.6901 229.38 17.6034C229.296 17.5167 229.296 17.5167 229.126 17.5167C227.943 17.5167 224.478 20.465 222.534 22.1126C221.604 22.8931 220.506 23.5001 218.984 24.1071C218.139 24.4539 217.21 24.8008 216.364 24.8008C216.195 24.8008 216.111 24.8008 216.026 24.8008C215.688 24.7141 215.435 24.6274 215.266 24.3672C214.674 23.4134 215.857 22.8063 216.28 22.5462C216.871 22.1993 217.21 21.7657 217.125 21.4189C217.04 21.1587 216.871 20.9853 216.533 20.9853C215.942 20.8986 215.35 21.5056 214.759 22.1126C214.589 22.286 214.336 22.5462 214.167 22.6329C213.322 23.3266 212.223 23.9337 211.04 24.4539V17.3432H217.97C218.308 17.3432 218.562 17.0831 218.562 16.7362V13.0074C218.562 12.5738 218.308 12.4004 217.97 12.4004H211.04V4.94282H220.083C220.506 4.94282 220.675 4.68267 220.675 4.33581V0.607013C220.675 0.260148 220.506 0 220.083 0H205.631C205.293 0 205.124 0.260148 205.124 0.607013V29.1366C205.124 29.4835 205.377 29.7436 205.631 29.7436H220.083C220.506 29.7436 220.675 29.4835 220.675 29.1366V27.4023C220.675 26.6219 221.097 25.9281 221.858 25.5813H221.943C223.126 25.061 230.563 23.4134 231.408 23.3266C231.831 23.3266 232 23.0665 232 22.8931C232 22.8063 231.831 22.6329 231.662 22.6329Z" fill="white"/>
</g>
<defs>
<linearGradient id="paint0_linear" x1="-10.8626" y1="6.98447" x2="221.393" y2="73.712" gradientUnits="userSpaceOnUse">
<stop offset="0.010503" stop-color="#00CA8D"/>
<stop offset="0.2092" stop-color="#00CAE1"/>
<stop offset="0.4635" stop-color="#97008B"/>
<stop offset="0.5878" stop-color="#EB008B"/>
<stop offset="0.7017" stop-color="#EB0048"/>
<stop offset="0.9038" stop-color="#FFB500"/>
</linearGradient>
<linearGradient id="paint1_linear" x1="-9.38361" y1="1.83604" x2="222.872" y2="68.5636" gradientUnits="userSpaceOnUse">
<stop offset="0.010503" stop-color="#00CA8D"/>
<stop offset="0.2092" stop-color="#00CAE1"/>
<stop offset="0.4635" stop-color="#97008B"/>
<stop offset="0.5878" stop-color="#EB008B"/>
<stop offset="0.7017" stop-color="#EB0048"/>
<stop offset="0.9038" stop-color="#FFB500"/>
</linearGradient>
<linearGradient id="paint2_linear" x1="-8.60753" y1="-0.864562" x2="223.648" y2="65.863" gradientUnits="userSpaceOnUse">
<stop offset="0.010503" stop-color="#00CA8D"/>
<stop offset="0.2092" stop-color="#00CAE1"/>
<stop offset="0.4635" stop-color="#97008B"/>
<stop offset="0.5878" stop-color="#EB008B"/>
<stop offset="0.7017" stop-color="#EB0048"/>
<stop offset="0.9038" stop-color="#FFB500"/>
</linearGradient>
<linearGradient id="paint3_linear" x1="-6.86037" y1="-6.94449" x2="225.395" y2="59.7831" gradientUnits="userSpaceOnUse">
<stop offset="0.010503" stop-color="#00CA8D"/>
<stop offset="0.2092" stop-color="#00CAE1"/>
<stop offset="0.4635" stop-color="#97008B"/>
<stop offset="0.5878" stop-color="#EB008B"/>
<stop offset="0.7017" stop-color="#EB0048"/>
<stop offset="0.9038" stop-color="#FFB500"/>
</linearGradient>
<linearGradient id="paint4_linear" x1="-4.63159" y1="-14.7025" x2="227.624" y2="52.0249" gradientUnits="userSpaceOnUse">
<stop offset="0.010503" stop-color="#00CA8D"/>
<stop offset="0.2092" stop-color="#00CAE1"/>
<stop offset="0.4635" stop-color="#97008B"/>
<stop offset="0.5878" stop-color="#EB008B"/>
<stop offset="0.7017" stop-color="#EB0048"/>
<stop offset="0.9038" stop-color="#FFB500"/>
</linearGradient>
<linearGradient id="paint5_linear" x1="-3.19441" y1="-19.7061" x2="229.061" y2="47.0215" gradientUnits="userSpaceOnUse">
<stop offset="0.010503" stop-color="#00CA8D"/>
<stop offset="0.2092" stop-color="#00CAE1"/>
<stop offset="0.4635" stop-color="#97008B"/>
<stop offset="0.5878" stop-color="#EB008B"/>
<stop offset="0.7017" stop-color="#EB0048"/>
<stop offset="0.9038" stop-color="#FFB500"/>
</linearGradient>
<linearGradient id="paint6_linear" x1="-1.38436" y1="-26.0071" x2="230.871" y2="40.7205" gradientUnits="userSpaceOnUse">
<stop offset="0.010503" stop-color="#00CA8D"/>
<stop offset="0.2092" stop-color="#00CAE1"/>
<stop offset="0.4635" stop-color="#97008B"/>
<stop offset="0.5878" stop-color="#EB008B"/>
<stop offset="0.7017" stop-color="#EB0048"/>
<stop offset="0.9038" stop-color="#FFB500"/>
</linearGradient>
<linearGradient id="paint7_linear" x1="0.451175" y1="-32.3939" x2="232.707" y2="34.3337" gradientUnits="userSpaceOnUse">
<stop offset="0.010503" stop-color="#00CA8D"/>
<stop offset="0.2092" stop-color="#00CAE1"/>
<stop offset="0.4635" stop-color="#97008B"/>
<stop offset="0.5878" stop-color="#EB008B"/>
<stop offset="0.7017" stop-color="#EB0048"/>
<stop offset="0.9038" stop-color="#FFB500"/>
</linearGradient>
<linearGradient id="paint8_linear" x1="1.92588" y1="-37.529" x2="234.182" y2="29.1987" gradientUnits="userSpaceOnUse">
<stop offset="0.010503" stop-color="#00CA8D"/>
<stop offset="0.2092" stop-color="#00CAE1"/>
<stop offset="0.4635" stop-color="#97008B"/>
<stop offset="0.5878" stop-color="#EB008B"/>
<stop offset="0.7017" stop-color="#EB0048"/>
<stop offset="0.9038" stop-color="#FFB500"/>
</linearGradient>
<linearGradient id="paint9_linear" x1="3.24429" y1="-42.118" x2="235.5" y2="24.6095" gradientUnits="userSpaceOnUse">
<stop offset="0.010503" stop-color="#00CA8D"/>
<stop offset="0.2092" stop-color="#00CAE1"/>
<stop offset="0.4635" stop-color="#97008B"/>
<stop offset="0.5878" stop-color="#EB008B"/>
<stop offset="0.7017" stop-color="#EB0048"/>
<stop offset="0.9038" stop-color="#FFB500"/>
</linearGradient>
<linearGradient id="paint10_linear" x1="4.94398" y1="-48.0336" x2="237.2" y2="18.6939" gradientUnits="userSpaceOnUse">
<stop offset="0.010503" stop-color="#00CA8D"/>
<stop offset="0.2092" stop-color="#00CAE1"/>
<stop offset="0.4635" stop-color="#97008B"/>
<stop offset="0.5878" stop-color="#EB008B"/>
<stop offset="0.7017" stop-color="#EB0048"/>
<stop offset="0.9038" stop-color="#FFB500"/>
</linearGradient>
</defs>
</svg>
