<svg width="167" height="22" viewBox="0 0 167 22" fill="none" xmlns="http://www.w3.org/2000/svg">
<path d="M19.2248 0H15.9395C15.6353 0 15.392 0.187262 15.392 0.499365L14.2969 13.0459H14.1752L11.62 0.499365C11.5592 0.187262 11.3767 0 11.0725 0H8.69982C8.39563 0 8.21311 0.187262 8.15228 0.499365L5.47541 13.0459H5.35373L4.38033 0.499365C4.31949 0.187262 4.13698 0 3.77195 0H0.486703C0.182514 0 0 0.187262 0 0.561785L2.12933 20.9109C2.12933 21.2854 2.31184 21.4103 2.67687 21.4103H6.50965C6.81384 21.4103 6.99636 21.223 7.05719 20.9733L9.7949 8.86372L12.5326 20.9733C12.5934 21.2854 12.776 21.4727 13.0801 21.4727H16.8521C17.2171 21.4727 17.3996 21.2854 17.3996 20.9733L19.6506 0.624206C19.7723 0.187262 19.5898 0 19.2248 0Z" fill="white"/>
<path d="M26.0387 0H22.5101C22.2059 0 22.0842 0.187262 22.0842 0.436944V20.9733C22.0842 21.223 22.2059 21.4103 22.5101 21.4103H26.0387C26.282 21.4103 26.4646 21.223 26.4646 20.9733V0.436944C26.4646 0.187262 26.282 0 26.0387 0Z" fill="white"/>
<path d="M39.6664 17.8523H33.4609V0.436944C33.4609 0.187262 33.2784 0 33.035 0H29.5064C29.2631 0 29.0806 0.187262 29.0806 0.436944V20.9733C29.0806 21.2854 29.2631 21.4103 29.5064 21.4103H39.6664C39.9706 21.4103 40.0922 21.2854 40.0922 20.9733V18.2892C40.0314 18.0395 39.9097 17.8523 39.6664 17.8523Z" fill="white"/>
<path d="M50.5562 0H42.6473C42.3431 0 42.2214 0.187262 42.2214 0.436944V20.9733C42.2214 21.2854 42.3431 21.4103 42.6473 21.4103H50.5562C52.9897 21.4103 54.3282 20.0994 54.3282 17.5402V3.87008C54.3282 1.37325 53.0506 0 50.5562 0ZM50.0695 16.7911C50.0695 17.5402 49.7045 17.8523 49.0353 17.8523H46.6626V3.49555H49.0353C49.7045 3.49555 50.0695 3.87008 50.0695 4.61912V16.7911Z" fill="white"/>
<path d="M69.3553 0H64.7925C62.3589 0 61.0205 1.31083 61.0205 3.87008V17.5402C61.0205 20.037 62.3589 21.4103 64.7925 21.4103H69.3553C71.7888 21.4103 73.1272 20.0994 73.1272 17.5402V14.6688C73.1272 14.4192 72.9447 14.2319 72.7014 14.2319H69.2945C68.9903 14.2319 68.8686 14.4192 68.8686 14.6688V16.7911C68.8686 17.5402 68.5036 17.8523 67.8343 17.8523H66.4959C65.8267 17.8523 65.4617 17.4778 65.4617 16.7911V4.61912C65.4617 3.9325 65.8267 3.55797 66.4959 3.55797H67.8343C68.5036 3.55797 68.8686 3.9325 68.8686 4.61912V6.74142C68.8686 6.9911 68.9903 7.17837 69.2945 7.17837H72.7014C72.9447 7.17837 73.1272 6.9911 73.1272 6.74142V3.87008C73.0664 1.31083 71.7888 0 69.3553 0Z" fill="white"/>
<path d="M85.2948 0.374523C85.2339 0.124841 85.1122 0 84.8689 0H79.576C79.3326 0 79.211 0.124841 79.1501 0.374523L74.8306 20.9733C74.7698 21.2854 74.8915 21.4103 75.1957 21.4103H78.7851C79.0285 21.4103 79.1501 21.2854 79.211 21.0357L79.941 17.1032H84.5647L85.2948 21.0357C85.3556 21.2854 85.4773 21.4103 85.7206 21.4103H89.3101C89.6142 21.4103 89.7359 21.223 89.6751 20.9733L85.2948 0.374523ZM80.5494 14.0446L82.192 4.68154L83.8347 14.0446H80.5494Z" fill="white"/>
<path d="M99.8958 0H91.9869C91.7435 0 91.561 0.187262 91.561 0.436944V20.9733C91.561 21.223 91.7435 21.4103 91.9869 21.4103H95.5155C95.8197 21.4103 95.9414 21.223 95.9414 20.9733V14.2319H99.8958C102.329 14.2319 103.668 12.8586 103.668 10.3618V3.87008C103.607 1.31083 102.329 0 99.8958 0ZM99.2875 9.61277C99.2875 10.2994 98.9224 10.6739 98.2532 10.6739H95.9414V3.55797H98.2532C98.9833 3.55797 99.2875 3.9325 99.2875 4.61912V9.61277Z" fill="white"/>
<path d="M116.322 0H105.858C105.615 0 105.432 0.187262 105.432 0.436944V3.12103C105.432 3.37071 105.615 3.55797 105.858 3.55797H108.9V20.9733C108.9 21.2854 109.082 21.4103 109.326 21.4103H112.854C113.159 21.4103 113.28 21.2854 113.28 20.9733V3.55797H116.322C116.626 3.55797 116.748 3.37071 116.748 3.12103V0.436944C116.748 0.187262 116.565 0 116.322 0Z" fill="white"/>
<path d="M130.376 0H127.151C126.847 0 126.604 0.249682 126.604 0.561785V16.8536C126.604 17.6026 126.239 17.9147 125.569 17.9147H124.231C123.562 17.9147 123.197 17.5402 123.197 16.8536V0.561785C123.197 0.249682 122.953 0 122.649 0H119.303C118.999 0 118.756 0.249682 118.756 0.561785V17.6026C118.756 20.0994 120.033 21.4727 122.528 21.4727H127.09C129.524 21.4727 130.862 20.1618 130.862 17.6026V0.561785C130.862 0.249682 130.68 0 130.376 0Z" fill="white"/>
<path d="M141.691 0H133.478C133.235 0 133.052 0.187262 133.052 0.436944V20.9733C133.052 21.223 133.235 21.4103 133.478 21.4103H137.007C137.25 21.4103 137.433 21.223 137.433 20.9733V14.2319H139.258L141.022 21.0357C141.083 21.2854 141.205 21.4103 141.448 21.4103H144.977C145.281 21.4103 145.403 21.223 145.342 20.9109L143.517 13.9198C144.794 13.358 145.403 12.172 145.403 10.3618V3.87008C145.463 1.31083 144.125 0 141.691 0ZM141.083 9.61277C141.083 10.2994 140.718 10.6739 140.049 10.6739H137.494V3.55797H140.049C140.718 3.55797 141.083 3.9325 141.083 4.61912V9.61277Z" fill="white"/>
<path d="M166.757 16.2918C166.574 16.2918 166.027 16.479 165.479 16.6663C164.81 16.8536 163.958 17.1657 163.167 17.2905C162.681 17.4153 162.316 17.4153 161.95 17.4153C161.22 17.4153 160.916 17.2281 160.795 17.0408C160.673 16.8536 160.673 16.6663 160.734 16.4166C161.038 15.4803 162.985 14.107 164.019 13.6701C164.688 13.4204 165.114 13.1707 165.175 12.9211C165.175 12.8586 165.175 12.7338 165.114 12.6714C165.053 12.609 165.053 12.609 164.932 12.609C164.08 12.609 161.585 14.7313 160.186 15.9172C159.517 16.479 158.726 16.916 157.631 17.3529C157.023 17.6026 156.353 17.8523 155.745 17.8523C155.623 17.8523 155.562 17.8523 155.502 17.8523C155.258 17.7899 155.076 17.7274 154.954 17.5402C154.528 16.8536 155.38 16.4166 155.684 16.2293C156.11 15.9797 156.353 15.6676 156.293 15.4179C156.232 15.2306 156.11 15.1058 155.867 15.1058C155.441 15.0434 155.015 15.4803 154.589 15.9172C154.467 16.0421 154.285 16.2294 154.163 16.2918C153.555 16.7911 152.764 17.2281 151.912 17.6026V12.4841H156.901C157.144 12.4841 157.327 12.2969 157.327 12.0472V9.36309C157.327 9.05098 157.144 8.92614 156.901 8.92614H151.912V3.55797H158.422C158.726 3.55797 158.848 3.37071 158.848 3.12103V0.436944C158.848 0.187262 158.726 0 158.422 0H148.019C147.775 0 147.654 0.187262 147.654 0.436944V20.9733C147.654 21.223 147.836 21.4103 148.019 21.4103H158.422C158.726 21.4103 158.848 21.223 158.848 20.9733V19.7249C158.848 19.1631 159.152 18.6638 159.699 18.4141H159.76C160.612 18.0395 165.966 16.8536 166.574 16.7911C166.878 16.7911 167 16.6039 167 16.479C167 16.4166 166.878 16.2918 166.757 16.2918Z" fill="white"/>
<g opacity="0.25">
<path opacity="0.25" d="M19.2248 0H15.9395C15.6353 0 15.392 0.187262 15.392 0.499365L14.2969 13.0459H14.1752L11.62 0.499365C11.5592 0.187262 11.3767 0 11.0725 0H8.69982C8.39563 0 8.21311 0.187262 8.15228 0.499365L5.47541 13.0459H5.35373L4.38033 0.499365C4.31949 0.187262 4.13698 0 3.77195 0H0.486703C0.182514 0 0 0.187262 0 0.561785L2.12933 20.9109C2.12933 21.2854 2.31184 21.4103 2.67687 21.4103H6.50965C6.81384 21.4103 6.99636 21.223 7.05719 20.9733L9.7949 8.86372L12.5326 20.9733C12.5934 21.2854 12.776 21.4727 13.0801 21.4727H16.8521C17.2171 21.4727 17.3996 21.2854 17.3996 20.9733L19.6506 0.624206C19.7723 0.187262 19.5898 0 19.2248 0Z" fill="white"/>
<path opacity="0.25" d="M26.0387 0H22.5101C22.2059 0 22.0842 0.187262 22.0842 0.436944V20.9733C22.0842 21.223 22.2059 21.4103 22.5101 21.4103H26.0387C26.282 21.4103 26.4646 21.223 26.4646 20.9733V0.436944C26.4646 0.187262 26.282 0 26.0387 0Z" fill="white"/>
<path opacity="0.25" d="M39.6664 17.8523H33.4609V0.436944C33.4609 0.187262 33.2784 0 33.035 0H29.5064C29.2631 0 29.0806 0.187262 29.0806 0.436944V20.9733C29.0806 21.2854 29.2631 21.4103 29.5064 21.4103H39.6664C39.9706 21.4103 40.0922 21.2854 40.0922 20.9733V18.2892C40.0314 18.0395 39.9097 17.8523 39.6664 17.8523Z" fill="white"/>
<path opacity="0.25" d="M50.5562 0H42.6473C42.3431 0 42.2214 0.187262 42.2214 0.436944V20.9733C42.2214 21.2854 42.3431 21.4103 42.6473 21.4103H50.5562C52.9897 21.4103 54.3282 20.0994 54.3282 17.5402V3.87008C54.3282 1.37325 53.0506 0 50.5562 0ZM50.0695 16.7911C50.0695 17.5402 49.7045 17.8523 49.0353 17.8523H46.6626V3.49555H49.0353C49.7045 3.49555 50.0695 3.87008 50.0695 4.61912V16.7911Z" fill="white"/>
<path opacity="0.25" d="M69.3553 0H64.7925C62.3589 0 61.0205 1.31083 61.0205 3.87008V17.5402C61.0205 20.037 62.3589 21.4103 64.7925 21.4103H69.3553C71.7888 21.4103 73.1272 20.0994 73.1272 17.5402V14.6688C73.1272 14.4192 72.9447 14.2319 72.7014 14.2319H69.2945C68.9903 14.2319 68.8686 14.4192 68.8686 14.6688V16.7911C68.8686 17.5402 68.5036 17.8523 67.8343 17.8523H66.4959C65.8267 17.8523 65.4617 17.4778 65.4617 16.7911V4.61912C65.4617 3.9325 65.8267 3.55797 66.4959 3.55797H67.8343C68.5036 3.55797 68.8686 3.9325 68.8686 4.61912V6.74142C68.8686 6.9911 68.9903 7.17837 69.2945 7.17837H72.7014C72.9447 7.17837 73.1272 6.9911 73.1272 6.74142V3.87008C73.0664 1.31083 71.7888 0 69.3553 0Z" fill="white"/>
<path opacity="0.25" d="M85.2948 0.374523C85.2339 0.124841 85.1122 0 84.8689 0H79.576C79.3326 0 79.211 0.124841 79.1501 0.374523L74.8306 20.9733C74.7698 21.2854 74.8915 21.4103 75.1957 21.4103H78.7851C79.0285 21.4103 79.1501 21.2854 79.211 21.0357L79.941 17.1032H84.5647L85.2948 21.0357C85.3556 21.2854 85.4773 21.4103 85.7206 21.4103H89.3101C89.6142 21.4103 89.7359 21.223 89.6751 20.9733L85.2948 0.374523ZM80.5494 14.0446L82.192 4.68154L83.8347 14.0446H80.5494Z" fill="white"/>
<path opacity="0.25" d="M99.8958 0H91.9869C91.7435 0 91.561 0.187262 91.561 0.436944V20.9733C91.561 21.223 91.7435 21.4103 91.9869 21.4103H95.5155C95.8197 21.4103 95.9414 21.223 95.9414 20.9733V14.2319H99.8958C102.329 14.2319 103.668 12.8586 103.668 10.3618V3.87008C103.607 1.31083 102.329 0 99.8958 0ZM99.2875 9.61277C99.2875 10.2994 98.9224 10.6739 98.2532 10.6739H95.9414V3.55797H98.2532C98.9833 3.55797 99.2875 3.9325 99.2875 4.61912V9.61277Z" fill="white"/>
<path opacity="0.25" d="M116.322 0H105.858C105.615 0 105.432 0.187262 105.432 0.436944V3.12103C105.432 3.37071 105.615 3.55797 105.858 3.55797H108.9V20.9733C108.9 21.2854 109.082 21.4103 109.326 21.4103H112.854C113.159 21.4103 113.28 21.2854 113.28 20.9733V3.55797H116.322C116.626 3.55797 116.748 3.37071 116.748 3.12103V0.436944C116.748 0.187262 116.565 0 116.322 0Z" fill="white"/>
<path opacity="0.25" d="M130.376 0H127.151C126.847 0 126.604 0.249682 126.604 0.561785V16.8536C126.604 17.6026 126.239 17.9147 125.569 17.9147H124.231C123.562 17.9147 123.197 17.5402 123.197 16.8536V0.561785C123.197 0.249682 122.953 0 122.649 0H119.303C118.999 0 118.756 0.249682 118.756 0.561785V17.6026C118.756 20.0994 120.033 21.4727 122.528 21.4727H127.09C129.524 21.4727 130.862 20.1618 130.862 17.6026V0.561785C130.862 0.249682 130.68 0 130.376 0Z" fill="white"/>
<path opacity="0.25" d="M141.691 0H133.478C133.235 0 133.052 0.187262 133.052 0.436944V20.9733C133.052 21.223 133.235 21.4103 133.478 21.4103H137.007C137.25 21.4103 137.433 21.223 137.433 20.9733V14.2319H139.258L141.022 21.0357C141.083 21.2854 141.205 21.4103 141.448 21.4103H144.977C145.281 21.4103 145.403 21.223 145.342 20.9109L143.517 13.9198C144.794 13.358 145.403 12.172 145.403 10.3618V3.87008C145.463 1.31083 144.125 0 141.691 0ZM141.083 9.61277C141.083 10.2994 140.718 10.6739 140.049 10.6739H137.494V3.55797H140.049C140.718 3.55797 141.083 3.9325 141.083 4.61912V9.61277Z" fill="white"/>
<path opacity="0.25" d="M166.757 16.2918C166.574 16.2918 166.027 16.479 165.479 16.6663C164.81 16.8536 163.958 17.1657 163.167 17.2905C162.681 17.4153 162.316 17.4153 161.95 17.4153C161.22 17.4153 160.916 17.2281 160.795 17.0408C160.673 16.8536 160.673 16.6663 160.734 16.4166C161.038 15.4803 162.985 14.107 164.019 13.6701C164.688 13.4204 165.114 13.1707 165.175 12.9211C165.175 12.8586 165.175 12.7338 165.114 12.6714C165.053 12.609 165.053 12.609 164.932 12.609C164.08 12.609 161.585 14.7313 160.186 15.9172C159.517 16.479 158.726 16.916 157.631 17.3529C157.023 17.6026 156.353 17.8523 155.745 17.8523C155.623 17.8523 155.562 17.8523 155.502 17.8523C155.258 17.7899 155.076 17.7274 154.954 17.5402C154.528 16.8536 155.38 16.4166 155.684 16.2293C156.11 15.9797 156.353 15.6676 156.293 15.4179C156.232 15.2306 156.11 15.1058 155.867 15.1058C155.441 15.0434 155.015 15.4803 154.589 15.9172C154.467 16.0421 154.285 16.2294 154.163 16.2918C153.555 16.7911 152.764 17.2281 151.912 17.6026V12.4841H156.901C157.144 12.4841 157.327 12.2969 157.327 12.0472V9.36309C157.327 9.05098 157.144 8.92614 156.901 8.92614H151.912V3.55797H158.422C158.726 3.55797 158.848 3.37071 158.848 3.12103V0.436944C158.848 0.187262 158.726 0 158.422 0H148.019C147.775 0 147.654 0.187262 147.654 0.436944V20.9733C147.654 21.223 147.836 21.4103 148.019 21.4103H158.422C158.726 21.4103 158.848 21.223 158.848 20.9733V19.7249C158.848 19.1631 159.152 18.6638 159.699 18.4141H159.76C160.612 18.0395 165.966 16.8536 166.574 16.7911C166.878 16.7911 167 16.6039 167 16.479C167 16.4166 166.878 16.2918 166.757 16.2918Z" fill="white"/>
</g>
</svg>
