<svg width="547" height="600" viewBox="0 0 547 600" fill="none" xmlns="http://www.w3.org/2000/svg">
<path d="M376.92 487.483L376.931 487.479L376.943 487.475L383.514 485.125C383.515 485.124 383.517 485.123 383.519 485.123C402.599 478.752 416.559 470.592 425.689 459.964C434.821 449.332 439.082 436.274 438.854 420.187C439.08 418.866 439.514 418.046 440 417.559C440.484 417.074 441.057 416.882 441.644 416.882C442.027 416.882 442.609 417.145 443.302 417.874C443.979 418.586 444.699 419.68 445.359 421.174C446.677 424.158 447.725 428.677 447.725 434.744C447.725 443.874 446.44 454.248 440.041 464.853C433.644 475.454 422.105 486.336 401.506 496.424C397.473 497.618 394.344 499.416 392.334 501.551C390.311 503.7 389.407 506.212 389.916 508.76L389.919 508.777L389.924 508.793C390.674 511.547 392.783 513.878 395.684 515.513C398.588 517.149 402.318 518.108 406.389 518.108C408.319 518.108 410.708 517.629 413.029 517.164L413.068 517.156L413.083 517.153L413.097 517.149C431.17 512.386 443.96 498.571 451.987 475.871L451.99 475.863C453.833 470.324 457.926 466.788 461.857 466.788H461.907L461.956 466.779C464.031 466.363 466.197 467.601 467.539 469.841L467.55 469.858L467.561 469.874C468.66 471.415 469.234 473.544 469.349 476.081C469.464 478.608 469.121 481.499 468.424 484.525C466.584 490.957 460.115 499.341 446.032 511.567C437.092 518.166 427.216 526.174 415.468 536.058L415.463 536.062C405.183 544.955 391.139 552.463 373.3 559.516L373.279 559.524L373.26 559.534C372.823 559.753 370.595 560.624 367.44 561.747C364.303 562.863 360.287 564.213 356.302 565.387C352.312 566.562 348.376 567.554 345.388 567.961C343.888 568.165 342.667 568.216 341.81 568.087C340.912 567.951 340.648 567.665 340.599 567.416L340.595 567.397L340.589 567.377C340.413 566.759 340.592 566.159 341.094 565.532C341.604 564.894 342.412 564.283 343.365 563.704C344.312 563.13 345.365 562.609 346.341 562.138C346.473 562.075 346.603 562.012 346.733 561.95C347.54 561.562 348.286 561.204 348.815 560.888C353.794 558.274 359.479 554.121 363.868 549.191C368.251 544.267 371.405 538.494 371.163 532.656C370.92 525.382 366.793 520.29 361.194 517.456C355.612 514.631 348.553 514.035 342.333 515.711C336.588 517.151 330.999 520.735 325.928 524.81C321.961 527.998 318.279 531.514 315.071 534.577C314.176 535.432 313.319 536.251 312.502 537.017L312.48 537.039L312.46 537.062C311.312 538.442 310.044 539.598 308.817 540.651C308.51 540.915 308.204 541.173 307.903 541.428C307.018 542.175 306.171 542.889 305.459 543.6C303.322 545.313 301.197 547.014 298.723 548.714C297.794 531.782 296.421 514.87 294.603 499.275H295.451H295.467L295.483 499.274C317.568 497.862 350.531 495.506 376.92 487.483Z" stroke="white"/>
<path d="M219.772 578.313H219.747L219.722 578.316C219.6 578.328 219.478 578.34 219.356 578.352C214.788 578.808 209.705 579.316 204.615 581.612C187.704 582.043 177.591 578.656 164.451 574.256C163.835 574.05 163.212 573.841 162.581 573.631L162.563 573.625L162.544 573.62C161.636 573.393 160.723 573.05 159.778 572.695L159.764 572.69C158.838 572.342 157.881 571.982 156.917 571.74C149.372 569.379 142.272 567.955 135.158 567.955C124.485 567.955 116.036 571.044 110.186 575.289C104.352 579.523 101.059 584.943 100.814 589.616L100.813 589.629V589.642C100.813 593.074 102.309 596.142 104.97 598.181C101.679 598.385 98.3112 598.59 94.9428 598.794L94.9369 598.795C91.1203 599.026 87.3032 599.258 83.598 599.49C80.466 597.203 78.2774 594.062 77.8356 590.522L77.8341 590.51L77.8321 590.498C76.9209 585.25 78.855 579.135 81.9503 573.462C85.0379 567.802 89.2351 562.665 92.7232 559.404L92.7233 559.404L92.7303 559.397C108.633 543.938 131.11 534.08 149.44 527.019L149.444 527.017C164.731 520.986 181.854 515.868 200.813 511.665C198.998 521.764 197.62 531.424 196.244 541.073V541.074C196.243 541.074 196.243 541.075 196.243 541.076C194.822 550.568 196.227 557.335 200.597 562.198L200.606 562.208L200.615 562.217C204.026 565.634 209.341 567.543 216.011 567.543C223.163 567.543 231.235 565.158 238.34 561.363L238.34 561.363L238.351 561.357C252.666 553.232 256.928 536.065 258.336 529.482L258.339 529.471L258.341 529.459C259.231 524.108 263.67 521.873 267.249 521.873C270.864 521.873 273.518 523.219 275.294 525.888C277.075 528.563 277.555 532.296 276.63 536.87C275.706 541.44 273.388 546.797 269.648 552.649L269.644 552.655C261.298 566.123 245.036 572.673 233.304 575.968C230.656 576.301 227.997 576.868 225.037 577.498C223.795 577.763 222.501 578.038 221.132 578.313H219.772Z" stroke="white"/>
<path d="M248.913 591.497C236.981 591.497 225.339 591.497 213.757 591.732C255.595 585.413 291.661 571.826 315.022 552.851C317.875 550.942 320.251 548.562 323.048 545.76L323.064 545.745C323.478 545.356 323.894 544.963 324.313 544.569C327.706 541.37 331.233 538.045 334.756 535.554C338.73 532.744 342.578 531.086 346.127 531.752L346.142 531.755L346.157 531.757C349.772 532.21 352.354 534.451 352.777 536.993L352.78 537.006L352.783 537.019C353.207 538.932 352.478 541.252 350.586 543.664C348.7 546.068 345.706 548.499 341.755 550.594L341.746 550.598L341.737 550.604C341.507 550.738 341.261 550.88 341.001 551.031C338.09 552.716 333.394 555.433 330.099 559.118C328.298 561.132 326.887 563.466 326.425 566.111C325.961 568.764 326.463 571.675 328.389 574.82C329.906 577.835 333.37 579.759 338.124 580.247C339.593 580.726 341.061 580.726 342.878 580.726H342.929C354.314 580.726 367.084 576.455 377.897 572.217L377.9 572.216C396.738 564.669 411.826 556.171 424.096 546.245L424.101 546.241C436.56 535.882 454.294 521.178 470.849 509.065C479.128 503.008 487.101 497.607 493.966 493.722C497.399 491.779 500.545 490.221 503.307 489.149C506.077 488.075 508.427 487.504 510.275 487.504C512.022 487.504 512.818 487.927 513.178 488.267C514.061 489.607 514.424 490.835 514.034 492.017C513.386 493.736 511.395 495.777 507.892 497.999C504.406 500.21 499.506 502.55 493.179 504.897L493.174 504.899C483.244 508.688 469.569 516.721 457.616 525.921C451.636 530.524 446.075 535.427 441.622 540.25C437.176 545.065 433.804 549.832 432.243 554.161L432.238 554.174L432.234 554.188C430.793 558.997 431.253 562.927 433.237 565.908C435.253 568.937 441.105 572.722 454.336 572.722C460.472 572.722 468.029 572.25 476.532 570.358C491.132 567.527 506.665 562.812 518.883 559.047C519.715 558.793 520.536 558.542 521.344 558.295C525.788 556.937 529.842 555.698 533.265 554.754C537.332 553.633 540.439 552.948 542.24 552.948C543.823 552.948 544.875 553.289 545.519 553.786C546.146 554.269 546.441 554.939 546.441 555.744V555.793L248.914 591.997M248.913 591.497C248.913 591.497 248.913 591.497 248.913 591.497H248.914V591.997M248.913 591.497C248.912 591.497 248.911 591.497 248.91 591.497L248.914 591.997M248.913 591.497C301.543 591.026 352.295 592.437 399.761 595.259M248.914 591.997C301.563 591.526 352.331 592.938 399.808 595.763M399.761 595.259C399.736 595.266 399.711 595.272 399.686 595.278L399.808 595.763M399.761 595.259C399.786 595.261 399.812 595.262 399.838 595.264L399.808 595.763M399.761 595.259L399.808 595.763M415.105 589.662L415.096 589.666L415.32 590.113L415.113 589.658C415.11 589.66 415.108 589.661 415.105 589.662ZM540.314 560.425C540.313 560.425 540.311 560.425 540.31 560.425L540.36 560.923L540.318 560.424C540.317 560.424 540.315 560.425 540.314 560.425ZM204.728 592.467C206.37 592.414 208.012 592.367 209.654 592.325L209.613 591.826C207.993 592.051 206.364 592.265 204.728 592.467Z" stroke="white"/>
<path d="M136.501 18.3632L136.501 18.3632L136.504 18.3598C149.502 0.226795 175.993 -4.91552 195.995 6.71836C199.039 8.89578 202.021 11.0346 204.269 13.5226C174.285 20.1666 148.851 35.4289 133.345 56.6699C127.246 44.7236 127.859 30.2079 136.501 18.3632Z" stroke="white"/>
<path d="M197.633 211.077C171.771 212.896 145.044 219.964 121.23 230.595C129.428 222.892 137.615 215.661 145.797 209.623L145.8 209.621C187.072 178.618 224.1 172.055 247.506 172.055C270.933 172.055 291.058 176.746 310.714 187.996C318.625 192.657 322.17 198.606 321.285 203.952C320.397 208.377 315.934 212.052 308.96 213.916C303.355 215.319 297.286 216.254 289.812 216.254C279.97 216.254 270.592 215.315 261.188 214.373L261.183 214.373L256.027 213.904C256.025 213.903 256.022 213.903 256.02 213.903C240.504 212.019 225.91 210.604 210.84 210.604H210.824C206.139 210.604 201.888 210.604 197.633 211.077Z" stroke="white"/>
<path d="M71.8775 358.937L71.8845 358.934L71.8914 358.932C86.1181 352.956 102.143 348.782 117.318 347.289C116.783 348.206 116.248 349.094 115.724 349.962C114.588 351.848 113.509 353.638 112.624 355.409C103.916 370.494 98.6674 379.478 92.8552 385.125C87.0941 390.722 80.7593 393.054 69.7803 394.694H69.7778H69.7749H69.772H69.7691H69.7661H69.7632H69.7602H69.7573H69.7543H69.7513H69.7483H69.7453H69.7423H69.7392H69.7362H69.7331H69.7301H69.727H69.7239H69.7208H69.7177H69.7146H69.7115H69.7083H69.7052H69.7021H69.6989H69.6957H69.6925H69.6893H69.6861H69.6829H69.6797H69.6765H69.6732H69.67H69.6667H69.6634H69.6602H69.6569H69.6536H69.6503H69.6469H69.6436H69.6403H69.6369H69.6336H69.6302H69.6268H69.6234H69.6201H69.6166H69.6132H69.6098H69.6064H69.6029H69.5995H69.596H69.5926H69.5891H69.5856H69.5821H69.5786H69.5751H69.5715H69.568H69.5645H69.5609H69.5574H69.5538H69.5502H69.5466H69.543H69.5394H69.5358H69.5322H69.5285H69.5249H69.5212H69.5176H69.5139H69.5102H69.5065H69.5029H69.4992H69.4954H69.4917H69.488H69.4843H69.4805H69.4767H69.473H69.4692H69.4654H69.4616H69.4578H69.454H69.4502H69.4464H69.4426H69.4387H69.4349H69.431H69.4272H69.4233H69.4194H69.4155H69.4116H69.4077H69.4038H69.3999H69.3959H69.392H69.3881H69.3841H69.3801H69.3762H69.3722H69.3682H69.3642H69.3602H69.3562H69.3522H69.3481H69.3441H69.3401H69.336H69.332H69.3279H69.3238H69.3197H69.3156H69.3115H69.3074H69.3033H69.2992H69.2951H69.2909H69.2868H69.2826H69.2785H69.2743H69.2701H69.266H69.2618H69.2576H69.2534H69.2492H69.245H69.2407H69.2365H69.2323H69.228H69.2238H69.2195H69.2152H69.2109H69.2067H69.2024H69.1981H69.1938H69.1895H69.1851H69.1808H69.1765H69.1721H69.1678H69.1634H69.1591H69.1547H69.1503H69.146H69.1416H69.1372H69.1328H69.1284H69.1239H69.1195H69.1151H69.1107H69.1062H69.1018H69.0973H69.0928H69.0884H69.0839H69.0794H69.0749H69.0704H69.0659H69.0614H69.0569H69.0524H69.0479H69.0433H69.0388H69.0342H69.0297H69.0251H69.0206H69.016H69.0114H69.0068H69.0022H68.9976H68.993H68.9884H68.9838H68.9792H68.9745H68.9699H68.9653H68.9606H68.956H68.9513H68.9467H68.942H68.9373H68.9326H68.9279H68.9232H68.9185H68.9138H68.9091H68.9044H68.8997H68.895H68.8902H68.8855H68.8807H68.876H68.8712H68.8665H68.8617H68.8569H68.8521H68.8474H68.8426H68.8378H68.833H68.8282H68.8234H68.8185H68.8137H68.8089H68.8041H68.7992H68.7944H68.7895H68.7847H68.7798H68.7749H68.7701H68.7652H68.7603H68.7554H68.7505H68.7456H68.7407H68.7358H68.7309H68.726H68.7211H68.7162H68.7112H68.7063H68.7014H68.6964H68.6915H68.6865H68.6815H68.6766H68.6716H68.6666H68.6617H68.6567H68.6517H68.6467H68.6417H68.6367H68.6317H68.6267H68.6217H68.6166H68.6116H68.6066H68.6015H68.5965H68.5915H68.5864H68.5814H68.5763H68.5712H68.5662H68.5611H68.556H68.551H68.5459H68.5408H68.5357H68.5306H68.5255H68.5204H68.5153H68.5102H68.5051H68.5H68.4948H68.4897H68.4846H68.4794H68.4743H68.4692H68.464H68.4589H68.4537H68.4485H68.4434H68.4382H68.433H68.4279H68.4227H68.4175H68.4123H68.4071H68.4019H68.3967H68.3916H68.3863H68.3811H68.3759H68.3707H68.3655H68.3603H68.3551H68.3498H68.3446H68.3394H68.3341H68.3289H68.3236H68.3184H68.3131H68.3079H68.3026H68.2974H68.2921H68.2868H68.2816H68.2763H68.271H68.2657H68.2604H68.2552H68.2499H68.2446H68.2393H68.234H68.2287H68.2234H68.2181H68.2128H68.2074H68.2021H68.1968H68.1915H68.1862H68.1808H68.1755H68.1702H68.1648H68.1595H68.1542H68.1488H68.1435H68.1381H68.1328H68.1274H68.1221H68.1167H68.1113H68.106H68.1006H68.0953H68.0899H68.0845H68.0791H68.0738H68.0684H68.063H68.0576H68.0522H68.0468H68.0414H68.036H68.0306H68.0252H68.0198H68.0144H68.009H68.0036H67.9982H67.9928H67.9874H67.982H67.9766H67.9711H67.9657H67.9603H67.9549H67.9495H67.944H67.9386H67.9332H67.9277H67.9223H67.9169H67.9114H67.906H67.9005H67.8951H67.8896H67.8842H67.8788H67.8733H67.8678H67.8624H67.8569H67.8515H67.846H67.8406H67.8351H67.8296H67.8242H67.8187H67.8132H67.8078H67.8023H67.7968H67.7914H67.7859H67.7804H67.775H67.7695H67.764H67.7585H67.753H67.7476H67.7421H67.7366H67.7311H67.7256H67.7201H67.7147H67.7092H67.7037H67.6982H67.6927H67.6872H67.6817H67.6762H67.6707H67.6652H67.6597H67.6542H67.6487H67.6432H67.6377H67.6322H67.6267H67.6212H67.6157H67.6102H67.6047H67.5992H67.5937H67.5882H67.5827H67.5772H67.5717H67.5662H67.5607H67.5552H67.5497H67.5442H67.5387H67.5332H67.5277H67.5222H67.5167H67.5111H67.5056H67.5001H67.4946H67.4891H67.4836H67.4781H67.4726H67.4671C62.3896 394.694 56.837 393.308 52.2064 390.995C46.6344 387.267 44.4983 383.664 44.9291 380.195C45.2621 377.869 46.6834 375.519 48.7955 373.244C50.9032 370.974 53.6588 368.822 56.5786 366.892C62.4182 363.031 68.848 360.104 71.8775 358.937Z" stroke="white"/>
<path d="M295.013 249.211L295.044 249.215C302.542 250.154 310.497 250.622 317.975 250.154C322.097 249.739 325.475 247.84 329.228 245.73C329.633 245.502 330.042 245.272 330.457 245.041C330.828 244.818 331.213 244.581 331.611 244.337C333.692 243.06 336.108 241.577 338.527 240.767C347.556 237.151 356.617 235.25 365.288 235.921C357.212 226.147 348.734 217.653 340.666 210.439C339.717 211.733 338.438 213.014 337.196 214.258L337.172 214.282L337.156 214.298L337.139 214.313C325.725 223.839 308.191 228.553 283.23 228.553H283.211H283.192H283.172H283.153H283.134H283.114H283.095H283.076H283.056H283.037H283.018H282.998H282.979H282.959H282.94H282.92H282.901H282.882H282.862H282.843H282.823H282.804H282.784H282.765H282.745H282.725H282.706H282.686H282.667H282.647H282.628H282.608H282.588H282.569H282.549H282.529H282.51H282.49H282.47H282.451H282.431H282.411H282.392H282.372H282.352H282.332H282.313H282.293H282.273H282.253H282.233H282.214H282.194H282.174H282.154H282.134H282.114H282.095H282.075H282.055H282.035H282.015H281.995H281.975H281.955H281.935H281.915H281.895H281.875H281.855H281.836H281.816H281.796H281.775H281.755H281.735H281.715H281.695H281.675H281.655H281.635H281.615H281.595H281.575H281.555H281.535H281.514H281.494H281.474H281.454H281.434H281.414H281.394H281.373H281.353H281.333H281.313H281.292H281.272H281.252H281.232H281.211H281.191H281.171H281.151H281.13H281.11H281.09H281.069H281.049H281.029H281.008H280.988H280.968H280.947H280.927H280.906H280.886H280.866H280.845H280.825H280.804H280.784H280.763H280.743H280.723H280.702H280.682H280.661H280.641H280.62H280.6H280.579H280.559H280.538H280.517H280.497H280.476H280.456H280.435H280.415H280.394H280.373H280.353H280.332H280.312H280.291H280.27H280.25H280.229H280.208H280.188H280.167H280.146H280.126H280.105H280.084H280.064H280.043H280.022H280.001H279.981H279.96H279.939H279.918H279.898H279.877H279.856H279.835H279.814H279.794H279.773H279.752H279.731H279.71H279.689H279.669H279.648H279.627H279.606H279.585H279.564H279.543H279.522H279.501H279.481H279.46H279.439H279.418H279.397H279.376H279.355H279.334H279.313H279.292H279.271H279.25H279.229H279.208H279.187H279.166H279.145H279.124H279.103H279.082H279.061H279.04H279.019H278.998H278.977H278.956H278.934H278.913H278.892H278.871H278.85H278.829H278.808H278.787H278.766H278.744H278.723H278.702H278.681H278.66H278.639H278.617H278.596H278.575H278.554H278.533H278.511H278.49H278.469H278.448H278.427H278.405H278.384H278.363H278.342H278.32H278.299H278.278H278.256H278.235H278.214H278.193H278.171H278.15H278.129H278.107H278.086H278.065H278.043H278.022H278.001H277.979H277.958H277.937H277.915H277.894H277.873H277.851H277.83H277.808H277.787H277.766H277.744H277.723H277.701H277.68H277.659H277.637H277.616H277.594H277.573H277.551H277.53H277.508H277.487H277.465H277.444H277.422H277.401H277.38H277.358H277.337H277.315H277.293H277.272H277.25H277.229H277.207H277.186H277.164H277.143H277.121H277.1H277.078H277.057H277.035H277.013H276.992H276.97H276.949H276.927H276.906H276.884H276.862H276.841H276.819H276.798H276.776H276.754H276.733H276.711H276.689H276.668H276.646H276.624H276.603H276.581H276.56H276.538H276.516H276.495H276.473H276.451H276.429H276.408H276.386H276.364H276.343H276.321H276.299H276.278H276.256H276.234H276.212H276.191H276.169H276.147H276.126H276.104H276.082H276.06H276.039H276.017H275.995H275.973H275.952H275.93H275.908H275.886H275.864H275.843H275.821H275.799H275.777H275.756H275.734H275.712H275.69H275.668H275.647H275.625H275.603H275.581H275.559H275.537H275.516H275.494H275.472H275.45H275.428H275.407H275.385H275.363H275.341H275.319H275.297H275.275H275.254H275.232H275.21H275.188H275.166H275.144H275.122H275.1H275.079H275.057H275.035H275.013H274.991H274.969H274.947H274.925H274.903H274.882H274.86H274.838H274.816H274.794H274.772H274.75H274.728H274.706H274.684H274.662H274.64H274.619H274.597H274.575H274.553H274.531H274.509H274.487H274.465H274.443H274.421H274.399H274.377H274.355H274.333H274.311H274.289H274.267H274.245H274.224H274.202H274.18H274.158H274.136H274.114H274.092H274.07H274.048H274.026H274.004H273.982H273.96H273.938H273.916H273.894H273.872H273.85H273.828H273.806H273.784H273.762H273.74H273.718H273.696H273.674H273.652H273.63H273.608H273.586H273.564H273.542H273.52H273.498H273.476H273.454H273.432H273.41H273.388H273.366H273.344H273.322H273.3H273.278H273.256H273.234H273.212H273.19H273.168H273.146H273.124H273.102H273.08H273.058H273.035H273.013H272.991H272.969H272.947H272.925H272.903H272.881H272.859H272.837H272.815H272.793H272.771H272.749H272.727H272.705H272.683H272.661H272.639H272.617H272.595H272.573H272.551H272.529H272.507H272.485H272.463H272.441H272.419H272.407L272.395 228.553C262.51 228.081 252.624 227.139 243.207 225.724C231.453 224.311 219.733 222.904 208.019 222.904H208.013H208.008H208.002H207.997H207.991H207.986H207.98H207.975H207.969H207.963H207.958H207.952H207.947H207.941H207.936H207.93H207.925H207.919H207.914H207.908H207.903H207.897H207.892H207.886H207.881H207.875H207.87H207.864H207.859H207.853H207.848H207.842H207.837H207.831H207.826H207.82H207.815H207.809H207.804H207.798H207.793H207.787H207.782H207.776H207.771H207.766H207.76H207.755H207.749H207.744H207.738H207.733H207.727H207.722H207.716H207.711H207.705H207.7H207.694H207.689H207.683H207.678H207.672H207.667H207.661H207.656H207.651H207.645H207.64H207.634H207.629H207.623H207.618H207.612H207.607H207.601H207.596H207.591H207.585H207.58H207.574H207.569H207.563H207.558H207.552H207.547H207.542H207.536H207.531H207.525H207.52H207.514H207.509H207.504H207.498H207.493H207.487H207.482H207.477H207.471H207.466H207.46H207.455H207.45H207.444H207.439H207.433H207.428H207.423H207.417H207.412H207.407H207.401H207.396H207.39H207.385H207.38H207.374H207.369H207.364H207.358H207.353H207.348H207.342H207.337H207.331H207.326H207.321H207.315H207.31H207.305H207.299H207.294H207.289H207.284H207.278H207.273H207.268H207.262H207.257H207.252H207.246H207.241H207.236H207.23H207.225H207.22H207.215H207.209H207.204H207.199H207.194H207.188H207.183H207.178H207.173H207.167H207.162H207.157H207.152H207.146H207.141H207.136H207.131H207.125H207.12H207.115H207.11H207.105H207.099H207.094H207.089H207.084H207.079H207.073H207.068H207.063H207.058H207.053H207.047H207.042H207.037H207.032H207.027H207.022H207.016H207.011H207.006H207.001H206.996H206.991H206.986H206.981H206.975H206.97H206.965H206.96H206.955H206.95H206.945H206.94H206.935H206.93H206.925H206.919H206.914H206.909H206.904H206.899H206.894H206.889H206.884H206.879H206.874H206.869H206.864H206.859H206.854H206.849H206.844H206.839H206.834H206.829H206.824H206.819H206.814H206.809H206.804H206.799H206.794H206.789H206.784H206.779H206.774H206.769H206.765H206.76H206.755H206.75H206.745H206.74H206.735H206.73H206.725H206.72H206.716H206.711H206.706H206.701H206.696H206.691H206.686H206.682H206.677H206.672H206.667H206.662H206.657H206.653H206.648H206.643H206.638H206.633H206.629H206.624H206.619H206.614H206.61H206.605H206.6H206.595H206.591H206.586H206.581H206.577H206.572H206.567H206.562H206.558H206.553H206.548H206.544H206.539H206.534H206.53H206.525H206.52H206.516H206.511H206.506H206.502H206.497H206.493H206.488H206.483H206.479H206.474H206.47H206.465H206.461H206.456H206.451H206.447H206.442H206.438H206.433H206.429H206.424H206.42H206.415H206.411H206.406H206.402H206.397H206.393H206.388H206.384H206.379H206.375H206.371H206.366H206.362H206.357H206.353H206.348H206.344H206.34H206.335H206.331H206.327H206.322H206.318H206.314H206.309H206.305H206.301H206.296H206.292H206.288H206.283H206.279H206.275H206.27H206.266H206.262H206.258H206.253H206.249H206.245H206.241H206.236H206.232H206.228H206.224H206.22H206.215H206.211H206.207H206.203H206.199H206.195H206.191H206.186H206.182H206.178H206.174H206.17H206.166H206.162H206.158H206.154H206.15H206.146H206.142H206.138H206.133H206.129H206.125H206.121H206.117H206.113H206.109H206.106H206.102H206.098H206.094H206.09H206.086H206.082H206.078H206.074H206.07H206.066H206.062H206.058H206.055H206.051H206.047H206.043H206.039H206.035H206.032H206.028H206.024H206.02H206.016H206.013H206.009H206.005H206.001H205.998H205.994H205.99H205.986H205.983H205.979H205.975H205.972H205.968H205.964H205.961H205.957H205.953H205.95H205.946H205.943H205.939H205.935H205.932H205.928H205.925H205.921H205.918H205.914H205.911H205.907H205.904H205.9H205.897H205.893H205.89H205.886H205.883H205.879H205.876H205.872H205.869H205.866H205.862H205.859H205.855H205.852H205.849H205.845H205.842H205.839H205.835H205.832H205.829H205.825H205.822H205.819H205.816H205.812H205.809H205.806H205.803H205.799H205.796H205.793H205.79H205.787H205.784H205.78H205.777H205.774H205.771H205.768H205.765H205.762H205.759H205.756H205.753H205.749H205.746H205.743H205.74H205.737H205.734H205.731H205.728H205.725H205.722H205.719H205.717H205.714H205.711H205.708H205.705H205.702H205.699H205.696H205.693H205.691H205.688H205.685H205.682H205.679H205.677H205.674H205.673C182.697 223.374 161.605 227.601 142.864 235.109L142.856 235.112L142.848 235.115C119.419 243.563 99.7499 256.228 85.2376 271.226C75.7928 283.391 66.346 297.284 57.3111 312.494C62.3467 309.083 68.0487 305.905 73.6484 302.784C74.9621 302.052 76.2701 301.323 77.5626 300.595C77.5627 300.595 77.5628 300.595 77.5629 300.595L77.8083 301.03C105.073 285.493 150.2 273.723 153.02 273.252L295.013 249.211ZM295.013 249.211H294.982C293.836 249.211 292.686 249.096 291.506 248.978L291.494 248.977C290.335 248.861 289.147 248.742 287.955 248.74C272.902 247.328 258.791 246.857 245.154 246.857C220.919 246.857 201.009 249.095 185.554 253.467C170.198 257.811 159.191 264.277 152.737 272.796L295.013 249.211Z" stroke="white"/>
<path d="M35.4037 366.719C41.5459 360.041 50.0516 355.577 55.0331 353.309C76.6209 342.969 101.014 336.372 124.032 334.919C126.418 330.315 128.125 326.395 129.751 322.66C129.991 322.109 130.23 321.561 130.468 321.016C132.351 316.715 134.241 312.573 137.077 307.838M35.4037 366.719L137.507 308.093M35.4037 366.719C35.0736 363.376 35.1553 360.007 35.9805 356.266C40.1732 346.026 47.8571 337.155 56.8026 329.543C65.7571 321.922 75.9494 315.584 85.1046 310.412C100.111 301.957 123.54 291.165 149.765 287.406H150.199H150.699V286.906V285.701C165.143 271.331 185.15 265.726 205.282 261.975C217.483 260.095 231.087 258.686 246.094 258.686C258.302 258.686 271.45 259.156 288.831 260.568L288.851 260.569H288.871C289.771 260.569 290.56 260.681 291.386 260.8L291.397 260.801C292.208 260.917 293.054 261.038 294.021 261.04C299.655 261.51 305.777 261.982 311.435 261.982C317.554 261.982 322.783 261.512 327.087 260.079C330.918 259.115 334.728 256.73 338.45 254.4L338.486 254.377C338.487 254.376 338.489 254.376 338.49 254.375C339.013 254.06 339.554 253.726 340.104 253.387C342.064 252.176 344.14 250.895 345.936 250.175L345.945 250.172C357.962 245.079 369.974 246.902 381.583 256.182L35.4037 366.719ZM137.077 307.838C137.078 307.837 137.078 307.836 137.078 307.836L137.507 308.093M137.077 307.838C137.077 307.838 137.077 307.838 137.077 307.838L137.507 308.093M137.077 307.838C138.197 305.949 139.064 304.65 139.719 303.852C140.043 303.457 140.338 303.156 140.604 302.971C140.84 302.808 141.239 302.613 141.627 302.845C141.804 302.951 141.908 303.111 141.968 303.253C142.029 303.396 142.062 303.553 142.079 303.707C142.115 304.016 142.1 304.4 142.053 304.828C141.96 305.69 141.726 306.838 141.401 308.154C140.238 312.866 137.851 319.975 136.182 324.625M137.507 308.093C146.169 293.482 138.915 315.623 135.467 325.133C135.703 324.963 135.941 324.793 136.182 324.625M136.182 324.625C136.08 324.909 135.981 325.184 135.885 325.449C135.639 325.626 135.396 325.804 135.157 325.984L161.951 313.272C174.643 309.505 188.275 306.68 201.907 306.209M136.182 324.625C143.676 319.403 153.807 315.463 161.793 312.797L161.801 312.795L161.809 312.792C174.521 309.02 188.19 306.185 201.871 305.71M201.871 305.71C201.865 305.711 201.858 305.712 201.852 305.712L201.907 306.209M201.871 305.71C201.877 305.71 201.884 305.71 201.89 305.71L201.907 306.209M201.871 305.71C206.124 305.239 210.841 305.239 215.522 305.239H215.54C234.364 305.239 253.654 306.652 271.995 308.536M201.907 306.209C206.138 305.739 210.839 305.739 215.54 305.739C234.342 305.739 253.615 307.151 271.948 309.034M271.948 309.034L271.99 308.536C271.992 308.536 271.993 308.536 271.995 308.536M271.948 309.034C274.769 309.27 277.707 309.505 280.645 309.741C283.583 309.976 286.521 310.211 289.341 310.447M271.948 309.034L271.999 308.537C271.998 308.537 271.996 308.537 271.995 308.536M271.995 308.536C274.812 308.772 277.748 309.007 280.684 309.242L280.685 309.242C283.615 309.477 286.547 309.712 289.362 309.947M289.341 310.447V309.947C289.348 309.947 289.355 309.947 289.362 309.947M289.341 310.447C291.221 310.447 294.042 310.918 296.862 311.388M289.341 310.447L289.383 309.948C289.376 309.948 289.369 309.947 289.362 309.947M289.362 309.947C291.284 309.95 294.123 310.424 296.901 310.888L296.928 310.893L296.862 311.388M296.862 311.388L296.945 310.895L296.937 310.894L349.51 304.797M296.862 311.388C303.913 312.33 313.785 313.272 323.186 313.272C337.289 313.272 346.22 310.447 349.51 304.797M349.51 304.797L349.063 305.02L348.94 304.775C348.988 304.699 349.034 304.622 349.078 304.545L349.51 304.797ZM398.403 280.243C398.512 280.414 398.62 280.585 398.728 280.756C398.932 280.764 399.135 280.774 399.338 280.785C399.229 280.613 399.12 280.44 399.011 280.268C398.809 280.258 398.606 280.25 398.403 280.243Z" stroke="white"/>
<path d="M318.956 326.483L318.964 326.483C347.109 326.013 363.407 318.985 368.74 303.681C376.629 297.21 385.406 293.997 393.227 293.997C400.588 293.997 407.029 296.748 412.573 302.281C416.657 309.099 421.173 316.788 425.703 325.35C422.728 324.929 419.689 324.542 416.261 324.542C399.223 324.542 379.83 331.644 367.512 342.559L367.5 342.569L367.489 342.58C366.42 343.65 366.173 344.979 366.053 346.179C366.028 346.429 366.009 346.665 365.991 346.893C365.963 347.238 365.937 347.565 365.893 347.899C365.823 348.435 365.715 348.902 365.516 349.301C365.326 349.68 365.036 349.981 364.638 350.322C364.532 350.413 364.416 350.509 364.292 350.611C363.974 350.873 363.61 351.173 363.259 351.525C361.407 353.38 359.099 355.227 356.338 356.61L356.331 356.614L356.324 356.617C350.218 359.911 343.68 363.182 336.689 365.049L336.681 365.051L336.673 365.054C321.233 369.74 302.96 370.682 290.281 370.682H290.262H290.243H290.223H290.204H290.185H290.165H290.146H290.127H290.108H290.088H290.069H290.05H290.031H290.011H289.992H289.973H289.953H289.934H289.915H289.896H289.876H289.857H289.838H289.818H289.799H289.78H289.761H289.741H289.722H289.703H289.684H289.664H289.645H289.626H289.607H289.587H289.568H289.549H289.529H289.51H289.491H289.472H289.452H289.433H289.414H289.395H289.375H289.356H289.337H289.318H289.298H289.279H289.26H289.241H289.221H289.202H289.183H289.164H289.144H289.125H289.106H289.087H289.067H289.048H289.029H289.01H288.99H288.971H288.952H288.933H288.914H288.894H288.875H288.856H288.837H288.817H288.798H288.779H288.76H288.741H288.721H288.702H288.683H288.664H288.645H288.625H288.606H288.587H288.568H288.548H288.529H288.51H288.491H288.472H288.453H288.433H288.414H288.395H288.376H288.357H288.337H288.318H288.299H288.28H288.261H288.242H288.222H288.203H288.184H288.165H288.146H288.127H288.108H288.088H288.069H288.05H288.031H288.012H287.993H287.974H287.954H287.935H287.916H287.897H287.878H287.859H287.84H287.821H287.802H287.782H287.763H287.744H287.725H287.706H287.687H287.668H287.649H287.63H287.611H287.592H287.572H287.553H287.534H287.515H287.496H287.477H287.458H287.439H287.42H287.401H287.382H287.363H287.344H287.325H287.306H287.287H287.268H287.249H287.23H287.211H287.192H287.173H287.154H287.135H287.116H287.097H287.078H287.059H287.04H287.021H287.002H286.983H286.964H286.945H286.926H286.907H286.888H286.869H286.85H286.831H286.812H286.793H286.774H286.755H286.736H286.718H286.699H286.68H286.661H286.642H286.623H286.604H286.585H286.566H286.547H286.529H286.51H286.491H286.472H286.453H286.434H286.415H286.397H286.378H286.359H286.34H286.321H286.302H286.284H286.265H286.246H286.227H286.208H286.189H286.171H286.152H286.133H286.114H286.096H286.077H286.058H286.039H286.02H286.002H285.983H285.964H285.945H285.927H285.908H285.889H285.871H285.852H285.833H285.814H285.796H285.777H285.758H285.74H285.721H285.702H285.684H285.665H285.646H285.628H285.609H285.59H285.572H285.553H285.534H285.516H285.497H285.479H285.46H285.441H285.423H285.404H285.386H285.367H285.348H285.33H285.311H285.293H285.274H285.256H285.237H285.219H285.2H285.181H285.163H285.144H285.126H285.107H285.089H285.07H285.052H285.033H285.015H284.996H284.978H284.96H284.941H284.923H284.904H284.886H284.867H284.849H284.831H284.812H284.794H284.775H284.757H284.739H284.72H284.702H284.683H284.665H284.647H284.628H284.61H284.592H284.573H284.555H284.537H284.518H284.5H284.482H284.463H284.445H284.427H284.409H284.39H284.372H284.354H284.336H284.317H284.299H284.281H284.263H284.244H284.226H284.208H284.19H284.172H284.153H284.135H284.117H284.099H284.081H284.063H284.045H284.026H284.008H283.99H283.972H283.954H283.936H283.918H283.9H283.882H283.864H283.845H283.827H283.809H283.791H283.773H283.755H283.737H283.719H283.701H283.683H283.665H283.647H283.629H283.611H283.593H283.575H283.557H283.54H283.522H283.504H283.486H283.468H283.45H283.432H283.414H283.396H283.378H283.361H283.343H283.325H283.307H283.289H283.271H283.254H283.236H283.218H283.2H283.182H283.165H283.147H283.129H283.111H283.094H283.076H283.058H283.04H283.023H283.005H282.987H282.97H282.952H282.934H282.917H282.899H282.881H282.864H282.846H282.828H282.811H282.793H282.776H282.758H282.74H282.723H282.705H282.688H282.67H282.653H282.635H282.618H282.6H282.583H282.565H282.548H282.53H282.513H282.495H282.478H282.46H282.443H282.425H282.408H282.391H282.373H282.356H282.339H282.321H282.304H282.286H282.269H282.252H282.234H282.217H282.2H282.183H282.165H282.148H282.131H282.113H282.096H282.079H282.062H282.044H282.027H282.01H281.993H281.976H281.958H281.941H281.924H281.907H281.89H281.873H281.856H281.839H281.821H281.804H281.787H281.77H281.753H281.736H281.719H281.702H281.685H281.668H281.651H281.634H281.617H281.6H281.583H281.566H281.549H281.532H281.515H281.498H281.481H281.465H281.448H281.431H281.414H281.397H281.38H281.363H281.347H281.33H281.313H281.296H281.279H281.263H281.246H281.229H281.212H281.196H281.179H281.162H281.145H281.129H281.112H281.095H281.079H281.062H281.046H281.029H281.012H280.996H280.979H280.962H280.946H280.929H280.913H280.896C277.367 370.447 273.723 370.329 270.088 370.211L270.084 370.211C266.44 370.094 262.806 369.976 259.291 369.741C245.647 368.799 232.004 368.328 218.36 368.328C206.598 368.328 195.762 368.799 185.858 370.215C153.237 374.357 129.511 381.204 112.56 392.996C115.742 382.65 119.336 372.321 122.931 362.418C134.559 334.485 169.031 320.363 224.943 319.892C236.678 319.892 249.351 320.362 263.902 321.772C267.665 322.243 271.897 322.714 277.068 323.185C277.95 323.287 278.848 323.391 279.759 323.497C291.455 324.859 305.406 326.483 318.956 326.483Z" stroke="white"/>
<path d="M377.598 352.232L377.607 352.223C385.978 343.373 400.421 336.842 412.97 336.842C419.495 336.842 428.618 338.245 433.652 344.556C435.471 355.204 433.138 363.939 427.177 370.37C419.768 378.254 407.689 381.982 399.808 381.982C391.334 381.982 386.279 381.504 382.639 379.681L382.626 379.674L382.612 379.669L379.322 378.256L378.355 377.841L378.644 378.853L379.584 382.148L379.587 382.159L379.59 382.169L379.592 382.175C380.997 386.396 382.405 390.628 383.815 394.395C384.723 398.516 384.246 401.628 382.031 404.291L382.021 404.302L382.013 404.314C380.082 406.93 377.017 409.123 373.263 410.967C369.514 412.808 365.112 414.284 360.547 415.486C352.391 417.633 343.765 418.892 337.486 419.808C336.733 419.918 336.014 420.023 335.334 420.124L335.31 420.127L335.286 420.133L333.433 420.598C305.728 424.359 276.611 426.24 248.889 427.652L248.876 427.653C242.77 428.123 236.664 428.476 230.552 428.829L230.549 428.83C224.44 429.183 218.325 429.536 212.21 430.007C199.973 430.95 178.91 433.189 156.077 438.612C133.688 443.929 109.563 452.315 90.3899 465.567C90.5079 465.138 90.6263 464.723 90.7453 464.306L90.7461 464.304C90.9807 463.481 91.2176 462.65 91.4547 461.701L91.4549 461.7C98.6983 432.446 118.322 412.658 143.022 400.113C167.73 387.563 197.497 382.276 224.942 382.041H224.96H224.979H224.998H225.018H225.037H225.056H225.075H225.095H225.114H225.133H225.153H225.172H225.191H225.21H225.23H225.249H225.268H225.287H225.307H225.326H225.345H225.365H225.384H225.403H225.422H225.442H225.461H225.48H225.5H225.519H225.538H225.557H225.577H225.596H225.615H225.635H225.654H225.673H225.692H225.712H225.731H225.75H225.769H225.789H225.808H225.827H225.847H225.866H225.885H225.904H225.924H225.943H225.962H225.982H226.001H226.02H226.039H226.059H226.078H226.097H226.117H226.136H226.155H226.174H226.194H226.213H226.232H226.251H226.271H226.29H226.309H226.329H226.348H226.367H226.386H226.406H226.425H226.444H226.464H226.483H226.502H226.521H226.541H226.56H226.579H226.599H226.618H226.637H226.656H226.676H226.695H226.714H226.734H226.753H226.772H226.791H226.811H226.83H226.849H226.868H226.888H226.907H226.926H226.946H226.965H226.984H227.003H227.023H227.042H227.061H227.081H227.1H227.119H227.138H227.158H227.177H227.196H227.216H227.235H227.254H227.273H227.293H227.312H227.331H227.35H227.37H227.389H227.408H227.428H227.447H227.466H227.485H227.505H227.524H227.543H227.563H227.582H227.601H227.62H227.64H227.659H227.678H227.698H227.717H227.736H227.755H227.775H227.794H227.813H227.832H227.852H227.871H227.89H227.91H227.929H227.948H227.967H227.987H228.006H228.025H228.045H228.064H228.083H228.102H228.122H228.141H228.16H228.18H228.199H228.218H228.237H228.257H228.276H228.295H228.314H228.334H228.353H228.372H228.392H228.411H228.43H228.449H228.469H228.488H228.507H228.527H228.546H228.565H228.584H228.604H228.623H228.642H228.662H228.681H228.7H228.719H228.739H228.758H228.777H228.796H228.816H228.835H228.854H228.874H228.893H228.912H228.931H228.951H228.97H228.989H229.009H229.028H229.047H229.066H229.086H229.105H229.124H229.144H229.163H229.182H229.201H229.221H229.24H229.259H229.279H229.298H229.317H229.336H229.356H229.375H229.394H229.413H229.433H229.452H229.471H229.491H229.51H229.529H229.548H229.568H229.587H229.606H229.626H229.645H229.664H229.683H229.703H229.722H229.741H229.761H229.78H229.799H229.818H229.838H229.857H229.876H229.895H229.915H229.934H229.953H229.973H229.992H230.011H230.03H230.05H230.069H230.088H230.108H230.127H230.146H230.165H230.185H230.204H230.223H230.243H230.262H230.281H230.3H230.32H230.339H230.358H230.377H230.397H230.416H230.435H230.455H230.474H230.493H230.512H230.532H230.551H230.57H230.59H230.609H230.628H230.647H230.667H230.686H230.705H230.725H230.744H230.763H230.782H230.802H230.821H230.84H230.859H230.879H230.898H230.917H230.937H230.956H230.975H230.994H231.014H231.033H231.052H231.072H231.091H231.11H231.129H231.149H231.168H231.187H231.207H231.226H231.245H231.264H231.284H231.303H231.322H231.342H231.361H231.38H231.399H231.419H231.438H231.457H231.476H231.496H231.515H231.534H231.554H231.573H231.592H231.611H231.631H231.65H231.669H231.689H231.708H231.727H231.746H231.766H231.785H231.804H231.824H231.843H231.862H231.881H231.901H231.92H231.939H231.958H231.978H231.997H232.016H232.036H232.055H232.074H232.093H232.113H232.132H232.151H232.171H232.19H232.209H232.228H232.248H232.267H232.286H232.306H232.325H232.344H232.363H232.383H232.402H232.421H232.44H232.46H232.479H232.498H232.518H232.537H232.556H232.575H232.595H232.614H232.633H232.653H232.672H232.691H232.71H232.73H232.749H232.768H232.788H232.807H232.826H232.845H232.865H232.884H232.903H232.922H232.942H232.961H232.98H233H233.019H233.038H233.057H233.077H233.096H233.115H233.135H233.154H233.173H233.192H233.212H233.231H233.25H233.27H233.289H233.308H233.327H233.347H233.366H233.385H233.404H233.424H233.443H233.462H233.482H233.501H233.52H233.539H233.559H233.578H233.597H233.617H233.636H233.655H233.674H233.694H233.713H233.732H233.752H233.771H233.79H233.809H233.829H233.848H233.867H233.887H233.906H233.925H233.944H233.964H233.983H234.002H234.021H234.041H234.06H234.079H234.099H234.118H234.137H234.156H234.176H234.195H234.214H234.234H234.253H234.272H234.291H234.311H234.33H234.349H234.369H234.388H234.407H234.426H234.446H234.465H234.484H234.503H234.523H234.542H234.561H234.581H234.6H234.619H234.638H234.658H234.677H234.696H234.716H234.735H234.754H234.773H234.793H234.812C240.636 382.041 246.46 382.41 252.96 382.823C253.783 382.875 254.616 382.928 255.462 382.981C268.621 383.922 282.27 384.865 295.921 384.865C307.924 384.865 322.543 384.159 336.702 380.672C350.858 377.187 364.59 370.914 374.785 359.758L375.248 359.294L375.466 359.076L375.368 358.783L374.505 356.19L375.31 354.981L375.327 354.955L375.341 354.927C375.534 354.54 375.827 354.241 376.188 353.88L376.208 353.86C376.532 353.535 376.913 353.154 377.183 352.648L377.598 352.232Z" stroke="white"/>
<path d="M286.992 438.067H287.004L287.016 438.067C306.748 437.126 343.94 435.242 371.736 427.692L371.747 427.689L371.757 427.686C376.948 426.031 381.214 424.253 384.545 422.347C387.463 420.676 389.685 418.896 391.179 416.994C392.23 420.225 393.193 423.547 394.158 426.878L394.16 426.882C395.215 430.524 396.274 434.176 397.451 437.713C399.765 446.068 398.822 453.413 393.787 459.373L393.787 459.373L393.781 459.38C389.74 464.353 383.506 468.344 375.905 471.565C368.309 474.784 359.384 477.218 350.001 479.098C331.646 482.774 311.601 484.317 296.432 485.485C296.097 485.511 295.764 485.536 295.434 485.562H293.076C290.342 462.777 288.053 446.657 286.641 438.067H286.992Z" stroke="white"/>
<path d="M80.6416 505.971C88.5627 481.736 112.802 463.453 153.159 451.703C174.439 445.68 196.643 443.31 214.381 441.892C212.894 447.034 210.106 460.471 207.646 472.901C206.353 479.435 205.148 485.704 204.267 490.369C203.826 492.702 203.466 494.634 203.216 495.998C203.091 496.68 202.993 497.22 202.927 497.599C202.908 497.707 202.892 497.802 202.878 497.884C156.898 507.311 109 522.864 75.6045 553.009C73.6202 554.601 71.9653 556.522 70.1283 558.729C72.9112 541.43 76.5565 523.703 80.6416 505.971Z" stroke="white"/>
<path d="M32.3932 521.782L32.3942 521.782C33.0206 522.221 33.7972 522.726 34.665 523.29C37.1311 524.893 40.3332 526.974 42.9164 529.389C44.6562 531.015 46.0633 532.749 46.7583 534.532C47.4436 536.289 47.4414 538.098 46.3522 539.952L46.3491 539.958C44.598 543.027 41.1801 544.177 37.4484 544.12C33.7207 544.062 29.8156 542.794 27.3091 541.196L27.3048 541.194C6.29746 528.102 -2.97226 508.526 1.67443 487.582L1.67454 487.582L1.67662 487.572C5.40111 468.92 19.383 452.078 39.035 440.829C40.5383 440.019 41.7562 439.541 42.6507 439.334C43.0994 439.231 43.4459 439.2 43.6959 439.219C43.9523 439.238 44.0506 439.304 44.0792 439.333L44.0795 439.333C44.0908 439.345 44.1276 439.381 44.1083 439.525C44.0868 439.685 43.9982 439.928 43.79 440.258C43.3762 440.913 42.5719 441.784 41.2993 442.827C25.7249 455.119 16.2212 469.823 14.7915 485.065C12.8873 499.871 19.5791 512.75 32.3932 521.782Z" stroke="white"/>
<path d="M484.405 443.58C483.963 445.572 482.741 447.363 481.167 448.658C479.591 449.954 477.702 450.721 475.961 450.721C474.265 450.721 472.89 449.878 472.035 448.539C471.174 447.192 470.834 445.33 471.279 443.326C471.721 441.333 472.943 439.542 474.516 438.248C476.083 436.959 477.959 436.193 479.691 436.184C481.422 436.409 482.805 437.275 483.654 438.551C484.509 439.835 484.849 441.576 484.405 443.58Z" stroke="white"/>
<path d="M275.711 148.514C298.836 148.514 314.467 137.674 323.964 123.039C337.591 120.289 352.158 115.325 361.234 106.821C361.185 121.693 356.528 136.565 348.171 149.597C336.09 163.536 318.894 165.876 309.556 165.876C303.97 165.876 297.908 164.944 292.776 163.543C278.147 158.818 262.584 156.931 247.037 156.931C219.807 156.931 193.964 163.953 173.236 177.083C168.201 173.847 163.618 170.161 159.487 166.023C153.437 159.964 151.727 154.535 153.944 149.642C155.528 146.475 158.779 143.538 163.271 140.913C167.757 138.291 173.431 136.01 179.781 134.134C192.483 130.382 207.83 128.269 221.653 128.269H221.655H221.658H221.661H221.664H221.667H221.669H221.672H221.675H221.678H221.681H221.684H221.686H221.689H221.692H221.695H221.698H221.701H221.704H221.707H221.71H221.713H221.716H221.719H221.722H221.725H221.728H221.731H221.734H221.737H221.74H221.743H221.746H221.749H221.752H221.755H221.759H221.762H221.765H221.768H221.771H221.774H221.778H221.781H221.784H221.787H221.79H221.794H221.797H221.8H221.803H221.807H221.81H221.813H221.817H221.82H221.823H221.826H221.83H221.833H221.837H221.84H221.843H221.847H221.85H221.853H221.857H221.86H221.864H221.867H221.871H221.874H221.878H221.881H221.884H221.888H221.892H221.895H221.899H221.902H221.906H221.909H221.913H221.916H221.92H221.923H221.927H221.931H221.934H221.938H221.942H221.945H221.949H221.952H221.956H221.96H221.964H221.967H221.971H221.975H221.978H221.982H221.986H221.99H221.993H221.997H222.001H222.005H222.008H222.012H222.016H222.02H222.024H222.028H222.031H222.035H222.039H222.043H222.047H222.051H222.055H222.058H222.062H222.066H222.07H222.074H222.078H222.082H222.086H222.09H222.094H222.098H222.102H222.106H222.11H222.114H222.118H222.122H222.126H222.13H222.134H222.138H222.142H222.146H222.15H222.154H222.159H222.163H222.167H222.171H222.175H222.179H222.183H222.187H222.192H222.196H222.2H222.204H222.208H222.213H222.217H222.221H222.225H222.229H222.234H222.238H222.242H222.246H222.251H222.255H222.259H222.263H222.268H222.272H222.276H222.281H222.285H222.289H222.294H222.298H222.302H222.307H222.311H222.315H222.32H222.324H222.329H222.333H222.337H222.342H222.346H222.351H222.355H222.359H222.364H222.368H222.373H222.377H222.382H222.386H222.391H222.395H222.4H222.404H222.409H222.413H222.418H222.422H222.427H222.431H222.436H222.44H222.445H222.45H222.454H222.459H222.463H222.468H222.472H222.477H222.482H222.486H222.491H222.496H222.5H222.505H222.509H222.514H222.519H222.523H222.528H222.533H222.537H222.542H222.547H222.552H222.556H222.561H222.566H222.57H222.575H222.58H222.585H222.589H222.594H222.599H222.604H222.608H222.613H222.618H222.623H222.628H222.632H222.637H222.642H222.647H222.652H222.656H222.661H222.666H222.671H222.676H222.681H222.685H222.69H222.695H222.7H222.705H222.71H222.715H222.72H222.724H222.729H222.734H222.739H222.744H222.749H222.754H222.759H222.764H222.769H222.774H222.779H222.784H222.789H222.794H222.798H222.803H222.808H222.813H222.818H222.823H222.828H222.833H222.838H222.843H222.848H222.853H222.858H222.864H222.869H222.874H222.879H222.884H222.889H222.894H222.899H222.904H222.909H222.914H222.919H222.924H222.929H222.934H222.939H222.945H222.95H222.955H222.96H222.965H222.97H222.975H222.98H222.986H222.991H222.996H223.001H223.006H223.011H223.016H223.022H223.027H223.032H223.037H223.042H223.047H223.053H223.058H223.063H223.068H223.073H223.079H223.084H223.089H223.094H223.099H223.105H223.11H223.115H223.12H223.125H223.131H223.136H223.141H223.146H223.152H223.157H223.162H223.167H223.173H223.178H223.183H223.189H223.194H223.199H223.204H223.21H223.215H223.22H223.226H223.231H223.236H223.241H223.247H223.252H223.257H223.263H223.268H223.273H223.279H223.284H223.289H223.295H223.3H223.305H223.311H223.316H223.321H223.327H223.332H223.337H223.343H223.348H223.353H223.359H223.364H223.369H223.375H223.38H223.386H223.391H223.396H223.402H223.407H223.412H223.418H223.423H223.429H223.434H223.439H223.445H223.45H223.456H223.461H223.466H223.472H223.477H223.483H223.488H223.494H223.499H223.504H223.51H223.515H223.521H223.526H223.531H223.537H223.542H223.548H223.553H223.559H223.564H223.57H223.575H223.58H223.586H223.591H223.597H223.602H223.608H223.613H223.619H223.624H223.63H223.635H223.64H223.646H223.651H223.657H223.662H223.668H223.673H223.679H223.684H223.69H223.695H223.701H223.706H223.712H223.717H223.723H223.728H223.733H223.739H223.744H223.75H223.755H223.761H223.766H223.772H223.777H223.783H223.788H223.794H223.799H223.805H223.81H223.816H223.821H223.827H223.832H223.838H223.843H223.849H223.854H223.86H223.865H223.871H223.876H223.882H223.887H223.893H223.898H223.904H223.909H223.915H223.92H223.926H223.931H223.937H223.942H223.948H223.953H223.959H223.964H223.97H223.975H223.981H223.986H223.992H223.997H224.003H224.011H224.02H224.028H224.036H224.044H224.052H224.061H224.069H224.077H224.085H224.093H224.101H224.11H224.118H224.126H224.134H224.142H224.15H224.158H224.166H224.174H224.182H224.19H224.198H224.206H224.214H224.222H224.23H224.238H224.246H224.254H224.262H224.27H224.278H224.286H224.294H224.302H224.31H224.317H224.325H224.333H224.341H224.349H224.357H224.365H224.372H224.38H224.388H224.396H224.404H224.411H224.419H224.427H224.435H224.442H224.45H224.458H224.466H224.473H224.481H224.489H224.496H224.504H224.512H224.519H224.527H224.535H224.542H224.55H224.557H224.565H224.573H224.58H224.588H224.595H224.603H224.611H224.618H224.626H224.633H224.641H224.648H224.656H224.663H224.671H224.678H224.686H224.693H224.701H224.708H224.716H224.723H224.731H224.738H224.745H224.753H224.76H224.768H224.775H224.783H224.79H224.797H224.805H224.812H224.819H224.827H224.834H224.841H224.849H224.856H224.863H224.871H224.878H224.885H224.893H224.9H224.907H224.915H224.922H224.929H224.936H224.944H224.951H224.958H224.966H224.973H224.98H224.987H224.994H225.002H225.009H225.016H225.023H225.031H225.038H225.045H225.052H225.059H225.066H225.074H225.081H225.088H225.095H225.102H225.109H225.117H225.124H225.131H225.138H225.145H225.152H225.159H225.166H225.174H225.181H225.188H225.195H225.202H225.209H225.216H225.223H225.23H225.237H225.244H225.251H225.258H225.266H225.273H225.28H225.287H225.294H225.301H225.308H225.315H225.322H225.329H225.336H225.343H225.35H225.357H225.364H225.371H225.378H225.385H225.392H225.399H225.406H225.413H225.42H225.427H225.434H225.441H225.448H225.455H225.462H225.469H225.476H225.483H225.49H225.496H225.503H225.51H225.517H225.524H225.531H225.538H225.545H225.552H225.559H225.566H225.573H225.58H225.587H225.594H225.6H225.607H225.614H225.621H225.628H225.635H225.642H225.649H225.656H225.663H225.67H225.677H225.683H225.69H225.697H225.704H225.711H225.718H225.725H225.732H225.739H225.746H225.752H225.759H225.766H225.773H225.78H225.787H225.794H225.801H225.808H225.814H225.821H225.828H225.835H225.842H225.849H225.856H225.863H225.87H225.876H225.883H225.89H225.897H225.904H225.911H225.918H225.925H225.932H225.938H225.945H225.952H225.959H225.966H225.973H225.98H225.987H225.993H226H226.007H226.014H226.021H226.028H226.035H226.042H226.049H226.056H226.062H226.069H226.076H226.083H226.09H226.097H226.104H226.111H226.118H226.125H226.132H226.138H226.145H226.152H226.159H226.166H226.173H226.18H226.187H226.194H226.201H226.208H226.215H226.222H226.228H226.235H226.242H226.249H226.256H226.263H226.27H226.277H226.284H226.291H226.298H226.305H226.312H226.319H226.326H226.333H226.34H226.347H226.354H226.361H226.368H226.375H226.382H226.389H226.396H226.403H226.41H226.417H226.424H226.431H226.438H226.445H226.452H226.459H226.466H226.473H226.48H226.487H226.494H226.501H226.508H226.515H226.522H226.529H226.536H226.543H226.551H226.558H226.565H226.572H226.579H226.586H226.593H226.6H226.607H226.614H226.622H226.629H226.636H226.643H226.65H226.657H226.664H226.672H226.679H226.686H226.693H226.7H226.707H226.715H226.722H226.729H226.736H226.743H226.75H226.758H226.765H226.772H226.779H226.787H226.794H226.801H226.808H226.816H226.823H226.83H226.837H226.845H226.852H226.859H226.867H226.874H226.881H226.888H226.896H226.903H226.91H226.918H226.925H226.932H226.94H226.947H226.955H226.962H226.969H226.977H226.984H226.991H226.999H227.006H227.014H227.021H227.029H227.036H227.043H227.051H227.058H227.066H227.073H227.081H227.088H227.096H227.103H227.111H227.118H227.126H227.133H227.141H227.148H227.156H227.164H227.171H227.179H227.186H227.194H227.202H227.209H227.217H227.224H227.232H227.24H227.247H227.255H227.263H227.27H227.278H227.286H227.293H227.301H227.309H227.316H227.324H227.332H227.34H227.347H227.355H227.363H227.371H227.379H227.386H227.394H227.402H227.41H227.418H227.426H227.433H227.441H227.449H227.457H227.465H227.473H227.481H227.489H227.497H227.504H227.512H227.52H227.528H227.536H227.541C240.341 142.402 258.744 148.514 275.711 148.514Z" stroke="white"/>
<path d="M252.915 21.8653L251.752 21.2382L252.208 22.4779C252.99 24.6028 252.868 26.438 252.192 27.9413C251.512 29.454 250.25 30.6745 248.68 31.5165C245.521 33.2116 241.264 33.3014 238.393 31.3128C235.083 28.9448 231.844 27.1342 228.456 26.4069C225.049 25.6756 221.525 26.0475 217.668 27.9789L217.661 27.9823L217.655 27.9859C215.34 29.2341 213.279 30.8237 211.274 32.3699C210.596 32.893 209.924 33.4111 209.251 33.9093C206.565 35.8975 203.817 37.6095 200.401 38.2937L200.393 38.2953L200.386 38.2971C186.268 41.5964 173.536 45.3728 161.737 51.0455L161.723 51.0519L161.71 51.0592C160.034 51.9919 158.359 52.8497 156.705 53.6968C156.281 53.914 155.858 54.1305 155.437 54.3473C154.204 54.9823 152.988 55.6198 151.802 56.2845C172.646 30.8105 208.27 14.8014 247.037 14.8014C264.828 14.8014 281.682 18.0821 297.603 24.1759L298.521 24.6357L298.843 24.7973L299.098 24.5419L300.039 23.6003C305.158 18.4724 311.662 14.2895 319.079 12.4324L319.093 12.4288L319.107 12.4245C326.333 10.1629 333.997 10.1025 341.246 12.2434C336.528 20.2623 326.957 26.0877 313.737 27.4577C313.736 27.4577 313.736 27.4578 313.735 27.4578L309.036 27.9285L309.028 27.9293L309.02 27.9304C307.496 28.1339 306.017 28.3372 304.574 28.5356C299.358 29.2528 294.607 29.906 289.856 30.2753C286.08 29.3366 282.302 28.8676 278.061 28.8676C271.647 28.8676 265.239 29.7558 259.268 31.0994C259.078 28.1665 257.569 25.9061 256.093 24.3717C255.303 23.5492 254.513 22.9257 253.921 22.5075C253.624 22.2981 253.376 22.1394 253.201 22.0322C253.113 21.9786 253.043 21.9378 252.995 21.91C252.97 21.896 252.951 21.8853 252.938 21.8779L252.922 21.8691L252.917 21.8666L252.916 21.8658L252.915 21.8655C252.915 21.8654 252.915 21.8653 252.677 22.3053L252.915 21.8653Z" stroke="white"/>
<path d="M311.92 40.5457C316.248 40.0416 320.879 39.1916 325.118 38.3431H328.359H330.008L328.637 37.4273L325.921 35.6143C325.583 35.0067 325.078 34.5789 324.541 34.2405C333.651 31.7707 344.657 26.6813 351.522 17.3301C355.047 19.5882 358.145 22.2709 360.818 25.3785C362.169 29.7245 362.024 33.3177 360.582 36.2073C359.127 39.121 356.31 41.4067 352.154 43.0259C348.455 44.4148 343.811 45.3489 338.21 45.8178H334.47H333.264L334.116 46.6711L336.466 49.0252C337.697 50.2576 337.72 51.9176 337.286 53.2222C336.397 55.894 334.156 58.1601 331.878 59.5332C331.045 59.9502 330.229 60.3578 329.088 60.7656C325.035 52.3621 319.311 45.6187 311.92 40.5457Z" stroke="white"/>
<path d="M350.552 95.416L350.55 95.4175C346.098 100.323 339.471 103.967 331.453 106.742C333.654 98.9748 334.954 90.7827 334.497 83.0122L334.496 82.9992L334.495 82.9863L334.493 82.9661C334.043 78.9086 333.588 74.8122 332.712 71.1275C336.101 69.9739 339.38 68.5969 342.069 66.9922C344.85 65.3332 347.066 63.3925 348.075 61.1438C348.815 59.8976 349.08 58.7379 348.95 57.5621C348.82 56.3966 348.307 55.2637 347.589 54.0646L347.557 54.0118L347.514 53.9683C347.072 53.526 346.739 53.0824 346.385 52.6094L346.378 52.6C346.19 52.3484 345.995 52.0883 345.778 51.8241C355.248 50.0031 362.74 46.9759 367.848 43.0853C368.009 51.8849 364.391 59.8348 357.76 66.5371C356.371 66.5827 355.307 67.0858 354.74 68.1519C354.254 68.6736 354.191 69.2148 354.182 69.6505L353.387 70.4469L353.169 70.6653L353.267 70.9581L353.737 72.3705C353.989 73.1289 354.366 73.7573 354.712 74.3359L354.722 74.3529C355.075 74.9411 355.396 75.4804 355.611 76.1193C357.441 83.4722 355.612 89.8873 350.552 95.416Z" stroke="white"/>
<path d="M176.647 94.3549L176.647 94.355L176.654 94.3531C188.67 91.1128 201.602 88.7838 214.101 87.3673C214.127 93.764 214.61 99.739 215.992 105.279C216.675 108.71 216.21 111.765 215.038 114.001C213.866 116.237 212.002 117.638 209.855 117.855C197.627 118.797 184.891 120.213 172.616 123.996L172.612 123.997C168.116 125.419 162.084 127.906 156.638 131.227C151.211 134.535 146.288 138.718 144.107 143.563C143.825 144.13 143.535 144.874 143.342 145.605C140.942 141.365 139.242 137.119 137.533 132.841C137.09 123.357 139.985 115.522 146.38 109.174C152.813 102.789 162.822 97.8754 176.647 94.3549Z" stroke="white"/>
<path d="M292.83 68.4577L292.821 68.454L292.812 68.4506C289.877 67.3198 288.474 65.6582 287.88 63.765C287.303 61.9279 287.466 59.8059 287.884 57.5917C291.67 56.9924 295.045 54.4876 297.481 51.5828C299.985 48.5974 301.594 45.0726 301.594 42.5513C301.594 41.6645 301.421 40.9455 301.184 40.3146C317.299 48.4156 328.31 63.4666 327.858 80.6745L327.858 80.6745V80.6876C327.858 93.0755 324.122 107.208 315.912 118.171C307.716 129.116 295.054 136.919 277.128 136.686C263.107 136.452 248.195 132.238 237.616 122.69C227.062 113.165 220.757 98.2739 224.026 76.5246L224.027 76.5166L224.028 76.5086C226.754 53.3044 246.81 35.8354 271.665 34.1932C270.066 35.5331 269.099 37.2183 269.099 39.2556C269.099 41.7609 270.576 45.3952 272.952 48.7269C275.286 51.9986 278.554 55.076 282.33 56.5745C282.827 58.9611 282.607 60.877 281.905 62.3703C281.177 63.9156 279.909 65.0601 278.263 65.8143C274.952 67.3321 270.158 67.2415 265.534 65.6204L265.532 65.6198C262.522 64.5761 259.764 63.0948 257.157 61.6459C256.91 61.5083 256.663 61.3709 256.418 61.2341C254.096 59.9392 251.875 58.7003 249.735 57.9133C247.356 57.0387 245.013 56.6966 242.669 57.474C240.331 58.2496 238.077 60.1108 235.81 63.4577L235.807 63.4611C230.554 71.3536 228.782 82.0781 230.264 92.1776C231.747 102.276 236.499 111.836 244.399 117.351L244.402 117.353C252.357 122.817 259.6 120.964 267.205 119.018C267.67 118.899 268.137 118.779 268.605 118.661C276.735 116.611 285.498 114.885 296.604 121.606L296.606 121.607C299.124 123.12 301.417 122.864 303.356 121.987C304.924 121.278 306.288 120.147 307.355 119.262C307.579 119.076 307.79 118.901 307.987 118.743L308 118.733L308.011 118.723C318.481 109.19 322.862 94.8024 323.158 83.5846C323.306 77.9811 322.437 73.0986 320.74 69.9802C319.89 68.4187 318.806 67.2524 317.49 66.699C316.157 66.1385 314.667 66.2402 313.095 67.0557C307.053 69.8461 299.225 71.2031 292.83 68.4577Z" stroke="white"/>
<path d="M254.577 73.5279L254.571 73.4974L254.561 73.4679C254.148 72.2264 254.464 71.3771 255.073 70.8149C255.712 70.2239 256.739 69.894 257.82 69.8885C259.304 70.0575 260.717 70.5215 262.637 71.152C263.358 71.3888 264.15 71.649 265.044 71.9259C268.3 72.9338 272.792 74.117 279.871 75.0626C289.87 76.5459 295.83 76.2838 299.954 76.1024C301.083 76.0527 302.075 76.0091 302.974 76.0091C304.973 76.0091 305.951 76.6674 306.421 77.469C306.914 78.3078 306.94 79.4451 306.719 80.5674C306.018 82.9061 305.09 85.5731 304.111 87.591C303.618 88.6075 303.127 89.4286 302.664 89.9597C302.171 90.5241 301.855 90.6035 301.686 90.561L301.626 90.5461H301.564C301.439 90.5461 301.279 90.4833 301.079 90.1949C300.876 89.9018 300.688 89.4491 300.517 88.8491C300.176 87.6543 299.946 86.0466 299.709 84.3883C299.464 82.4302 298.842 81.0147 297.735 79.9711C296.643 78.9413 295.133 78.327 293.227 77.8497C284.242 75.4818 273.855 75.0081 267.23 75.4799C265.654 75.488 262.61 76.5289 261.597 80.0801C261.124 81.7384 260.663 83.3518 260.149 84.5522C259.892 85.1535 259.636 85.6164 259.381 85.9217C259.123 86.23 258.927 86.3087 258.788 86.3087C258.655 86.3087 258.491 86.2517 258.285 86.0652C258.077 85.8759 257.857 85.579 257.632 85.17C257.182 84.3528 256.769 83.1903 256.39 81.847C255.773 79.6608 255.272 77.0875 254.851 74.9266C254.756 74.436 254.665 73.9666 254.577 73.5279Z" stroke="white"/>
<path d="M294.955 111.346L294.957 111.367L294.961 111.389C295.168 112.422 294.847 113.282 294.309 113.732C293.796 114.16 292.976 114.304 291.949 113.687L291.928 113.675L291.906 113.664C281.872 108.878 273.735 110.325 266.158 112.697L266.158 112.697L266.149 112.7C264.894 113.119 264.078 112.782 263.648 112.222C263.193 111.629 263.06 110.648 263.481 109.593L263.489 109.572L263.496 109.551C264.198 107.205 265.011 104.884 265.873 103.157C266.305 102.292 266.737 101.601 267.156 101.134C267.586 100.656 267.931 100.491 268.187 100.491C268.232 100.491 268.311 100.506 268.433 100.648C268.562 100.798 268.699 101.045 268.837 101.406C269.113 102.126 269.341 103.144 269.577 104.326L269.59 104.392L269.62 104.452L269.628 104.466C269.861 104.933 270.238 105.689 270.812 106.328C271.4 106.982 272.23 107.553 273.358 107.553C276.712 107.553 280.446 107.931 284.593 108.351C285.045 108.396 285.503 108.443 285.965 108.489C287.048 108.749 287.997 108.47 288.728 108.005C289.456 107.541 289.985 106.881 290.258 106.335L290.267 106.316L290.275 106.297C290.727 105.165 291.286 104.277 291.826 103.682C292.391 103.06 292.852 102.845 293.101 102.845C293.139 102.845 293.309 102.88 293.549 103.368C293.77 103.817 293.965 104.488 294.139 105.33C294.463 106.895 294.687 108.921 294.907 110.915C294.923 111.059 294.939 111.202 294.955 111.346Z" stroke="white"/>
<path d="M204.826 48.6914L204.838 48.689L204.85 48.6861C213.757 46.4557 223.525 45.4976 233.347 45.4118C226.413 50.9851 221.176 58.551 218.014 66.5465C217.913 66.5594 217.739 66.5954 217.595 66.7395C217.442 66.8928 217.411 67.0808 217.401 67.1774C217.393 67.2433 217.391 67.3184 217.39 67.392C215.554 71.2605 213.282 73.7387 210.525 75.3727C207.735 77.0267 204.409 77.8395 200.445 78.3071C187.978 79.4852 173.716 81.4904 161.207 85.6273C149.397 89.5331 139.067 95.3657 133.327 104.277C133.43 99.6582 133.937 94.7754 135.162 90.2638C139.571 79.3685 149.904 70.3866 162.719 63.4122C175.533 56.4382 190.761 51.5089 204.826 48.6914Z" stroke="white"/>
</svg>
